<?xml version="1.0" encoding="UTF-8"?>
<svg id="Layer_1" data-name="Layer 1" xmlns="http://www.w3.org/2000/svg" xmlns:xlink="http://www.w3.org/1999/xlink" viewBox="0 0 63.99 64">
  <defs>
    <style>
      .cls-1 {
        stroke: url(#linear-gradient-2);
      }

      .cls-1, .cls-2, .cls-3, .cls-4, .cls-5, .cls-6 {
        fill: none;
        stroke-miterlimit: 10;
      }

      .cls-2 {
        stroke: url(#linear-gradient-3);
      }

      .cls-7 {
        fill: url(#linear-gradient-6);
        stroke-width: 0px;
      }

      .cls-3 {
        stroke: url(#linear-gradient-4);
      }

      .cls-4 {
        stroke: url(#linear-gradient-7);
        stroke-width: .75px;
      }

      .cls-5 {
        stroke: url(#linear-gradient-5);
        stroke-width: .5px;
      }

      .cls-6 {
        stroke: url(#linear-gradient);
      }
    </style>
    <linearGradient id="linear-gradient" x1="0" y1="56.26" x2="15.47" y2="56.26" gradientUnits="userSpaceOnUse">
      <stop offset="0" stop-color="#3cf2de" stop-opacity=".8"/>
      <stop offset=".19" stop-color="rgba(67, 231, 224, .82)" stop-opacity=".82"/>
      <stop offset=".5" stop-color="rgba(86, 203, 231, .88)" stop-opacity=".88"/>
      <stop offset=".88" stop-color="rgba(117, 156, 243, .97)" stop-opacity=".97"/>
      <stop offset="1" stop-color="#818cf8"/>
    </linearGradient>
    <linearGradient id="linear-gradient-2" x1="48.52" x2="63.99" xlink:href="#linear-gradient"/>
    <linearGradient id="linear-gradient-3" x1="48.52" y1="7.73" x2="63.99" y2="7.73" xlink:href="#linear-gradient"/>
    <linearGradient id="linear-gradient-4" y1="7.73" y2="7.73" xlink:href="#linear-gradient"/>
    <linearGradient id="linear-gradient-5" x1="21.88" y1="31.97" x2="41.96" y2="31.97" xlink:href="#linear-gradient"/>
    <linearGradient id="linear-gradient-6" x1="26.4" y1="31.97" x2="37.44" y2="31.97" xlink:href="#linear-gradient"/>
    <linearGradient id="linear-gradient-7" x1="15.02" y1="21.02" x2="52.57" y2="21.02" gradientTransform="translate(22.89 70.73) rotate(-45) scale(1 -1)" xlink:href="#linear-gradient"/>
  </defs>
  <polyline class="cls-6" points=".5 48.53 .5 63.5 15.47 63.5"/>
  <polyline class="cls-1" points="63.49 48.53 63.49 63.5 48.52 63.5"/>
  <polyline class="cls-2" points="63.49 15.47 63.49 .5 48.52 .5"/>
  <polyline class="cls-3" points=".5 15.47 .5 .5 15.47 .5"/>
  <circle class="cls-5" cx="31.92" cy="31.97" r="9.79"/>
  <path class="cls-7" d="M36.54,28.95c-.24.58-.8.98-1.46.98-.87,0-1.58-.71-1.58-1.58,0-.58.33-1.07.8-1.34-.72-.35-1.52-.56-2.38-.56-3.05,0-5.52,2.47-5.52,5.52s2.47,5.52,5.52,5.52,5.52-2.47,5.52-5.52c0-1.12-.34-2.15-.91-3.02Z"/>
  <path class="cls-4" d="M57.94,31.97c-16.52,16.52-35.52,16.52-52.04,0,16.52-16.52,35.52-16.52,52.04,0Z"/>
</svg>