<?xml version="1.0" encoding="UTF-8"?>
<svg id="Layer_1" data-name="Layer 1" xmlns="http://www.w3.org/2000/svg" xmlns:xlink="http://www.w3.org/1999/xlink" viewBox="0 0 63.97 41.71">
  <defs>
    <style>
      .cls-1 {
        fill-rule: evenodd;
      }

      .cls-1, .cls-2, .cls-3, .cls-4, .cls-5, .cls-6, .cls-7, .cls-8, .cls-9, .cls-10 {
        stroke-width: 0px;
      }

      .cls-1, .cls-9 {
        fill: #fff;
      }

      .cls-2 {
        fill: url(#linear-gradient);
      }

      .cls-3 {
        fill: url(#linear-gradient-6);
      }

      .cls-4 {
        fill: url(#linear-gradient-11);
      }

      .cls-11 {
        opacity: .8;
      }

      .cls-5 {
        fill: url(#linear-gradient-2);
      }

      .cls-6 {
        fill: url(#linear-gradient-7);
      }

      .cls-7 {
        fill: url(#linear-gradient-9);
      }

      .cls-12 {
        fill: url(#linear-gradient-3);
        stroke: url(#linear-gradient-4);
        stroke-width: .15px;
      }

      .cls-12, .cls-13 {
        stroke-miterlimit: 10;
      }

      .cls-8 {
        fill: url(#linear-gradient-8);
      }

      .cls-13 {
        fill: none;
        stroke: url(#linear-gradient-5);
        stroke-width: .16px;
      }

      .cls-10 {
        fill: url(#linear-gradient-10);
      }
    </style>
    <linearGradient id="linear-gradient" x1="8.14" y1="23.16" x2="55.83" y2="46.41" gradientUnits="userSpaceOnUse">
      <stop offset="0" stop-color="#3cf2de" stop-opacity=".8"/>
      <stop offset=".15" stop-color="rgba(67, 231, 224, .82)" stop-opacity=".82"/>
      <stop offset=".38" stop-color="rgba(86, 203, 231, .88)" stop-opacity=".88"/>
      <stop offset=".67" stop-color="rgba(117, 156, 243, .97)" stop-opacity=".97"/>
      <stop offset=".77" stop-color="#818cf8"/>
    </linearGradient>
    <linearGradient id="linear-gradient-2" x1="14.01" y1="28.81" x2="49.76" y2="46.24" xlink:href="#linear-gradient"/>
    <linearGradient id="linear-gradient-3" x1=".08" y1="3.43" x2="63.89" y2="3.43" xlink:href="#linear-gradient"/>
    <linearGradient id="linear-gradient-4" x1="0" y1="3.43" x2="63.96" y2="3.43" xlink:href="#linear-gradient"/>
    <linearGradient id="linear-gradient-5" x1="0" y1="24.21" x2="63.97" y2="24.21" xlink:href="#linear-gradient"/>
    <linearGradient id="linear-gradient-6" x1="39.43" y1="23.33" x2="57.64" y2="32.2" xlink:href="#linear-gradient"/>
    <linearGradient id="linear-gradient-7" x1="39.43" y1="19.71" x2="57.64" y2="28.59" xlink:href="#linear-gradient"/>
    <linearGradient id="linear-gradient-8" x1="39.43" y1="16.1" x2="57.64" y2="24.98" xlink:href="#linear-gradient"/>
    <linearGradient id="linear-gradient-9" x1="39.43" y1="12.49" x2="57.64" y2="21.36" xlink:href="#linear-gradient"/>
    <linearGradient id="linear-gradient-10" x1="39.43" y1="8.87" x2="57.64" y2="17.75" xlink:href="#linear-gradient"/>
    <linearGradient id="linear-gradient-11" x1="3.96" y1="13.57" x2="32.49" y2="27.47" xlink:href="#linear-gradient"/>
  </defs>
  <g>
    <g class="cls-11">
      <rect class="cls-2" x="2.55" y="34.17" width="58.87" height="1.24" rx=".62" ry=".62"/>
    </g>
    <g class="cls-11">
      <rect class="cls-5" x="9.86" y="36.87" width="44.06" height="1.31" rx=".6" ry=".6"/>
    </g>
  </g>
  <path class="cls-12" d="M63.89,2.05v4.74H.08V2.05C.08.97,1.07.08,2.27.08h59.42c1.21,0,2.19.89,2.19,1.97Z"/>
  <path class="cls-13" d="M63.89,6.79v32.58c0,1.25-.99,2.26-2.19,2.26H2.27c-1.21,0-2.19-1.01-2.19-2.26V6.79h63.81Z"/>
  <g>
    <g class="cls-11">
      <rect class="cls-3" x="37.44" y="26.82" width="22.19" height="1.88" rx=".76" ry=".76"/>
    </g>
    <g class="cls-11">
      <rect class="cls-6" x="37.44" y="23.21" width="22.19" height="1.88" rx=".76" ry=".76"/>
    </g>
    <g class="cls-11">
      <rect class="cls-8" x="37.44" y="19.6" width="22.19" height="1.88" rx=".76" ry=".76"/>
    </g>
    <g class="cls-11">
      <rect class="cls-7" x="37.44" y="15.98" width="22.19" height="1.88" rx=".76" ry=".76"/>
    </g>
    <g class="cls-11">
      <rect class="cls-10" x="37.44" y="12.37" width="22.19" height="1.88" rx=".76" ry=".76"/>
    </g>
  </g>
  <g class="cls-11">
    <rect class="cls-4" x="4.35" y="10.22" width="27.75" height="20.61" rx="3.32" ry="3.32"/>
  </g>
  <g>
    <path class="cls-1" d="M13.99,14.25L4.34,30.86h19.92S14.6,14.25,14.6,14.25c-.13-.23-.47-.23-.6,0Z"/>
    <path class="cls-1" d="M24.44,20.23l-3.49,4.94,3.31,5.68h7.86s-7.11-10.62-7.11-10.62c-.13-.2-.42-.2-.56,0Z"/>
    <ellipse class="cls-9" cx="22.29" cy="14.59" rx="1.71" ry="1.78"/>
  </g>
</svg>