<?xml version="1.0" encoding="UTF-8"?>
<svg id="Layer_1" data-name="Layer 1" xmlns="http://www.w3.org/2000/svg" xmlns:xlink="http://www.w3.org/1999/xlink" viewBox="0 0 64 51.23">
  <defs>
    <style>
      .cls-1 {
        fill: url(#linear-gradient-12);
      }

      .cls-1, .cls-2, .cls-3, .cls-4, .cls-5, .cls-6, .cls-7, .cls-8, .cls-9, .cls-10, .cls-11, .cls-12, .cls-13, .cls-14, .cls-15, .cls-16, .cls-17, .cls-18, .cls-19 {
        stroke-width: 0px;
      }

      .cls-2 {
        fill: url(#linear-gradient-17);
      }

      .cls-3 {
        fill: url(#linear-gradient-19);
      }

      .cls-4 {
        fill: url(#linear-gradient);
      }

      .cls-5 {
        fill: url(#linear-gradient-6);
      }

      .cls-6 {
        fill: url(#linear-gradient-15);
      }

      .cls-7 {
        fill: url(#linear-gradient-11);
      }

      .cls-8 {
        fill: url(#linear-gradient-5);
      }

      .cls-20 {
        opacity: .8;
      }

      .cls-9 {
        fill: url(#linear-gradient-13);
      }

      .cls-10 {
        fill: url(#linear-gradient-16);
      }

      .cls-11 {
        fill: url(#linear-gradient-14);
      }

      .cls-12 {
        fill: url(#linear-gradient-2);
      }

      .cls-13 {
        fill: url(#linear-gradient-7);
      }

      .cls-14 {
        fill: url(#linear-gradient-3);
      }

      .cls-15 {
        fill: url(#linear-gradient-9);
      }

      .cls-16 {
        fill: url(#linear-gradient-8);
      }

      .cls-17 {
        fill: url(#linear-gradient-18);
      }

      .cls-18 {
        fill: url(#linear-gradient-10);
      }

      .cls-19 {
        fill: url(#linear-gradient-4);
      }
    </style>
    <linearGradient id="linear-gradient" x1="21.1" y1="33.21" x2="28.86" y2="33.21" gradientUnits="userSpaceOnUse">
      <stop offset="0" stop-color="#3cf2de" stop-opacity=".8"/>
      <stop offset=".19" stop-color="rgba(67, 231, 224, .82)" stop-opacity=".82"/>
      <stop offset=".5" stop-color="rgba(86, 203, 231, .88)" stop-opacity=".88"/>
      <stop offset=".88" stop-color="rgba(117, 156, 243, .97)" stop-opacity=".97"/>
      <stop offset="1" stop-color="#818cf8"/>
    </linearGradient>
    <linearGradient id="linear-gradient-2" x1="29.45" y1="32.3" x2="34.55" y2="32.3" xlink:href="#linear-gradient"/>
    <linearGradient id="linear-gradient-3" x1="35.14" x2="42.9" xlink:href="#linear-gradient"/>
    <linearGradient id="linear-gradient-4" x1="6.21" y1="34.98" x2="57.79" y2="60.12" gradientUnits="userSpaceOnUse">
      <stop offset="0" stop-color="#3cf2de" stop-opacity=".8"/>
      <stop offset=".15" stop-color="rgba(67, 231, 224, .82)" stop-opacity=".82"/>
      <stop offset=".38" stop-color="rgba(86, 203, 231, .88)" stop-opacity=".88"/>
      <stop offset=".67" stop-color="rgba(117, 156, 243, .97)" stop-opacity=".97"/>
      <stop offset=".77" stop-color="#818cf8"/>
    </linearGradient>
    <linearGradient id="linear-gradient-5" x1="12.66" y1="41.09" x2="51.34" y2="59.94" xlink:href="#linear-gradient-4"/>
    <linearGradient id="linear-gradient-6" x1="3.61" y1="38.04" x2="17.59" y2="44.85" xlink:href="#linear-gradient-4"/>
    <linearGradient id="linear-gradient-7" x1="3.61" y1="34.13" x2="17.59" y2="40.94" xlink:href="#linear-gradient-4"/>
    <linearGradient id="linear-gradient-8" x1="3.61" y1="30.21" x2="17.59" y2="37.02" xlink:href="#linear-gradient-4"/>
    <linearGradient id="linear-gradient-9" x1="3.61" y1="26.3" x2="17.59" y2="33.11" xlink:href="#linear-gradient-4"/>
    <linearGradient id="linear-gradient-10" x1="3.61" y1="22.38" x2="17.59" y2="29.2" xlink:href="#linear-gradient-4"/>
    <linearGradient id="linear-gradient-11" x1="46.61" y1="38.04" x2="60.58" y2="44.85" xlink:href="#linear-gradient-4"/>
    <linearGradient id="linear-gradient-12" x1="46.61" y1="34.13" x2="60.58" y2="40.94" xlink:href="#linear-gradient-4"/>
    <linearGradient id="linear-gradient-13" x1="46.61" y1="30.21" x2="60.58" y2="37.02" xlink:href="#linear-gradient-4"/>
    <linearGradient id="linear-gradient-14" x1="46.61" y1="26.3" x2="60.58" y2="33.11" xlink:href="#linear-gradient-4"/>
    <linearGradient id="linear-gradient-15" x1="46.61" y1="22.38" x2="60.58" y2="29.2" xlink:href="#linear-gradient-4"/>
    <linearGradient id="linear-gradient-16" x1="5.92" y1="5.55" x2="58.08" y2="30.97" xlink:href="#linear-gradient-4"/>
    <linearGradient id="linear-gradient-17" x1="50.48" y1="-133.16" x2="54.84" y2="-137.52" gradientTransform="translate(90.75 158.98) rotate(-179.07) scale(1 -1)" gradientUnits="userSpaceOnUse">
      <stop offset=".09" stop-color="#818cf8" stop-opacity=".8"/>
      <stop offset="1" stop-color="#3cf2de"/>
    </linearGradient>
    <linearGradient id="linear-gradient-18" x1="46.44" y1="-138.42" x2="49.63" y2="-141.43" gradientTransform="translate(-88 -46.55) rotate(-45.06) scale(1 -1)" gradientUnits="userSpaceOnUse">
      <stop offset="0" stop-color="#818cf8" stop-opacity=".8"/>
      <stop offset=".18" stop-color="rgba(119, 153, 244, .83)" stop-opacity=".83"/>
      <stop offset=".53" stop-color="rgba(96, 188, 235, .9)" stop-opacity=".9"/>
      <stop offset="1" stop-color="#3cf2de"/>
    </linearGradient>
    <linearGradient id="linear-gradient-19" x1="37.06" y1="-147.99" x2="39.86" y2="-150.63" gradientTransform="translate(90.61 159.11) rotate(-179) scale(1 -1) skewX(-.15)" gradientUnits="userSpaceOnUse">
      <stop offset="0" stop-color="#818cf8" stop-opacity=".8"/>
      <stop offset=".18" stop-color="rgba(119, 153, 244, .83)" stop-opacity=".83"/>
      <stop offset=".53" stop-color="rgba(96, 188, 235, .9)" stop-opacity=".9"/>
      <stop offset="1" stop-color="#3cf2de"/>
    </linearGradient>
  </defs>
  <g>
    <path class="cls-4" d="M28.86,37.22l-7.76-3.5v-1.02l7.76-3.5v1.08l-7.24,3.24v-.64l7.24,3.23v1.1Z"/>
    <path class="cls-12" d="M30.47,38.78l-1.02-.3,4.07-12.66,1.03.3-4.09,12.66Z"/>
    <path class="cls-14" d="M35.14,37.22v-1.1l7.25-3.23v.64l-7.25-3.24v-1.08l7.76,3.5v1.02l-7.76,3.5Z"/>
  </g>
  <g class="cls-20">
    <rect class="cls-19" x=".15" y="46.88" width="63.69" height="1.34" rx=".67" ry=".67"/>
  </g>
  <g class="cls-20">
    <rect class="cls-8" x="8.16" y="49.81" width="47.67" height="1.42" rx=".65" ry=".65"/>
  </g>
  <g>
    <g class="cls-20">
      <rect class="cls-5" x="2.19" y="40.43" width="16.82" height="2.04" rx=".69" ry=".69"/>
    </g>
    <g class="cls-20">
      <rect class="cls-13" x="2.19" y="36.51" width="16.82" height="2.04" rx=".69" ry=".69"/>
    </g>
    <g class="cls-20">
      <rect class="cls-16" x="2.19" y="32.6" width="16.82" height="2.04" rx=".69" ry=".69"/>
    </g>
    <g class="cls-20">
      <rect class="cls-15" x="2.19" y="28.68" width="16.82" height="2.04" rx=".69" ry=".69"/>
    </g>
    <g class="cls-20">
      <rect class="cls-18" x="2.19" y="24.77" width="16.82" height="2.04" rx=".69" ry=".69"/>
    </g>
  </g>
  <g>
    <g class="cls-20">
      <rect class="cls-7" x="45.18" y="40.43" width="16.82" height="2.04" rx=".69" ry=".69"/>
    </g>
    <g class="cls-20">
      <rect class="cls-1" x="45.18" y="36.51" width="16.82" height="2.04" rx=".69" ry=".69"/>
    </g>
    <g class="cls-20">
      <rect class="cls-9" x="45.18" y="32.6" width="16.82" height="2.04" rx=".69" ry=".69"/>
    </g>
    <g class="cls-20">
      <rect class="cls-11" x="45.18" y="28.68" width="16.82" height="2.04" rx=".69" ry=".69"/>
    </g>
    <g class="cls-20">
      <rect class="cls-6" x="45.18" y="24.77" width="16.82" height="2.04" rx=".69" ry=".69"/>
    </g>
  </g>
  <g class="cls-20">
    <rect class="cls-10" x="0" y="16.8" width="64" height="2.92" rx="1.17" ry="1.17"/>
  </g>
  <g>
    <path class="cls-2" d="M45.08,24.46l-8.71,2.8-.26-.27,5.28-5.1c.31.25.77.25,1.07-.04.32-.31.33-.82.02-1.14s-.82-.33-1.14-.02c-.3.29-.32.74-.08,1.06l-5.28,5.1-.26-.27,3.1-8.61,4.16-.86,1.55,1.61,1.55,1.61-1.01,4.13Z"/>
    <rect class="cls-17" x="42.8" y="17.97" width="4.36" height=".65" transform="translate(63.07 63.36) rotate(-134.02)"/>
    <path class="cls-3" d="M63.36.66h0c.84.87.81,2.25-.05,3.08l-16.31,15.76-3.03-3.14L60.28.61c.86-.84,2.24-.81,3.08.05Z"/>
  </g>
</svg>