<?xml version="1.0" encoding="UTF-8"?>
<svg id="Layer_1" data-name="Layer 1" xmlns="http://www.w3.org/2000/svg" xmlns:xlink="http://www.w3.org/1999/xlink" viewBox="0 0 64 63.69">
  <defs>
    <style>
      .cls-1 {
        fill: url(#linear-gradient);
      }

      .cls-1, .cls-2, .cls-3, .cls-4, .cls-5 {
        stroke-width: 0px;
      }

      .cls-6 {
        stroke: url(#linear-gradient-4);
      }

      .cls-6, .cls-7 {
        fill: none;
        stroke-miterlimit: 10;
        stroke-width: .25px;
      }

      .cls-2 {
        fill: url(#linear-gradient-2);
      }

      .cls-3 {
        fill: url(#linear-gradient-3);
      }

      .cls-7 {
        stroke: url(#linear-gradient-5);
      }

      .cls-4 {
        fill: #3cf2de;
      }

      .cls-5 {
        fill: #818cf8;
      }
    </style>
    <linearGradient id="linear-gradient" x1="41.2" y1="-66.48" x2="48.88" y2="-74.17" gradientTransform="translate(-2.15 -47.54) rotate(.93) scale(1 -1)" gradientUnits="userSpaceOnUse">
      <stop offset=".09" stop-color="#818cf8" stop-opacity=".8"/>
      <stop offset="1" stop-color="#3cf2de"/>
    </linearGradient>
    <linearGradient id="linear-gradient-2" x1="34.09" y1="-75.76" x2="39.7" y2="-81.05" gradientTransform="translate(-48.09 2.18) rotate(-45.06) scale(1 -1)" gradientUnits="userSpaceOnUse">
      <stop offset="0" stop-color="#818cf8" stop-opacity=".8"/>
      <stop offset=".18" stop-color="rgba(119, 153, 244, .83)" stop-opacity=".83"/>
      <stop offset=".53" stop-color="rgba(96, 188, 235, .9)" stop-opacity=".9"/>
      <stop offset="1" stop-color="#3cf2de"/>
    </linearGradient>
    <linearGradient id="linear-gradient-3" x1="17.81" y1="-92.36" x2="22.75" y2="-97.01" gradientTransform="translate(-2.01 -47.67) rotate(1) scale(1 -1) skewX(-.15)" gradientUnits="userSpaceOnUse">
      <stop offset="0" stop-color="#818cf8" stop-opacity=".8"/>
      <stop offset=".18" stop-color="rgba(119, 153, 244, .83)" stop-opacity=".83"/>
      <stop offset=".53" stop-color="rgba(96, 188, 235, .9)" stop-opacity=".9"/>
      <stop offset="1" stop-color="#3cf2de"/>
    </linearGradient>
    <linearGradient id="linear-gradient-4" x1="52.91" y1="-10.61" x2="32.75" y2="6.06" gradientTransform="translate(19.35 -15.75) rotate(46.14)" gradientUnits="userSpaceOnUse">
      <stop offset="0" stop-color="#3cf2de" stop-opacity=".8"/>
      <stop offset=".21" stop-color="rgba(76, 217, 228, .85)" stop-opacity=".85"/>
      <stop offset=".73" stop-color="rgba(114, 161, 242, .96)" stop-opacity=".96"/>
      <stop offset="1" stop-color="#818cf8"/>
    </linearGradient>
    <linearGradient id="linear-gradient-5" x1="51.04" y1="-.78" x2="35.86" y2="11.76" xlink:href="#linear-gradient-4"/>
  </defs>
  <circle class="cls-5" cx="39.31" cy="1.56" r="1.56"/>
  <g>
    <g>
      <path class="cls-1" d="M33.28,20.61l15.35-4.94.46.47-9.31,8.99c-.55-.45-1.36-.43-1.88.07-.56.54-.58,1.44-.03,2s1.44.58,2,.03c.52-.5.57-1.31.14-1.87l9.31-8.99.46.47-5.46,15.17-7.33,1.52-2.73-2.83-2.73-2.83,1.77-7.27Z"/>
      <rect class="cls-2" x="29.63" y="30.88" width="7.68" height="1.15" transform="translate(32.83 -14.47) rotate(45.98)"/>
      <path class="cls-3" d="M1.08,62.52h0c-1.47-1.53-1.43-3.96.09-5.43l28.74-27.77,5.34,5.52L6.51,62.61c-1.52,1.47-3.95,1.43-5.42-.09Z"/>
    </g>
    <line class="cls-6" x1="38.98" y1="1.4" x2="62.35" y2="25.72"/>
    <circle class="cls-5" cx="62.44" cy="25.63" r="1.56"/>
    <rect class="cls-4" x="49.63" y="12.55" width="3.36" height="3.36" transform="translate(26.01 -32.63) rotate(46.14)"/>
    <path class="cls-7" d="M36.58,11.3s8.74-3.31,14.73,2.92c5.99,6.23,2.34,14.83,2.34,14.83"/>
    <rect class="cls-4" x="51.97" y="27.38" width="3.36" height="3.36" transform="translate(37.42 -29.76) rotate(46.14)"/>
    <rect class="cls-4" x="34.9" y="9.62" width="3.36" height="3.36" transform="translate(19.38 -22.9) rotate(46.14)"/>
  </g>
</svg>