<?xml version="1.0" encoding="UTF-8"?>
<svg id="Layer_1" data-name="Layer 1" xmlns="http://www.w3.org/2000/svg" xmlns:xlink="http://www.w3.org/1999/xlink" viewBox="0 0 64 64">
  <defs>
    <style>
      .cls-1 {
        fill: url(#linear-gradient);
      }

      .cls-1, .cls-2, .cls-3, .cls-4, .cls-5, .cls-6, .cls-7 {
        stroke-width: 0px;
      }

      .cls-2 {
        fill: url(#radial-gradient-2);
      }

      .cls-3 {
        fill: url(#radial-gradient-5);
      }

      .cls-4 {
        fill: url(#radial-gradient);
      }

      .cls-5 {
        fill: url(#radial-gradient-6);
      }

      .cls-6 {
        fill: url(#radial-gradient-3);
      }

      .cls-7 {
        fill: url(#radial-gradient-4);
      }
    </style>
    <radialGradient id="radial-gradient" cx="16.67" cy="16.11" fx="16.67" fy="16.11" r="5.33" gradientTransform="translate(-1.83 -1.77)" gradientUnits="userSpaceOnUse">
      <stop offset="0" stop-color="#3cf2de" stop-opacity=".8"/>
      <stop offset=".2" stop-color="rgba(64, 235, 223, .81)" stop-opacity=".81"/>
      <stop offset=".44" stop-color="rgba(76, 217, 228, .85)" stop-opacity=".85"/>
      <stop offset=".7" stop-color="rgba(97, 187, 236, .91)" stop-opacity=".91"/>
      <stop offset=".97" stop-color="rgba(125, 144, 246, .99)" stop-opacity=".99"/>
      <stop offset="1" stop-color="#818cf8"/>
    </radialGradient>
    <radialGradient id="radial-gradient-2" cx="15.66" cy="48.08" fx="15.66" fy="48.08" r="5.94" gradientTransform="translate(1.43 -1.17) scale(.93 1.03)" gradientUnits="userSpaceOnUse">
      <stop offset="0" stop-color="#3cf2de" stop-opacity=".8"/>
      <stop offset=".21" stop-color="rgba(69, 227, 225, .83)" stop-opacity=".83"/>
      <stop offset=".59" stop-color="rgba(95, 189, 235, .9)" stop-opacity=".9"/>
      <stop offset="1" stop-color="#818cf8"/>
    </radialGradient>
    <radialGradient id="radial-gradient-3" cx="17.26" cy="48.44" fx="17.26" fy="48.44" r="15.8" gradientTransform="translate(-5.96 1.41) rotate(-5.86)" gradientUnits="userSpaceOnUse">
      <stop offset="0" stop-color="#3cf2de" stop-opacity=".8"/>
      <stop offset=".24" stop-color="rgba(62, 238, 222, .81)" stop-opacity=".81"/>
      <stop offset=".43" stop-color="rgba(70, 225, 226, .83)" stop-opacity=".83"/>
      <stop offset=".59" stop-color="rgba(84, 205, 231, .87)" stop-opacity=".87"/>
      <stop offset=".75" stop-color="rgba(104, 176, 238, .93)" stop-opacity=".93"/>
      <stop offset=".89" stop-color="#818cf8"/>
    </radialGradient>
    <radialGradient id="radial-gradient-4" cx="15.01" cy="14.99" fx="15.01" fy="14.99" r="13.75" gradientTransform="translate(-4.57 4.67) rotate(-17.9)" xlink:href="#radial-gradient-3"/>
    <radialGradient id="radial-gradient-5" cx="44.25" cy="28.13" fx="44.25" fy="28.13" r="30.93" gradientTransform="translate(.22 -.33) rotate(.44)" gradientUnits="userSpaceOnUse">
      <stop offset=".3" stop-color="#3cf2de" stop-opacity=".8"/>
      <stop offset=".36" stop-color="rgba(67, 230, 224, .82)" stop-opacity=".82"/>
      <stop offset=".44" stop-color="rgba(88, 200, 232, .88)" stop-opacity=".88"/>
      <stop offset=".55" stop-color="rgba(121, 150, 245, .98)" stop-opacity=".98"/>
      <stop offset=".58" stop-color="#818cf8"/>
    </radialGradient>
    <radialGradient id="radial-gradient-6" cx="39.73" cy="30.07" fx="39.73" fy="30.07" r="4.86" gradientTransform="translate(-1.04 -.88)" gradientUnits="userSpaceOnUse">
      <stop offset="0" stop-color="#3cf2de" stop-opacity=".8"/>
      <stop offset=".24" stop-color="rgba(62, 238, 222, .81)" stop-opacity=".81"/>
      <stop offset=".43" stop-color="rgba(70, 225, 226, .83)" stop-opacity=".83"/>
      <stop offset=".59" stop-color="rgba(84, 205, 231, .87)" stop-opacity=".87"/>
      <stop offset=".75" stop-color="rgba(104, 176, 238, .93)" stop-opacity=".93"/>
      <stop offset=".89" stop-color="#818cf8"/>
    </radialGradient>
    <linearGradient id="linear-gradient" x1="47.85" y1="38.53" x2="47.85" y2="21.53" gradientTransform="translate(-1.04 -.88)" gradientUnits="userSpaceOnUse">
      <stop offset=".29" stop-color="#7a96f5" stop-opacity=".96"/>
      <stop offset=".34" stop-color="rgba(98, 184, 236, .9)" stop-opacity=".9"/>
      <stop offset=".4" stop-color="rgba(77, 216, 228, .85)" stop-opacity=".85"/>
      <stop offset=".45" stop-color="rgba(64, 235, 223, .81)" stop-opacity=".81"/>
      <stop offset=".5" stop-color="#3cf2de" stop-opacity=".8"/>
      <stop offset=".66" stop-color="rgba(88, 200, 232, .88)" stop-opacity=".88"/>
      <stop offset=".87" stop-color="#818cf8"/>
    </linearGradient>
  </defs>
  <path class="cls-4" d="M17.76,14.79l-5.31,3.07c-.35.2-.79-.05-.79-.45v-6.13c0-.4.44-.66.79-.45l5.31,3.07c.35.2.35.71,0,.91Z"/>
  <path class="cls-2" d="M20.52,46.19c-.33-1.03-1.21-1.72-2.19-1.74-1-.02-1.91.66-2.27,1.7,0,.02-.03.02-.03,0-.36-1.04-1.27-1.72-2.27-1.7-.98.02-1.85.72-2.19,1.74-.06.19-.1.38-.11.56-.2,2.48,3.56,4.61,4.45,5.09.09.05.18.05.27,0,.9-.48,4.65-2.6,4.45-5.09-.01-.18-.05-.37-.11-.56Z"/>
  <path class="cls-6" d="M31.7,49.75l-2.81-1.49c-.37-.2-.6-.58-.62-1.01-.02-.42-.06-.84-.13-1.26-.07-.42.08-.84.4-1.11.64-.53,1.73-1.43,2.46-2.02.43-.36.55-.97.29-1.46l-1.41-2.63c-.27-.49-.84-.73-1.38-.57l-3.04.93c-.41.12-.84.01-1.15-.28-.31-.29-.64-.55-.98-.8-.34-.25-.54-.65-.5-1.07.08-.83.22-2.23.31-3.17.05-.56-.29-1.08-.83-1.24l-2.86-.86c-.54-.16-1.12.08-1.38.58l-1.49,2.81c-.2.37-.58.6-1.01.62-.42.02-.84.06-1.26.13-.42.07-.84-.08-1.11-.4-.53-.64-1.43-1.73-2.02-2.46-.36-.43-.97-.55-1.46-.29l-2.63,1.41c-.49.27-.73.84-.57,1.38l.93,3.04c.12.41.01.84-.28,1.15-.29.31-.55.64-.8.98-.25.34-.65.54-1.07.5-.83-.08-2.23-.22-3.17-.31-.56-.05-1.08.29-1.24.83l-.86,2.86c-.16.54.08,1.12.58,1.38l2.81,1.49c.37.2.6.58.62,1.01.02.42.06.84.13,1.26.07.42-.08.84-.4,1.11-.64.53-1.73,1.43-2.46,2.02-.43.36-.55.97-.29,1.46l1.41,2.63c.27.49.84.73,1.38.57l3.04-.93c.41-.12.84-.01,1.15.28.31.29.64.55.98.8.34.25.54.65.5,1.07-.08.83-.22,2.23-.31,3.17-.05.56.29,1.08.83,1.24l2.86.86c.54.16,1.12-.08,1.38-.58l1.49-2.81c.2-.37.58-.6,1.01-.62.42-.02.84-.06,1.26-.13.42-.07.84.08,1.11.4.53.64,1.43,1.73,2.02,2.46.36.43.97.55,1.46.29l2.63-1.41c.49-.27.73-.84.57-1.38l-.93-3.04c-.12-.41-.01-.84.28-1.15.29-.31.55-.64.8-.98.25-.34.65-.54,1.07-.5.83.08,2.23.22,3.17.31.56.05,1.08-.29,1.24-.83l.86-2.86c.16-.54-.08-1.12-.58-1.38ZM16.91,55.16c-4.05.42-7.66-2.53-8.08-6.57s2.53-7.66,6.57-8.08,7.66,2.53,8.08,6.57-2.53,7.66-6.57,8.08Z"/>
  <path class="cls-7" d="M27.89,13.12l-2.66-.76c-.35-.1-.62-.39-.71-.74-.09-.35-.21-.7-.34-1.05-.13-.35-.09-.73.14-1.02.45-.57,1.22-1.53,1.73-2.17.3-.38.29-.92-.02-1.3l-1.68-1.98c-.32-.37-.85-.47-1.28-.23l-2.42,1.35c-.32.18-.71.16-1.03-.03-.32-.19-.65-.36-.98-.51-.34-.15-.58-.45-.62-.82-.08-.72-.22-1.94-.31-2.75-.06-.49-.45-.86-.93-.9L14.19,0c-.49-.04-.94.27-1.07.74l-.76,2.66c-.1.35-.39.62-.74.71-.35.09-.7.21-1.05.34-.35.13-.73.09-1.02-.14-.57-.45-1.53-1.22-2.17-1.73-.38-.3-.92-.29-1.3.02l-1.98,1.68c-.37.32-.47.85-.23,1.28l1.35,2.42c.18.32.16.71-.03,1.03-.19.32-.36.65-.51.98-.15.34-.45.58-.82.62-.72.08-1.94.22-2.75.31-.49.06-.86.45-.9.93L0,14.44c-.04.49.27.94.74,1.07l2.66.76c.35.1.62.39.71.74.09.35.21.7.34,1.05.13.35.09.73-.14,1.02-.45.57-1.22,1.53-1.73,2.17-.3.38-.29.93.02,1.3l1.68,1.98c.32.37.85.47,1.28.23l2.42-1.35c.32-.18.71-.16,1.03.03.32.19.65.36.98.51.34.15.58.45.62.82.08.72.22,1.94.31,2.75.06.49.45.86.93.9l2.59.21c.49.04.94-.27,1.07-.74l.76-2.66c.1-.35.39-.62.74-.71.35-.09.7-.21,1.05-.34.35-.13.73-.09,1.02.14.57.45,1.53,1.22,2.17,1.73.38.3.92.29,1.3-.02l1.98-1.68c.37-.32.47-.85.23-1.28l-1.35-2.42c-.18-.32-.16-.71.03-1.03.19-.32.36-.65.51-.98.15-.34.45-.58.82-.62.72-.08,1.94-.22,2.75-.31.49-.06.86-.45.9-.93l.21-2.59c.04-.49-.27-.94-.74-1.07ZM16.29,20.42c-3.37,1.09-6.98-.76-8.07-4.13s.76-6.98,4.13-8.07,6.98.76,8.07,4.13c1.09,3.37-.76,6.98-4.13,8.07Z"/>
  <path class="cls-3" d="M63.15,33.07l-2.64-1.88c.18-.95.29-1.92.3-2.92s-.09-1.97-.25-2.92l2.67-1.84c.69-.48.96-1.37.64-2.15l-.81-2c-.32-.78-1.13-1.23-1.96-1.09l-3.2.54c-1.11-1.62-2.5-3.03-4.11-4.17l.59-3.19c.15-.83-.29-1.65-1.06-1.97l-1.99-.84c-.77-.33-1.67-.07-2.16.61l-1.88,2.64c-.95-.18-1.92-.29-2.92-.3s-1.97.09-2.92.25c-.53-.77-1.28-1.85-1.84-2.67-.48-.69-1.37-.96-2.14-.64l-2,.81c-.78.32-1.23,1.13-1.09,1.96l.54,3.2c-1.62,1.11-3.03,2.5-4.17,4.11-.92-.17-2.21-.41-3.19-.59-.83-.15-1.64.29-1.97,1.06l-.84,1.99c-.33.77-.07,1.67.61,2.16l2.64,1.88c-.18.95-.29,1.92-.3,2.92s.09,1.97.25,2.92l-2.67,1.84c-.69.48-.96,1.37-.64,2.15l.81,2c.32.78,1.13,1.23,1.96,1.09l3.2-.54c1.11,1.62,2.5,3.03,4.11,4.17l-.59,3.19c-.15.83.29,1.65,1.06,1.97l1.99.84c.77.33,1.67.07,2.16-.61l1.88-2.64c.95.18,1.92.29,2.92.3s1.97-.09,2.92-.25l1.84,2.67c.48.69,1.37.96,2.15.64l2-.81c.78-.32,1.23-1.13,1.09-1.96l-.54-3.2c1.62-1.11,3.03-2.5,4.17-4.11l3.19.59c.83.15,1.65-.29,1.97-1.06l.84-1.99c.33-.77.07-1.67-.61-2.16ZM44.16,40.46c-6.81-.05-12.28-5.61-12.23-12.42.05-6.81,5.61-12.28,12.42-12.23,6.81.05,12.28,5.61,12.23,12.42-.05,6.81-5.61,12.28-12.42,12.23Z"/>
  <g>
    <rect class="cls-5" x="36.89" y="24.53" width="3.59" height="9.33"/>
    <path class="cls-1" d="M50.44,25.46h-4.37c.96-2.69.82-4.38.82-4.38,0-.57-.56-1.32-1.1-1.3-.52.02-1.02.33-1.15.97-.18,1.96-2.92,5.35-3.08,6.8-.02.16-.02.29-.02.37,0,0,0,0,0,0,0,.03-.01.07-.01.1v3.27c0,1.37,1.29,2.49,2.88,2.49h4.59c1.58,0,2.03-.79,2.27-2.26l.72-3.81c.28-1.25.04-2.26-1.54-2.26Z"/>
  </g>
</svg>