<?xml version="1.0" encoding="UTF-8"?>
<svg id="Layer_1" data-name="Layer 1" xmlns="http://www.w3.org/2000/svg" xmlns:xlink="http://www.w3.org/1999/xlink" viewBox="0 0 64 64">
  <defs>
    <style>
      .cls-1 {
        fill: url(#linear-gradient);
      }

      .cls-1, .cls-2 {
        stroke-width: 0px;
      }

      .cls-2 {
        fill: #fff;
      }
    </style>
    <linearGradient id="linear-gradient" x1="0" y1="32" x2="64" y2="32" gradientUnits="userSpaceOnUse">
      <stop offset="0" stop-color="#3cf2de"/>
      <stop offset=".13" stop-color="#41e9e0"/>
      <stop offset=".33" stop-color="#50d3e5"/>
      <stop offset=".57" stop-color="#69aeef"/>
      <stop offset=".77" stop-color="#818cf8"/>
    </linearGradient>
  </defs>
  <path class="cls-1" d="M64,32.16c0-2.08-.93-3.94-2.39-5.19s-1.99-3.26-1.33-5.02.58-3.97-.48-5.81c-1.04-1.8-2.77-2.95-4.67-3.3-1.85-.34-3.36-1.83-3.67-3.68s-1.48-3.73-3.32-4.79c-1.8-1.04-3.87-1.16-5.69-.52s-3.82.09-5.02-1.36-3.14-2.49-5.27-2.49-3.94.93-5.19,2.39c-1.22,1.43-3.26,1.99-5.02,1.33s-3.97-.58-5.81.48c-1.8,1.04-2.95,2.77-3.3,4.67s-1.83,3.36-3.68,3.67-3.73,1.48-4.79,3.32c-1.04,1.8-1.16,3.87-.52,5.69s.09,3.82-1.36,5.02-2.49,3.14-2.49,5.27.93,3.94,2.39,5.19c1.43,1.22,1.99,3.26,1.33,5.02s-.58,3.97.48,5.81c1.04,1.8,2.77,2.95,4.67,3.3s3.36,1.83,3.67,3.68,1.48,3.73,3.32,4.79c1.8,1.04,3.87,1.16,5.69.52,1.77-.63,3.82-.09,5.02,1.36,1.25,1.52,3.14,2.49,5.27,2.49s3.94-.93,5.19-2.39,3.26-1.99,5.02-1.33,3.97.58,5.81-.48c1.8-1.04,2.95-2.77,3.3-4.67.34-1.85,1.83-3.36,3.68-3.67s3.73-1.48,4.79-3.32c1.04-1.8,1.16-3.87.52-5.69-.63-1.77-.09-3.82,1.36-5.02s2.49-3.14,2.49-5.27Z"/>
  <path class="cls-2" d="M32,9.57c12.37,0,22.43,10.06,22.43,22.43s-10.06,22.43-22.43,22.43-22.43-10.06-22.43-22.43,10.06-22.43,22.43-22.43M32,9.07c-12.66,0-22.93,10.27-22.93,22.93s10.27,22.93,22.93,22.93,22.93-10.27,22.93-22.93-10.27-22.93-22.93-22.93h0Z"/>
  <path class="cls-2" d="M39.15,36.07c-1.91,1.69-4.41,2.72-7.15,2.72s-5.24-1.03-7.15-2.72c-4.75,1.61-8.79,4.78-11.51,8.9,4,6.07,10.86,10.08,18.66,10.08s14.66-4.01,18.66-10.08c-2.72-4.12-6.75-7.29-11.51-8.9Z"/>
  <path class="cls-2" d="M39.22,35.32c2.28-2.01,3.72-4.95,3.72-8.23,0-6.06-4.9-10.97-10.94-10.97s-10.94,4.91-10.94,10.97c0,3.28,1.44,6.22,3.72,8.23,1.93,1.7,4.45,2.74,7.22,2.74s5.29-1.04,7.22-2.74Z"/>
  <path class="cls-2" d="M32,9.57c12.37,0,22.43,10.06,22.43,22.43s-10.06,22.43-22.43,22.43-22.43-10.06-22.43-22.43,10.06-22.43,22.43-22.43M32,9.07c-12.66,0-22.93,10.27-22.93,22.93s10.27,22.93,22.93,22.93,22.93-10.27,22.93-22.93-10.27-22.93-22.93-22.93h0Z"/>
  <path class="cls-2" d="M39.15,36.07c-1.91,1.69-4.41,2.72-7.15,2.72s-5.24-1.03-7.15-2.72c-4.75,1.61-8.79,4.78-11.51,8.9,4,6.07,10.86,10.08,18.66,10.08s14.66-4.01,18.66-10.08c-2.72-4.12-6.75-7.29-11.51-8.9Z"/>
  <path class="cls-2" d="M39.22,35.32c2.28-2.01,3.72-4.95,3.72-8.23,0-6.06-4.9-10.97-10.94-10.97s-10.94,4.91-10.94,10.97c0,3.28,1.44,6.22,3.72,8.23,1.93,1.7,4.45,2.74,7.22,2.74s5.29-1.04,7.22-2.74Z"/>
</svg>