<svg width="362" height="318" viewBox="0 0 362 318" fill="none" xmlns="http://www.w3.org/2000/svg">
<g clip-path="url(#clip0_567_250)">
<path d="M17.4675 108.993L0.0127717 99.1564C-0.222674 88.6321 2.11303 78.2094 6.81708 68.7932C10.8414 87.0687 32.0197 95.7637 41.7911 111.72C44.8007 116.721 46.647 122.334 47.1935 128.145C47.7399 133.957 46.9723 139.816 44.9477 145.29L46.0957 159.46C37.0745 156.757 28.7463 152.128 21.6849 145.894C14.6235 139.66 8.99677 131.968 5.19242 123.349C3.10606 118.492 1.63926 113.392 0.826633 108.169C8.96478 109.035 17.4675 108.993 17.4675 108.993Z" fill="#F2F2F2"/>
<path d="M331.245 287.95L331.781 275.909C337.36 272.924 343.583 271.348 349.91 271.317C341.203 278.439 342.291 292.17 336.388 301.748C334.523 304.722 332.015 307.237 329.047 309.108C326.079 310.98 322.728 312.159 319.243 312.558L311.957 317.022C310.957 311.445 311.177 305.717 312.603 300.234C314.028 294.75 316.625 289.641 320.214 285.258C322.252 282.819 324.588 280.647 327.169 278.793C328.914 283.397 331.245 287.95 331.245 287.95Z" fill="#F2F2F2"/>
<path d="M312.471 310.825L305.873 310.825L302.734 285.362L312.472 285.362L312.471 310.825Z" fill="#FFB6B6"/>
<path d="M314.153 317.224L292.879 317.224V316.954C292.879 314.757 293.752 312.65 295.304 311.096C296.857 309.542 298.963 308.67 301.159 308.669L305.046 305.72L312.296 308.67L314.153 308.67L314.153 317.224Z" fill="#2F2E41"/>
<path d="M281.818 310.825L275.22 310.825L272.082 285.362L281.82 285.362L281.818 310.825Z" fill="#FFB6B6"/>
<path d="M283.501 317.224L262.227 317.224V316.954C262.227 314.757 263.099 312.65 264.652 311.096C266.205 309.542 268.311 308.67 270.507 308.669L274.394 305.72L281.644 308.67L283.501 308.67L283.501 317.224Z" fill="#2F2E41"/>
<path d="M278.962 171.616L321.878 172.69C330.028 177.119 330.152 186.706 327.481 198.089C327.481 198.089 328.383 204.854 326.58 206.658C324.777 208.462 323.875 208.462 324.777 211.619C325.678 214.776 320.915 219.933 321.494 220.512C322.072 221.091 323.425 224.248 323.425 224.248L318.917 249.956C318.917 249.956 315.761 294.608 314.86 295.51C313.958 296.412 313.057 295.51 313.958 297.765C314.86 300.02 315.761 299.118 314.86 300.02C314.061 300.882 313.309 301.785 312.606 302.726H301.708C301.708 302.726 300.886 298.216 300.886 297.765C300.886 297.314 299.984 294.608 299.984 294.157C299.984 293.706 300.781 292.908 300.781 292.908C301.057 291.992 301.243 291.05 301.337 290.098C301.337 289.195 304.041 254.467 304.041 254.467L298.632 209.364L285.56 253.565C285.56 253.565 285.56 292.353 284.658 293.255C283.757 294.157 283.757 293.706 284.208 295.51C284.658 297.314 286.461 296.863 285.109 298.216C283.757 299.569 283.306 297.314 283.757 299.569L284.208 301.824L270.684 302.018C270.684 302.018 268.881 298.216 269.783 296.863C270.684 295.51 270.63 295.879 269.53 293.665C268.431 291.451 267.98 291 268.431 290.549C268.881 290.098 268.881 287.699 268.881 287.699L271.135 244.544C271.135 244.544 271.586 198.991 271.586 197.637C271.62 196.941 271.492 196.247 271.211 195.608V193.772L272.938 187.264L278.962 171.616Z" fill="#2F2E41"/>
<path d="M304.742 82.3303C312.106 82.3303 318.076 76.3571 318.076 68.9888C318.076 61.6204 312.106 55.6472 304.742 55.6472C297.378 55.6472 291.408 61.6204 291.408 68.9888C291.408 76.3571 297.378 82.3303 304.742 82.3303Z" fill="#FFB6B6"/>
<path d="M298.075 91.1481C295.203 92.8569 293.484 95.9965 292.498 99.1913C290.671 105.106 289.572 111.222 289.224 117.402L288.182 135.907L275.278 175.308C286.462 184.776 328.498 177.46 328.498 177.46C328.498 177.46 329.789 177.029 328.498 175.738C327.208 174.447 325.952 175.591 327.242 174.3C328.532 173.009 327.643 174.447 327.213 173.156C326.783 171.865 327.213 172.726 327.643 172.295C328.073 171.865 324.313 167.992 324.313 167.992L327.754 145.375L332.055 99.7555C326.894 93.2999 316.513 89.4944 316.513 89.4944L313.831 84.6637L300.42 85.7372L298.075 91.1481Z" fill="#E6E6E6"/>
<path d="M296.246 61.159C296.762 61.163 297.276 61.2304 297.775 61.3597C298.76 61.5966 299.76 61.7644 300.768 61.8619C303.855 62.1524 306.755 63.4696 309.006 65.6031C311.257 67.7365 312.728 70.5631 313.185 73.6314C313.96 72.9555 315.723 71.7122 317.168 72.8677C317.19 72.8861 317.203 72.8955 317.254 72.8714C318.214 72.4159 319.917 66.8089 319.969 61.8721C319.996 59.2518 319.584 55.9058 317.466 54.8462L317.354 54.7904L317.325 54.669C317.184 54.0796 315.603 53.0735 312.855 52.2904C307.861 50.8673 300.418 48.095 296.226 52.1749C295.909 53.5503 294.877 56.4936 293.835 56.8273C292.68 57.1965 291.684 57.5152 291.526 58.932C291.395 60.9483 291.405 62.9712 291.555 64.9861C291.946 63.7532 292.714 62.674 293.75 61.9006C294.487 61.4043 295.358 61.1455 296.246 61.159Z" fill="#2F2E41"/>
<path d="M271.428 134.877L293.209 120.92L282.239 106.328L271.406 119.661L237.654 121.732C236.766 120.854 235.642 120.253 234.419 120.003C233.196 119.753 231.927 119.865 230.766 120.324C229.605 120.784 228.603 121.571 227.882 122.59C227.161 123.61 226.751 124.817 226.704 126.065C226.656 127.313 226.973 128.548 227.615 129.619C228.257 130.69 229.197 131.552 230.319 132.098C231.442 132.644 232.699 132.851 233.937 132.695C235.176 132.538 236.342 132.025 237.294 131.217L271.428 134.877Z" fill="#FFB6B6"/>
<path d="M313.425 101.438C314.689 109.093 290.816 123.711 290.816 123.711C290.816 121.914 276.567 135.478 275.924 133.988C274.096 129.753 272.811 119.722 270.257 118.116C268.796 117.198 279.054 108.572 279.054 108.572C279.054 108.572 284.424 103.16 291.47 96.333C293.427 94.366 295.849 92.9261 298.511 92.1476C301.173 91.369 303.988 91.277 306.696 91.8801C306.696 91.8801 312.161 93.7833 313.425 101.438Z" fill="#E6E6E6"/>
<path d="M358.32 138.54L343.912 117.047L329.564 128.33L343.116 138.884L345.9 172.604C345.042 173.511 344.465 174.648 344.242 175.877C344.018 177.105 344.156 178.373 344.639 179.524C345.123 180.676 345.931 181.661 346.965 182.361C347.999 183.061 349.214 183.445 350.462 183.466C351.71 183.487 352.937 183.144 353.994 182.48C355.051 181.815 355.891 180.857 356.413 179.722C356.935 178.587 357.116 177.325 356.933 176.09C356.751 174.854 356.213 173.699 355.385 172.764L358.32 138.54Z" fill="#FFB6B6"/>
<path d="M324.018 97.237C331.64 95.8104 346.752 119.382 346.752 119.382C344.956 119.42 358.811 133.386 357.336 134.061C353.143 135.979 343.147 137.477 341.597 140.066C340.71 141.547 331.874 131.468 331.874 131.468C331.874 131.468 326.353 126.212 319.382 119.307C317.375 117.392 315.885 115 315.051 112.353C314.216 109.707 314.065 106.892 314.61 104.171C314.61 104.171 316.396 98.6637 324.018 97.237Z" fill="#E6E6E6"/>
<path d="M362 317.331C362 317.414 361.984 317.498 361.952 317.575C361.92 317.653 361.873 317.723 361.814 317.783C361.754 317.842 361.684 317.889 361.606 317.921C361.529 317.953 361.445 317.969 361.362 317.969H211.003C210.833 317.969 210.671 317.902 210.551 317.782C210.431 317.662 210.364 317.5 210.364 317.331C210.364 317.161 210.431 316.999 210.551 316.879C210.671 316.759 210.833 316.692 211.003 316.692H361.362C361.445 316.692 361.529 316.708 361.606 316.74C361.684 316.772 361.754 316.819 361.814 316.878C361.873 316.938 361.92 317.008 361.952 317.086C361.984 317.163 362 317.247 362 317.331Z" fill="#CCCCCC"/>
<path d="M222.71 123.772H40.2285C37.3775 123.775 34.6442 124.91 32.6282 126.927C30.6123 128.944 29.4783 131.679 29.4751 134.531V248.207C29.4783 251.06 30.6123 253.795 32.6283 255.812C34.6442 257.829 37.3775 258.964 40.2285 258.967H222.709C225.56 258.964 228.294 257.829 230.31 255.812C232.326 253.795 233.46 251.06 233.463 248.207V134.531C233.46 131.679 232.326 128.944 230.31 126.927C228.294 124.91 225.561 123.775 222.71 123.772Z" fill="#1A9FFF"/>
<path d="M222.71 123.772H40.2285C37.3775 123.775 34.6442 124.91 32.6282 126.927C30.6123 128.944 29.4783 131.679 29.4751 134.531V248.207C29.4783 251.06 30.6123 253.795 32.6283 255.812C34.6442 257.829 37.3775 258.964 40.2285 258.967H222.709C225.56 258.964 228.294 257.829 230.31 255.812C232.326 253.795 233.46 251.06 233.463 248.207V134.531C233.46 131.679 232.326 128.944 230.31 126.927C228.294 124.91 225.561 123.775 222.71 123.772ZM226.239 205.427C226.195 217 221.62 228.095 213.495 236.331C205.37 244.568 194.342 249.29 182.777 249.485C164.261 249.726 193.022 249.82 170.69 249.82C119.625 249.82 66.3778 249.332 46.5108 249.015C43.8969 248.961 41.4077 247.887 39.5745 246.022C37.7414 244.157 36.7096 241.648 36.6995 239.032V134.54C36.7006 133.603 37.0723 132.705 37.7335 132.042C38.3947 131.378 39.2915 131.004 40.2277 131.001H222.702C223.638 131.002 224.536 131.374 225.198 132.035C225.861 132.697 226.235 133.594 226.239 134.53V205.427Z" fill="#3F3D56"/>
<path d="M200.247 58.3137H61.2154C59.9853 58.3155 58.7857 58.6971 57.7804 59.4064C56.7751 60.1157 56.013 61.1182 55.5983 62.2769L34.1259 122.553C33.8054 123.453 33.7055 124.416 33.8345 125.363C33.9635 126.309 34.3177 127.211 34.8673 127.992C35.4168 128.772 36.1457 129.41 36.9927 129.851C37.8397 130.291 38.78 130.522 39.7346 130.523L226.199 130.854H226.207C227.194 130.854 228.165 130.609 229.034 130.141C229.903 129.673 230.642 128.996 231.185 128.172C231.728 127.348 232.058 126.401 232.146 125.418C232.234 124.435 232.076 123.445 231.688 122.537L205.728 61.9299C205.269 60.8561 204.505 59.9409 203.53 59.298C202.556 58.6551 201.414 58.3128 200.247 58.3137Z" fill="#3F3D56"/>
<path d="M232.171 123.846C232.17 124.654 232.006 125.454 231.688 126.197L205.729 172.851C205.267 173.922 204.502 174.835 203.528 175.477C202.554 176.119 201.413 176.462 200.247 176.463H61.2176C59.987 176.462 58.7868 176.081 57.7807 175.372C56.7745 174.663 56.0115 173.661 55.5957 172.502L34.1273 126.181C33.8642 125.443 33.749 124.661 33.7883 123.878C33.8276 123.095 34.0207 122.328 34.3564 121.62C34.6922 120.913 35.1641 120.278 35.7452 119.753C36.3263 119.227 37.0051 118.822 37.7429 118.559C38.3812 118.329 39.0546 118.211 39.7331 118.21L62.5104 118.168L71.8069 118.151L194.137 117.937L203.439 117.921L226.2 117.878H226.205C227.787 117.878 229.304 118.507 230.423 119.626C231.542 120.745 232.17 122.263 232.171 123.846Z" fill="#3F3D56"/>
<path d="M53.9089 209.042C56.6659 209.042 94.525 211.357 94.525 214.116C94.525 216.874 56.6658 219.031 53.9089 219.031C52.585 219.031 51.3152 218.505 50.3791 217.569C49.4429 216.632 48.917 215.361 48.917 214.037C48.917 212.712 49.4429 211.442 50.3791 210.505C51.3152 209.568 52.585 209.042 53.9089 209.042Z" fill="#3F3D56"/>
<path d="M191.589 21.6449H74.3602C71.2185 21.6485 68.2066 22.8989 65.9851 25.1216C63.7635 27.3444 62.5139 30.3581 62.5103 33.5016V176.463H200.247C201.378 176.467 202.486 176.144 203.439 175.535V33.5016C203.435 30.3581 202.185 27.3444 199.964 25.1216C197.742 22.8989 194.73 21.6485 191.589 21.6449Z" fill="#E6E6E6"/>
<path d="M146.844 31.2579H82.5998C79.7391 31.2607 76.9962 32.3987 74.9729 34.4222C72.9495 36.4457 71.8108 39.1895 71.8066 42.0519V176.463H194.137V78.5773C194.122 66.0318 189.135 54.0044 180.269 45.1334C171.403 36.2625 159.382 31.2724 146.844 31.2579Z" fill="white"/>
<path d="M173.296 164.526H92.6476C91.9505 164.526 91.2819 164.803 90.7889 165.296C90.296 165.79 90.019 166.459 90.019 167.156C90.019 167.854 90.296 168.523 90.7889 169.016C91.2819 169.509 91.9505 169.786 92.6476 169.786H173.296C173.993 169.786 174.662 169.509 175.155 169.016C175.648 168.523 175.925 167.854 175.925 167.156C175.925 166.459 175.648 165.79 175.155 165.296C174.662 164.803 173.993 164.526 173.296 164.526Z" fill="#E4E4E4"/>
<path d="M173.296 154.124H92.6474C91.9495 154.124 91.2802 154.401 90.7868 154.895C90.2933 155.389 90.0161 156.058 90.0161 156.757C90.0161 157.455 90.2933 158.125 90.7868 158.618C91.2802 159.112 91.9495 159.389 92.6474 159.389H173.296C173.994 159.389 174.663 159.112 175.156 158.618C175.65 158.125 175.927 157.455 175.927 156.757C175.927 156.058 175.65 155.389 175.156 154.895C174.663 154.401 173.994 154.124 173.296 154.124Z" fill="#E4E4E4"/>
<path d="M127.607 143.727H92.6476C91.9505 143.727 91.2819 144.004 90.7889 144.497C90.296 144.991 90.019 145.66 90.019 146.357C90.019 147.055 90.296 147.724 90.7889 148.217C91.2819 148.71 91.9505 148.987 92.6476 148.987H127.607C128.305 148.987 128.973 148.71 129.466 148.217C129.959 147.724 130.236 147.055 130.236 146.357C130.236 145.66 129.959 144.991 129.466 144.497C128.973 144.004 128.305 143.727 127.607 143.727Z" fill="#E4E4E4"/>
<path d="M173.296 121.946H92.6474C91.9495 121.946 91.2802 122.224 90.7868 122.717C90.2933 123.211 90.0161 123.881 90.0161 124.579C90.0161 125.277 90.2933 125.947 90.7868 126.441C91.2802 126.934 91.9495 127.212 92.6474 127.212H173.296C173.994 127.212 174.663 126.934 175.156 126.441C175.65 125.947 175.927 125.277 175.927 124.579C175.927 123.881 175.65 123.211 175.156 122.717C174.663 122.224 173.994 121.946 173.296 121.946Z" fill="#E4E4E4"/>
<path d="M173.296 111.549H92.6476C91.9505 111.549 91.2819 111.827 90.7889 112.32C90.296 112.813 90.019 113.482 90.019 114.179C90.019 114.877 90.296 115.546 90.7889 116.039C91.2819 116.532 91.9505 116.81 92.6476 116.81H173.296C173.993 116.81 174.662 116.532 175.155 116.039C175.648 115.546 175.925 114.877 175.925 114.179C175.925 113.482 175.648 112.813 175.155 112.32C174.662 111.827 173.993 111.549 173.296 111.549Z" fill="#E4E4E4"/>
<path d="M127.607 101.147H92.6474C91.9495 101.147 91.2802 101.425 90.7868 101.918C90.2933 102.412 90.0161 103.082 90.0161 103.78C90.0161 104.478 90.2933 105.148 90.7868 105.642C91.2802 106.135 91.9495 106.413 92.6474 106.413H127.607C128.305 106.413 128.974 106.135 129.468 105.642C129.961 105.148 130.238 104.478 130.238 103.78C130.238 103.082 129.961 102.412 129.468 101.918C128.974 101.425 128.305 101.147 127.607 101.147Z" fill="#E4E4E4"/>
<path d="M173.296 79.3662H92.6474C91.9495 79.3662 91.2802 79.6436 90.7868 80.1373C90.2933 80.6311 90.0161 81.3007 90.0161 81.9989C90.0161 82.6972 90.2933 83.3668 90.7868 83.8606C91.2802 84.3543 91.9495 84.6317 92.6474 84.6317H173.296C173.994 84.6317 174.663 84.3543 175.156 83.8606C175.65 83.3668 175.927 82.6972 175.927 81.9989C175.927 81.3007 175.65 80.6311 175.156 80.1373C174.663 79.6436 173.994 79.3662 173.296 79.3662Z" fill="#1A9FFF"/>
<path d="M173.296 68.9695H92.6474C91.9495 68.9695 91.2802 69.2469 90.7868 69.7406C90.2933 70.2343 90.0161 70.904 90.0161 71.6022C90.0161 72.3005 90.2933 72.9701 90.7868 73.4638C91.2802 73.9576 91.9495 74.2349 92.6474 74.2349H173.296C173.994 74.2349 174.663 73.9576 175.156 73.4638C175.65 72.9701 175.927 72.3005 175.927 71.6022C175.927 70.904 175.65 70.2343 175.156 69.7406C174.663 69.2469 173.994 68.9695 173.296 68.9695Z" fill="#1A9FFF"/>
<path d="M127.607 58.5675H92.6474C91.9495 58.5675 91.2802 58.8449 90.7868 59.3386C90.2933 59.8323 90.0161 60.502 90.0161 61.2002C90.0161 61.8985 90.2933 62.5681 90.7868 63.0618C91.2802 63.5556 91.9495 63.833 92.6474 63.833H127.607C128.305 63.833 128.974 63.5556 129.468 63.0618C129.961 62.5681 130.238 61.8985 130.238 61.2002C130.238 60.502 129.961 59.8323 129.468 59.3386C128.974 58.8449 128.305 58.5675 127.607 58.5675Z" fill="#1A9FFF"/>
<path d="M199.043 41.9365C210.35 41.9365 219.515 32.7657 219.515 21.4529C219.515 10.1401 210.35 0.969238 199.043 0.969238C187.737 0.969238 178.571 10.1401 178.571 21.4529C178.571 32.7657 187.737 41.9365 199.043 41.9365Z" fill="#1A9FFF"/>
<path d="M196.251 32.1137C195.897 32.1137 195.548 32.0313 195.232 31.8731C194.916 31.7149 194.641 31.4851 194.429 31.2021L188.844 23.751C188.664 23.5117 188.532 23.2391 188.457 22.9489C188.382 22.6587 188.365 22.3565 188.407 22.0597C188.449 21.763 188.549 21.4774 188.702 21.2194C188.854 20.9613 189.056 20.736 189.296 20.5561C189.535 20.3763 189.808 20.2455 190.098 20.1713C190.389 20.0972 190.691 20.081 190.987 20.1238C191.284 20.1666 191.569 20.2675 191.826 20.4208C192.084 20.5741 192.308 20.7766 192.488 21.0169L196.141 25.8913L205.526 11.8064C205.861 11.3036 206.382 10.9545 206.974 10.836C207.567 10.7175 208.182 10.8392 208.684 11.1744C209.187 11.5097 209.536 12.0309 209.654 12.6235C209.773 13.216 209.651 13.8314 209.316 14.3342L198.146 31.099C197.944 31.4022 197.672 31.6525 197.353 31.8289C197.034 32.0054 196.678 32.1028 196.314 32.113C196.293 32.1133 196.272 32.1137 196.251 32.1137Z" fill="white"/>
</g>
<defs>
<clipPath id="clip0_567_250">
<rect width="362" height="317" fill="white" transform="translate(0 0.969238)"/>
</clipPath>
</defs>
</svg>
