<?xml version="1.0" encoding="UTF-8"?>
<svg xmlns="http://www.w3.org/2000/svg" xmlns:xlink="http://www.w3.org/1999/xlink" width="350px" height="376px" viewBox="0 0 350 376" version="1.1">
<g id="surface1">
<path style=" stroke:none;fill-rule:nonzero;fill:rgb(90.196078%,90.196078%,90.196078%);fill-opacity:1;" d="M 207.683594 11.535156 C 232.878906 -11.433594 264.859375 0.609375 281.8125 41.332031 L 281.234375 42.03125 C 264.488281 1.808594 232.902344 -10.082031 208.015625 12.597656 C 205.902344 14.527344 203.859375 16.679688 201.90625 19.042969 C 176.3125 49.964844 170.261719 110.59375 188.410156 154.195312 L 187.832031 154.890625 C 169.457031 110.75 175.585938 49.367188 201.496094 18.058594 C 203.476562 15.664062 205.542969 13.488281 207.683594 11.535156 Z M 207.683594 11.535156 "/>
<path style=" stroke:none;fill-rule:nonzero;fill:rgb(90.196078%,90.196078%,90.196078%);fill-opacity:1;" d="M 341.164062 109.707031 L 258.289062 98.726562 C 257.003906 98.550781 255.808594 97.515625 254.96875 95.847656 C 254.128906 94.175781 253.714844 92.007812 253.8125 89.8125 L 257.40625 21.214844 C 257.507812 19.023438 258.117188 16.992188 259.097656 15.5625 C 260.078125 14.132812 261.351562 13.425781 262.636719 13.59375 L 345.507812 24.574219 C 346.796875 24.75 347.992188 25.785156 348.828125 27.453125 C 349.667969 29.125 350.082031 31.292969 349.984375 33.488281 L 346.390625 102.085938 C 346.289062 104.277344 345.683594 106.308594 344.703125 107.738281 C 343.722656 109.167969 342.449219 109.875 341.164062 109.707031 Z M 341.164062 109.707031 "/>
<path style=" stroke:none;fill-rule:nonzero;fill:rgb(100%,100%,100%);fill-opacity:1;" d="M 321.585938 94.210938 C 320.957031 94.210938 320.328125 94.167969 319.691406 94.085938 L 266.132812 86.988281 C 265.0625 86.84375 264.019531 86.34375 263.0625 85.515625 C 262.105469 84.6875 261.253906 83.542969 260.554688 82.152344 C 259.855469 80.761719 259.324219 79.152344 258.992188 77.414062 C 258.660156 75.671875 258.53125 73.839844 258.613281 72.015625 L 259.835938 45.269531 C 260.007812 41.585938 261.027344 38.167969 262.675781 35.765625 C 264.324219 33.363281 266.460938 32.171875 268.625 32.457031 L 337.882812 41.632812 C 340.042969 41.925781 342.050781 43.664062 343.457031 46.472656 C 344.871094 49.28125 345.566406 52.925781 345.402344 56.609375 C 344.933594 66.828125 342.222656 76.375 337.808594 83.34375 C 333.398438 90.3125 327.605469 94.195312 321.585938 94.210938 Z M 321.585938 94.210938 "/>
<path style=" stroke:none;fill-rule:nonzero;fill:rgb(90.196078%,90.196078%,90.196078%);fill-opacity:1;" d="M 336.222656 62.898438 L 268.332031 53.898438 C 268.191406 53.878906 268.050781 53.8125 267.925781 53.703125 C 267.800781 53.59375 267.6875 53.445312 267.59375 53.261719 C 267.503906 53.078125 267.433594 52.863281 267.386719 52.632812 C 267.34375 52.402344 267.328125 52.160156 267.339844 51.921875 C 267.351562 51.679688 267.386719 51.445312 267.453125 51.230469 C 267.515625 51.015625 267.605469 50.820312 267.710938 50.664062 C 267.820312 50.507812 267.945312 50.386719 268.082031 50.3125 C 268.214844 50.238281 268.359375 50.210938 268.5 50.226562 L 336.390625 59.226562 C 336.535156 59.246094 336.671875 59.3125 336.796875 59.421875 C 336.925781 59.53125 337.035156 59.679688 337.128906 59.863281 C 337.222656 60.046875 337.292969 60.261719 337.335938 60.492188 C 337.378906 60.722656 337.394531 60.964844 337.386719 61.203125 C 337.375 61.445312 337.335938 61.679688 337.273438 61.894531 C 337.207031 62.109375 337.117188 62.304688 337.011719 62.460938 C 336.902344 62.617188 336.777344 62.738281 336.644531 62.8125 C 336.507812 62.886719 336.367188 62.914062 336.222656 62.898438 Z M 336.222656 62.898438 "/>
<path style=" stroke:none;fill-rule:nonzero;fill:rgb(90.196078%,90.196078%,90.196078%);fill-opacity:1;" d="M 308.035156 66.453125 L 268 61.148438 C 267.714844 61.109375 267.449219 60.882812 267.265625 60.511719 C 267.078125 60.140625 266.984375 59.65625 267.007812 59.171875 C 267.03125 58.683594 267.164062 58.234375 267.382812 57.917969 C 267.601562 57.597656 267.882812 57.441406 268.167969 57.480469 L 308.199219 62.785156 C 308.34375 62.804688 308.480469 62.871094 308.605469 62.980469 C 308.734375 63.089844 308.847656 63.238281 308.9375 63.421875 C 309.03125 63.605469 309.101562 63.820312 309.144531 64.050781 C 309.191406 64.28125 309.207031 64.523438 309.195312 64.761719 C 309.183594 65.003906 309.144531 65.238281 309.082031 65.453125 C 309.015625 65.671875 308.929688 65.863281 308.820312 66.019531 C 308.710938 66.175781 308.585938 66.296875 308.453125 66.371094 C 308.316406 66.445312 308.175781 66.472656 308.035156 66.453125 Z M 308.035156 66.453125 "/>
<path style=" stroke:none;fill-rule:nonzero;fill:rgb(90.196078%,90.196078%,90.196078%);fill-opacity:1;" d="M 316.851562 74.917969 L 267.667969 68.398438 C 267.527344 68.382812 267.390625 68.316406 267.261719 68.207031 C 267.136719 68.097656 267.023438 67.945312 266.933594 67.761719 C 266.839844 67.578125 266.769531 67.367188 266.726562 67.136719 C 266.679688 66.90625 266.664062 66.664062 266.675781 66.421875 C 266.6875 66.179688 266.726562 65.945312 266.789062 65.730469 C 266.855469 65.515625 266.941406 65.324219 267.050781 65.167969 C 267.15625 65.007812 267.285156 64.890625 267.417969 64.816406 C 267.554688 64.738281 267.695312 64.710938 267.835938 64.730469 L 317.019531 71.25 C 317.304688 71.285156 317.570312 71.515625 317.757812 71.886719 C 317.941406 72.257812 318.035156 72.738281 318.011719 73.226562 C 317.992188 73.710938 317.855469 74.164062 317.636719 74.480469 C 317.421875 74.800781 317.136719 74.957031 316.851562 74.917969 Z M 316.851562 74.917969 "/>
<path style=" stroke:none;fill-rule:nonzero;fill:rgb(90.196078%,90.196078%,90.196078%);fill-opacity:1;" d="M 335.617188 202.828125 L 252.742188 191.84375 C 251.457031 191.671875 250.261719 190.636719 249.425781 188.964844 C 248.585938 187.296875 248.167969 185.125 248.269531 182.933594 L 251.859375 114.335938 C 251.960938 112.144531 252.570312 110.113281 253.550781 108.683594 C 254.53125 107.253906 255.804688 106.542969 257.089844 106.710938 L 339.964844 117.695312 C 341.25 117.871094 342.445312 118.90625 343.285156 120.574219 C 344.121094 122.246094 344.539062 124.414062 344.441406 126.605469 L 340.847656 195.203125 C 340.746094 197.398438 340.136719 199.429688 339.15625 200.859375 C 338.175781 202.289062 336.902344 202.996094 335.617188 202.828125 Z M 335.617188 202.828125 "/>
<path style=" stroke:none;fill-rule:nonzero;fill:rgb(100%,100%,100%);fill-opacity:1;" d="M 316.019531 187.332031 C 315.398438 187.332031 314.777344 187.289062 314.148438 187.207031 L 260.589844 180.105469 C 259.515625 179.964844 258.472656 179.464844 257.515625 178.636719 C 256.558594 177.808594 255.707031 176.664062 255.007812 175.273438 C 254.308594 173.886719 253.777344 172.273438 253.445312 170.53125 C 253.113281 168.792969 252.984375 166.957031 253.070312 165.132812 L 254.289062 138.390625 C 254.371094 136.566406 254.667969 134.785156 255.152344 133.15625 C 255.640625 131.523438 256.3125 130.070312 257.128906 128.882812 C 257.945312 127.691406 258.890625 126.789062 259.910156 126.21875 C 260.929688 125.652344 262.007812 125.433594 263.078125 125.578125 L 332.335938 134.753906 C 333.40625 134.898438 334.449219 135.398438 335.410156 136.226562 C 336.367188 137.054688 337.21875 138.199219 337.917969 139.589844 C 338.613281 140.980469 339.144531 142.589844 339.480469 144.332031 C 339.8125 146.070312 339.9375 147.90625 339.855469 149.730469 C 339.382812 159.953125 336.667969 169.496094 332.25 176.464844 C 327.832031 183.429688 322.039062 187.308594 316.019531 187.332031 Z M 316.019531 187.332031 "/>
<path style=" stroke:none;fill-rule:nonzero;fill:rgb(90.196078%,90.196078%,90.196078%);fill-opacity:1;" d="M 330.679688 156.015625 L 262.785156 147.019531 C 262.644531 147 262.507812 146.933594 262.378906 146.824219 C 262.253906 146.714844 262.140625 146.5625 262.050781 146.378906 C 261.957031 146.195312 261.886719 145.984375 261.84375 145.753906 C 261.800781 145.523438 261.78125 145.28125 261.792969 145.042969 C 261.804688 144.800781 261.84375 144.566406 261.90625 144.351562 C 261.972656 144.132812 262.058594 143.941406 262.167969 143.785156 C 262.277344 143.628906 262.402344 143.507812 262.535156 143.433594 C 262.671875 143.359375 262.8125 143.332031 262.953125 143.347656 L 330.847656 152.347656 C 330.988281 152.367188 331.125 152.433594 331.253906 152.542969 C 331.378906 152.652344 331.492188 152.800781 331.585938 152.984375 C 331.675781 153.167969 331.746094 153.382812 331.789062 153.613281 C 331.835938 153.84375 331.851562 154.085938 331.839844 154.324219 C 331.828125 154.566406 331.789062 154.800781 331.726562 155.015625 C 331.660156 155.230469 331.574219 155.421875 331.464844 155.582031 C 331.359375 155.738281 331.230469 155.855469 331.097656 155.933594 C 330.964844 156.007812 330.820312 156.035156 330.679688 156.015625 Z M 330.679688 156.015625 "/>
<path style=" stroke:none;fill-rule:nonzero;fill:rgb(90.196078%,90.196078%,90.196078%);fill-opacity:1;" d="M 302.488281 159.578125 L 262.457031 154.269531 C 262.3125 154.25 262.175781 154.183594 262.046875 154.074219 C 261.921875 153.964844 261.808594 153.816406 261.71875 153.632812 C 261.625 153.449219 261.554688 153.234375 261.511719 153.003906 C 261.464844 152.777344 261.449219 152.53125 261.460938 152.292969 C 261.472656 152.050781 261.511719 151.816406 261.574219 151.601562 C 261.640625 151.386719 261.726562 151.191406 261.835938 151.035156 C 261.945312 150.878906 262.070312 150.757812 262.203125 150.683594 C 262.339844 150.609375 262.480469 150.582031 262.621094 150.601562 L 302.65625 155.90625 C 302.941406 155.945312 303.207031 156.171875 303.390625 156.542969 C 303.578125 156.914062 303.671875 157.398438 303.648438 157.882812 C 303.625 158.371094 303.492188 158.820312 303.273438 159.136719 C 303.054688 159.457031 302.773438 159.613281 302.488281 159.578125 Z M 302.488281 159.578125 "/>
<path style=" stroke:none;fill-rule:nonzero;fill:rgb(90.196078%,90.196078%,90.196078%);fill-opacity:1;" d="M 311.304688 168.039062 L 262.125 161.519531 C 261.839844 161.484375 261.574219 161.253906 261.386719 160.882812 C 261.199219 160.511719 261.109375 160.03125 261.128906 159.542969 C 261.152344 159.054688 261.285156 158.605469 261.503906 158.289062 C 261.722656 157.96875 262.003906 157.8125 262.292969 157.851562 L 311.476562 164.367188 C 311.757812 164.40625 312.023438 164.636719 312.210938 165.007812 C 312.398438 165.378906 312.492188 165.859375 312.46875 166.347656 C 312.445312 166.835938 312.3125 167.285156 312.09375 167.601562 C 311.875 167.917969 311.59375 168.078125 311.304688 168.039062 Z M 311.304688 168.039062 "/>
<path style=" stroke:none;fill-rule:nonzero;fill:rgb(90.196078%,90.196078%,90.196078%);fill-opacity:1;" d="M 124.808594 166.988281 C 123.757812 162.925781 123.1875 158.550781 123.128906 154.113281 C 123.066406 149.675781 123.519531 145.261719 124.464844 141.121094 C 125.40625 136.984375 126.816406 133.199219 128.617188 129.992188 C 130.414062 126.78125 132.570312 124.207031 134.953125 122.414062 C 137.335938 120.621094 139.90625 119.648438 142.511719 119.546875 C 145.113281 119.445312 147.707031 120.21875 150.136719 121.824219 C 152.566406 123.425781 154.785156 125.832031 156.667969 128.898438 C 158.554688 131.964844 160.066406 135.632812 161.117188 139.695312 L 160.46875 140.179688 C 159.457031 136.265625 157.996094 132.726562 156.179688 129.769531 C 154.363281 126.8125 152.222656 124.496094 149.878906 122.945312 C 147.535156 121.398438 145.039062 120.652344 142.527344 120.75 C 140.015625 120.847656 137.539062 121.789062 135.238281 123.515625 C 132.941406 125.246094 130.863281 127.726562 129.128906 130.824219 C 127.390625 133.917969 126.03125 137.566406 125.125 141.558594 C 124.214844 145.550781 123.777344 149.808594 123.835938 154.085938 C 123.890625 158.367188 124.445312 162.585938 125.457031 166.5 Z M 124.808594 166.988281 "/>
<path style=" stroke:none;fill-rule:nonzero;fill:rgb(94.901961%,94.901961%,94.901961%);fill-opacity:1;" d="M 330.484375 355.507812 C 338.585938 348.96875 344.621094 335.808594 343.679688 321.347656 C 336.410156 331.375 326.515625 336.972656 316.300781 336.839844 C 312.320312 336.789062 307.863281 336.097656 304.972656 339.902344 C 303.171875 342.269531 302.363281 346.027344 302.257812 349.773438 C 302.15625 353.519531 302.691406 357.308594 303.21875 361.050781 L 303.058594 361.9375 C 312.570312 362.96875 322.382812 362.050781 330.484375 355.507812 Z M 330.484375 355.507812 "/>
<path style=" stroke:none;fill-rule:nonzero;fill:rgb(100%,100%,100%);fill-opacity:1;" d="M 343.480469 321.3125 C 340.34375 331.730469 334.914062 340.410156 328.160156 345.492188 C 326.683594 346.667969 325.105469 347.457031 323.488281 347.832031 C 321.84375 348.125 320.175781 347.753906 318.628906 346.75 C 317.164062 345.851562 315.714844 344.683594 314.160156 344.328125 C 313.398438 344.144531 312.621094 344.230469 311.878906 344.570312 C 311.136719 344.910156 310.441406 345.503906 309.835938 346.3125 C 308.398438 348.21875 307.542969 350.855469 306.765625 353.484375 C 305.902344 356.40625 305.035156 359.460938 303.347656 361.453125 C 303.140625 361.691406 303.425781 362.195312 303.632812 361.953125 C 306.570312 358.492188 306.996094 352.230469 309.332031 348.039062 C 309.882812 346.980469 310.566406 346.148438 311.328125 345.601562 C 312.09375 345.058594 312.921875 344.8125 313.75 344.890625 C 315.339844 345.089844 316.832031 346.292969 318.3125 347.222656 C 319.820312 348.234375 321.4375 348.683594 323.054688 348.546875 C 324.683594 348.300781 326.28125 347.609375 327.78125 346.496094 C 331.046875 344.179688 334.070312 340.976562 336.730469 337.011719 C 339.667969 332.679688 342.097656 327.429688 343.878906 321.546875 C 343.988281 321.1875 343.585938 320.953125 343.480469 321.3125 Z M 343.480469 321.3125 "/>
<path style=" stroke:none;fill-rule:nonzero;fill:rgb(100%,100%,100%);fill-opacity:1;" d="M 330.421875 344.023438 C 331.277344 345.738281 332.421875 346.957031 333.699219 347.511719 C 334.976562 348.0625 336.324219 347.925781 337.554688 347.113281 C 337.792969 346.941406 337.597656 346.355469 337.363281 346.523438 C 336.21875 347.285156 334.964844 347.414062 333.773438 346.894531 C 332.582031 346.375 331.519531 345.234375 330.730469 343.628906 C 330.566406 343.289062 330.257812 343.683594 330.421875 344.023438 Z M 330.421875 344.023438 "/>
<path style=" stroke:none;fill-rule:nonzero;fill:rgb(100%,100%,100%);fill-opacity:1;" d="M 319.34375 347.347656 C 319.5 345.3125 319.90625 343.359375 320.539062 341.609375 C 321.171875 339.863281 322.015625 338.367188 323.011719 337.214844 C 323.214844 336.972656 322.929688 336.472656 322.726562 336.710938 C 321.691406 337.914062 320.816406 339.476562 320.160156 341.296875 C 319.503906 343.117188 319.082031 345.152344 318.921875 347.269531 C 318.894531 347.675781 319.3125 347.75 319.34375 347.347656 Z M 319.34375 347.347656 "/>
<path style=" stroke:none;fill-rule:nonzero;fill:rgb(100%,100%,100%);fill-opacity:1;" d="M 339.1875 332.238281 C 338.800781 331.726562 338.492188 331.054688 338.296875 330.289062 C 338.105469 329.519531 338.027344 328.679688 338.078125 327.847656 C 338.109375 327.445312 337.691406 327.367188 337.65625 327.769531 C 337.605469 328.6875 337.691406 329.617188 337.902344 330.46875 C 338.117188 331.316406 338.453125 332.058594 338.882812 332.632812 C 338.921875 332.695312 338.96875 332.734375 339.023438 332.746094 C 339.078125 332.753906 339.132812 332.734375 339.175781 332.683594 C 339.199219 332.660156 339.214844 332.625 339.226562 332.589844 C 339.238281 332.550781 339.242188 332.507812 339.242188 332.464844 C 339.246094 332.421875 339.242188 332.378906 339.230469 332.339844 C 339.222656 332.300781 339.207031 332.265625 339.1875 332.238281 Z M 339.1875 332.238281 "/>
<path style=" stroke:none;fill-rule:nonzero;fill:rgb(94.901961%,94.901961%,94.901961%);fill-opacity:1;" d="M 316.949219 290.773438 C 316.921875 291.023438 316.898438 291.273438 316.871094 291.523438 C 316.523438 294.871094 315.996094 298.160156 315.289062 301.339844 C 315.238281 301.589844 315.179688 301.835938 315.125 302.082031 C 313.339844 309.785156 310.625 316.761719 307.160156 322.566406 C 305.746094 324.9375 304.222656 327.109375 302.601562 329.058594 C 300.34375 331.78125 297.738281 334.441406 296.308594 338.105469 C 296.160156 338.484375 296.023438 338.878906 295.90625 339.292969 L 302.339844 361.480469 C 302.371094 361.519531 302.398438 361.5625 302.429688 361.605469 L 302.660156 362.503906 C 302.75 362.414062 302.84375 362.316406 302.933594 362.222656 C 302.984375 362.167969 303.035156 362.113281 303.085938 362.058594 C 303.121094 362.019531 303.15625 361.984375 303.1875 361.953125 C 303.199219 361.941406 303.210938 361.929688 303.21875 361.917969 C 303.25 361.886719 303.277344 361.855469 303.308594 361.828125 C 303.820312 361.277344 304.328125 360.722656 304.839844 360.160156 C 304.839844 360.15625 304.839844 360.15625 304.84375 360.152344 C 308.703125 355.851562 312.335938 350.992188 315.316406 345.382812 C 315.40625 345.214844 315.5 345.042969 315.585938 344.863281 C 316.914062 342.34375 318.101562 339.625 319.136719 336.734375 C 319.691406 335.160156 320.195312 333.539062 320.644531 331.867188 C 321.789062 327.550781 322.472656 322.917969 322.648438 318.191406 C 323.015625 308.71875 321.363281 298.929688 317.265625 291.347656 C 317.160156 291.152344 317.058594 290.964844 316.949219 290.773438 Z M 316.949219 290.773438 "/>
<path style=" stroke:none;fill-rule:nonzero;fill:rgb(100%,100%,100%);fill-opacity:1;" d="M 316.785156 290.921875 C 318.578125 302.636719 317.960938 314.988281 314.921875 325.5 C 314.292969 327.835938 313.421875 329.960938 312.355469 331.777344 C 311.210938 333.5625 309.804688 334.789062 308.285156 335.320312 C 306.832031 335.910156 305.285156 336.246094 303.976562 337.375 C 303.335938 337.921875 302.78125 338.71875 302.355469 339.699219 C 301.929688 340.683594 301.648438 341.824219 301.53125 343.03125 C 301.210938 345.964844 301.617188 348.988281 302.078125 351.933594 C 302.59375 355.203125 303.160156 358.589844 302.6875 361.832031 C 302.628906 362.222656 303.042969 362.386719 303.097656 361.996094 C 303.925781 356.359375 301.753906 350.660156 301.835938 344.957031 C 301.875 342.292969 302.445312 339.703125 303.894531 338.226562 C 305.164062 336.9375 306.757812 336.589844 308.238281 336.015625 C 309.730469 335.519531 311.128906 334.410156 312.3125 332.785156 C 313.441406 331.070312 314.363281 329.007812 315.039062 326.703125 C 316.582031 321.628906 317.574219 316.117188 317.96875 310.441406 C 318.441406 303.851562 318.171875 297.171875 317.179688 290.753906 C 317.117188 290.351562 316.722656 290.519531 316.785156 290.921875 Z M 316.785156 290.921875 "/>
<path style=" stroke:none;fill-rule:nonzero;fill:rgb(100%,100%,100%);fill-opacity:1;" d="M 316.035156 322.179688 C 318.679688 323.589844 321.492188 321.902344 322.601562 318.25 C 322.710938 317.886719 322.332031 317.566406 322.222656 317.925781 C 321.183594 321.347656 318.582031 322.882812 316.109375 321.5625 C 315.847656 321.425781 315.773438 322.042969 316.035156 322.179688 Z M 316.035156 322.179688 "/>
<path style=" stroke:none;fill-rule:nonzero;fill:rgb(100%,100%,100%);fill-opacity:1;" d="M 309.058594 335.175781 C 308.378906 333.433594 307.917969 331.476562 307.699219 329.417969 C 307.476562 327.359375 307.503906 325.25 307.777344 323.210938 C 307.835938 322.816406 307.421875 322.652344 307.367188 323.046875 C 307.085938 325.171875 307.058594 327.367188 307.289062 329.507812 C 307.523438 331.644531 308.003906 333.683594 308.714844 335.496094 C 308.851562 335.863281 309.195312 335.542969 309.058594 335.175781 Z M 309.058594 335.175781 "/>
<path style=" stroke:none;fill-rule:nonzero;fill:rgb(100%,100%,100%);fill-opacity:1;" d="M 317.914062 304.132812 C 317.394531 304.03125 316.890625 303.738281 316.445312 303.269531 C 316 302.800781 315.621094 302.171875 315.335938 301.425781 C 315.199219 301.054688 314.855469 301.378906 314.992188 301.746094 C 315.308594 302.570312 315.730469 303.261719 316.222656 303.78125 C 316.710938 304.296875 317.265625 304.628906 317.839844 304.746094 C 317.953125 304.769531 318.058594 304.703125 318.082031 304.519531 C 318.089844 304.429688 318.074219 304.339844 318.042969 304.269531 C 318.011719 304.195312 317.964844 304.148438 317.914062 304.132812 Z M 317.914062 304.132812 "/>
<path style=" stroke:none;fill-rule:nonzero;fill:rgb(100%,72.156863%,72.156863%);fill-opacity:1;" d="M 330.613281 197.972656 L 325.6875 153.316406 L 316.023438 131.636719 L 308.859375 139.617188 C 309.871094 148.972656 317.527344 166.433594 317.527344 166.433594 L 324.316406 200.972656 C 324.285156 201.152344 324.261719 201.332031 324.246094 201.519531 C 324.136719 202.613281 324.195312 203.734375 324.417969 204.777344 C 324.636719 205.816406 325.011719 206.746094 325.507812 207.464844 C 326 208.191406 326.59375 208.683594 327.230469 208.902344 C 327.867188 209.117188 328.527344 209.050781 329.148438 208.707031 C 329.765625 208.363281 330.320312 207.753906 330.761719 206.9375 C 331.199219 206.121094 331.507812 205.125 331.65625 204.042969 C 331.804688 202.964844 331.785156 201.839844 331.601562 200.777344 C 331.417969 199.714844 331.078125 198.75 330.613281 197.972656 Z M 330.613281 197.972656 "/>
<path style=" stroke:none;fill-rule:nonzero;fill:rgb(24.705882%,23.921569%,33.72549%);fill-opacity:1;" d="M 309.050781 144.335938 L 317.160156 133.121094 L 317.175781 133.0625 C 318.695312 127.207031 315.324219 117.164062 312.234375 109.769531 C 311.210938 107.335938 309.6875 105.648438 307.964844 105.058594 C 306.242188 104.464844 304.453125 105.007812 302.957031 106.578125 C 301.855469 107.746094 300.972656 109.417969 300.402344 111.402344 C 299.828125 113.382812 299.59375 115.597656 299.726562 117.796875 L 300.40625 128.984375 Z M 309.050781 144.335938 "/>
<path style=" stroke:none;fill-rule:nonzero;fill:rgb(100%,72.156863%,72.156863%);fill-opacity:1;" d="M 280.386719 366.589844 L 274.988281 366.585938 L 272.421875 331.125 L 280.386719 331.128906 Z M 280.386719 366.589844 "/>
<path style=" stroke:none;fill-rule:nonzero;fill:rgb(18.431373%,18.039216%,25.490196%);fill-opacity:1;" d="M 281.761719 363.585938 L 280.242188 363.585938 L 274.3125 359.476562 L 271.132812 363.585938 C 269.339844 363.585938 267.617188 364.800781 266.34375 366.964844 C 265.074219 369.128906 264.363281 372.0625 264.363281 375.125 L 264.363281 375.5 L 281.761719 375.5 Z M 281.761719 363.585938 "/>
<path style=" stroke:none;fill-rule:nonzero;fill:rgb(100%,72.156863%,72.156863%);fill-opacity:1;" d="M 304.332031 366.589844 L 298.933594 366.585938 L 296.367188 331.125 L 304.332031 331.128906 Z M 304.332031 366.589844 "/>
<path style=" stroke:none;fill-rule:nonzero;fill:rgb(18.431373%,18.039216%,25.490196%);fill-opacity:1;" d="M 305.707031 363.585938 L 304.1875 363.585938 L 298.257812 359.476562 L 295.078125 363.585938 C 293.285156 363.585938 291.558594 364.800781 290.289062 366.964844 C 289.019531 369.128906 288.308594 372.0625 288.308594 375.125 L 288.308594 375.5 L 305.707031 375.5 Z M 305.707031 363.585938 "/>
<path style=" stroke:none;fill-rule:nonzero;fill:rgb(18.431373%,18.039216%,25.490196%);fill-opacity:1;" d="M 312.558594 213.84375 C 312.558594 213.84375 313.191406 226.726562 311.613281 239.070312 C 310.039062 251.417969 310.039062 286.1875 310.039062 286.1875 L 306.574219 353.941406 L 296.175781 352.328125 L 293.339844 239.070312 L 283.257812 277.183594 L 284.203125 282.550781 L 282.945312 283.890625 C 282.945312 283.890625 283.886719 294.355469 283.257812 294.355469 C 282.628906 294.355469 281.054688 295.96875 281.054688 295.96875 L 282.3125 351.253906 L 271.601562 350.71875 L 267.820312 272.886719 L 271.914062 228.335938 L 272.230469 219.746094 L 273.648438 219.847656 L 274.371094 216.257812 L 275.695312 210.085938 Z M 312.558594 213.84375 "/>
<path style=" stroke:none;fill-rule:nonzero;fill:rgb(24.705882%,23.921569%,33.72549%);fill-opacity:1;" d="M 313.105469 216.550781 L 313.160156 216.414062 C 316.160156 209.261719 311.648438 192.074219 310.96875 189.582031 L 313.832031 187.996094 L 313.1875 178.652344 L 312.882812 174.488281 L 315.074219 170.757812 L 315.078125 170.664062 L 316.339844 151.878906 L 318.171875 139.398438 C 318.863281 134.683594 318.804688 129.738281 318 125.070312 C 317.199219 120.40625 315.683594 116.1875 313.609375 112.851562 L 309.371094 106.046875 L 304.222656 93.070312 L 295.921875 93.070312 L 293.078125 102.230469 C 290.316406 103.316406 287.871094 106.019531 286.160156 109.863281 C 284.449219 113.710938 283.582031 118.457031 283.714844 123.273438 L 284.359375 147.296875 L 281.835938 177.207031 L 281.832031 182.617188 L 278.992188 188 L 279.613281 193.285156 L 277.449219 194.863281 L 276.496094 202.457031 C 276.101562 203.34375 273.492188 209.273438 273.492188 210.890625 C 273.492188 211.132812 273.597656 211.367188 273.824219 211.632812 C 275.601562 213.679688 285.425781 217.863281 289.777344 214.898438 C 294.40625 211.742188 312.824219 216.476562 313.007812 216.523438 Z M 313.105469 216.550781 "/>
<path style=" stroke:none;fill-rule:nonzero;fill:rgb(80%,80%,80%);fill-opacity:1;" d="M 240.917969 375.28125 C 240.917969 375.472656 240.960938 375.652344 241.039062 375.789062 C 241.117188 375.925781 241.226562 376 241.335938 376 L 340.5 376 C 340.613281 376 340.71875 375.925781 340.796875 375.789062 C 340.875 375.65625 340.921875 375.472656 340.921875 375.28125 C 340.921875 375.09375 340.875 374.910156 340.796875 374.773438 C 340.71875 374.640625 340.613281 374.566406 340.5 374.566406 L 241.339844 374.566406 C 241.226562 374.5625 241.121094 374.640625 241.042969 374.773438 C 240.964844 374.90625 240.917969 375.089844 240.917969 375.277344 Z M 240.917969 375.28125 "/>
<path style=" stroke:none;fill-rule:nonzero;fill:rgb(100%,72.156863%,72.156863%);fill-opacity:1;" d="M 299 88.882812 C 305.074219 88.882812 309.996094 80.496094 309.996094 70.152344 C 309.996094 59.808594 305.074219 51.421875 299 51.421875 C 292.929688 51.421875 288.007812 59.808594 288.007812 70.152344 C 288.007812 80.496094 292.929688 88.882812 299 88.882812 Z M 299 88.882812 "/>
<path style=" stroke:none;fill-rule:nonzero;fill:rgb(18.431373%,18.039216%,25.490196%);fill-opacity:1;" d="M 297.949219 89.1875 C 299.652344 89.15625 301.347656 88.878906 303.023438 88.355469 C 304.679688 87.707031 308.339844 82.886719 309.335938 80.039062 C 310.078125 77.925781 310.523438 74.652344 310.765625 72.28125 C 311.09375 69.140625 311.03125 65.917969 310.582031 62.824219 C 310.128906 59.726562 309.304688 56.828125 308.15625 54.3125 C 307.710938 53.257812 307.109375 52.425781 306.410156 51.90625 C 306.351562 51.871094 306.289062 51.835938 306.222656 51.808594 C 305.210938 51.402344 304.296875 50.492188 303.589844 49.191406 C 303.453125 48.929688 303.304688 48.683594 303.148438 48.453125 C 302.359375 47.375 301.429688 46.632812 300.4375 46.28125 C 298.835938 45.628906 296.542969 46.449219 293.625 48.726562 C 292.160156 49.871094 290.535156 49.550781 289.28125 49.144531 C 289.207031 49.125 289.136719 49.136719 289.070312 49.179688 C 289.003906 49.222656 288.945312 49.292969 288.898438 49.386719 C 288.378906 50.257812 287.6875 50.765625 286.960938 50.800781 C 286.515625 50.855469 286.066406 51.925781 285.519531 53.324219 C 285.394531 53.640625 285.25 54.007812 285.148438 54.234375 L 285.125 53.8125 L 284.882812 54.296875 C 284.496094 55.058594 284.230469 55.972656 284.109375 56.957031 C 283.988281 57.941406 284.015625 58.960938 284.1875 59.921875 C 284.359375 60.882812 284.671875 61.753906 285.09375 62.453125 C 285.515625 63.15625 286.039062 63.664062 286.605469 63.929688 C 287.058594 64.113281 287.519531 64.214844 287.984375 64.238281 C 288.265625 64.269531 288.554688 64.300781 288.835938 64.371094 C 289.730469 64.644531 290.574219 65.308594 291.273438 66.300781 C 291.976562 67.289062 292.515625 68.574219 292.839844 70.027344 C 292.914062 70.363281 293.035156 70.664062 293.191406 70.90625 C 293.347656 71.148438 293.535156 71.328125 293.734375 71.429688 C 293.9375 71.53125 294.152344 71.550781 294.359375 71.488281 C 294.570312 71.429688 294.765625 71.285156 294.9375 71.074219 C 295.21875 70.675781 295.554688 70.402344 295.914062 70.273438 C 296.273438 70.148438 296.648438 70.167969 297 70.339844 C 297.308594 70.613281 297.550781 71.058594 297.6875 71.601562 C 297.855469 72.203125 298.121094 72.710938 298.457031 73.054688 C 299.605469 73.996094 299.746094 78.386719 299.398438 82.070312 C 299.058594 85.617188 298.324219 88.207031 297.613281 88.367188 C 297.0625 88.488281 297 88.554688 296.964844 88.722656 L 296.929688 88.875 L 296.992188 89.011719 C 297.300781 89.183594 297.625 89.246094 297.949219 89.1875 Z M 297.949219 89.1875 "/>
<path style=" stroke:none;fill-rule:nonzero;fill:rgb(10.196078%,62.352941%,100%);fill-opacity:1;" d="M 177.128906 185.726562 C 189.203125 185.726562 198.988281 169.050781 198.988281 148.484375 C 198.988281 127.914062 189.203125 111.242188 177.128906 111.242188 C 165.058594 111.242188 155.269531 127.914062 155.269531 148.484375 C 155.269531 169.050781 165.058594 185.726562 177.128906 185.726562 Z M 177.128906 185.726562 "/>
<path style=" stroke:none;fill-rule:nonzero;fill:rgb(100%,72.156863%,72.156863%);fill-opacity:1;" d="M 295.414062 142.941406 L 288.207031 135.085938 C 283.613281 140.496094 277.410156 159.558594 277.410156 159.558594 L 261.703125 184.273438 C 261.046875 184.46875 260.4375 184.949219 259.925781 185.671875 C 259.414062 186.394531 259.027344 187.332031 258.796875 188.394531 C 258.566406 189.457031 258.503906 190.601562 258.621094 191.71875 C 258.730469 192.832031 259.015625 193.875 259.441406 194.746094 C 259.867188 195.613281 260.417969 196.273438 261.039062 196.664062 C 261.664062 197.054688 262.335938 197.15625 262.992188 196.964844 C 263.644531 196.769531 264.257812 196.285156 264.765625 195.558594 C 265.277344 194.835938 265.664062 193.894531 265.890625 192.832031 L 287.777344 166.855469 Z M 295.414062 142.941406 "/>
<path style=" stroke:none;fill-rule:nonzero;fill:rgb(24.705882%,23.921569%,33.72549%);fill-opacity:1;" d="M 294.730469 146.128906 L 299.53125 126.492188 L 297.792969 115.640625 C 297.449219 113.511719 296.761719 111.589844 295.808594 110.09375 C 294.855469 108.597656 293.675781 107.582031 292.402344 107.167969 C 290.675781 106.625 288.890625 107.222656 287.410156 108.835938 C 285.929688 110.449219 284.863281 112.960938 284.429688 115.859375 C 283.113281 124.65625 282.105469 136.09375 284.761719 140.621094 L 284.789062 140.664062 Z M 294.730469 146.128906 "/>
<path style=" stroke:none;fill-rule:nonzero;fill:rgb(94.901961%,94.901961%,94.901961%);fill-opacity:1;" d="M 15.054688 364.636719 C 5.65625 356.417969 -1.164062 340.53125 0.261719 323.554688 C 8.605469 335.828125 20.136719 343.054688 32.175781 343.546875 C 36.863281 343.738281 42.128906 343.210938 45.449219 347.875 C 47.519531 350.777344 48.390625 355.257812 48.429688 359.675781 C 48.46875 364.09375 47.757812 368.527344 47.050781 372.898438 L 47.222656 373.953125 C 35.992188 374.5625 24.457031 372.859375 15.054688 364.636719 Z M 15.054688 364.636719 "/>
<path style=" stroke:none;fill-rule:nonzero;fill:rgb(100%,100%,100%);fill-opacity:1;" d="M 0.496094 323.527344 C 3.960938 335.996094 10.167969 346.570312 18.011719 352.984375 C 19.726562 354.464844 21.566406 355.492188 23.464844 356.035156 C 25.398438 356.488281 27.367188 356.15625 29.210938 355.070312 C 30.960938 354.109375 32.691406 352.824219 34.53125 352.503906 C 35.433594 352.339844 36.34375 352.488281 37.210938 352.933594 C 38.078125 353.382812 38.886719 354.128906 39.582031 355.117188 C 41.230469 357.453125 42.183594 360.613281 43.042969 363.761719 C 43.996094 367.257812 44.949219 370.914062 46.894531 373.367188 C 47.128906 373.664062 46.785156 374.234375 46.546875 373.9375 C 43.160156 369.671875 42.796875 362.269531 40.136719 357.183594 C 38.894531 354.808594 37.144531 353.039062 35 353.195312 C 33.125 353.328125 31.339844 354.652344 29.574219 355.648438 C 27.777344 356.746094 25.863281 357.175781 23.960938 356.90625 C 22.046875 356.515625 20.179688 355.597656 18.4375 354.195312 C 14.640625 351.257812 11.152344 347.292969 8.105469 342.449219 C 4.734375 337.160156 1.992188 330.824219 0.0195312 323.777344 C -0.101562 323.347656 0.378906 323.097656 0.496094 323.527344 Z M 0.496094 323.527344 "/>
<path style=" stroke:none;fill-rule:nonzero;fill:rgb(100%,100%,100%);fill-opacity:1;" d="M 15.378906 351.113281 C 13.320312 355.117188 9.691406 356.46875 6.910156 354.296875 C 6.636719 354.082031 6.875 353.402344 7.148438 353.617188 C 8.480469 354.582031 9.957031 354.816406 11.371094 354.277344 C 12.78125 353.746094 14.0625 352.46875 15.027344 350.628906 C 15.226562 350.234375 15.582031 350.722656 15.378906 351.113281 Z M 15.378906 351.113281 "/>
<path style=" stroke:none;fill-rule:nonzero;fill:rgb(100%,100%,100%);fill-opacity:1;" d="M 28.359375 355.734375 C 28.21875 353.324219 27.78125 350.996094 27.074219 348.898438 C 26.367188 346.800781 25.410156 344.980469 24.261719 343.5625 C 24.023438 343.261719 24.371094 342.691406 24.605469 342.988281 C 25.800781 344.46875 26.796875 346.367188 27.527344 348.550781 C 28.261719 350.738281 28.714844 353.164062 28.855469 355.667969 C 28.878906 356.144531 28.386719 356.207031 28.359375 355.734375 Z M 28.359375 355.734375 "/>
<path style=" stroke:none;fill-rule:nonzero;fill:rgb(100%,100%,100%);fill-opacity:1;" d="M 5.3125 336.667969 C 5.78125 336.09375 6.15625 335.320312 6.402344 334.429688 C 6.648438 333.535156 6.757812 332.550781 6.71875 331.566406 C 6.6875 331.089844 7.183594 331.027344 7.214844 331.5 C 7.253906 332.589844 7.132812 333.675781 6.863281 334.664062 C 6.59375 335.652344 6.179688 336.507812 5.664062 337.152344 C 5.617188 337.226562 5.558594 337.269531 5.496094 337.277344 C 5.429688 337.289062 5.367188 337.257812 5.316406 337.199219 C 5.292969 337.164062 5.273438 337.125 5.261719 337.078125 C 5.25 337.035156 5.242188 336.984375 5.242188 336.9375 C 5.242188 336.886719 5.246094 336.835938 5.257812 336.789062 C 5.269531 336.742188 5.289062 336.703125 5.3125 336.667969 Z M 5.3125 336.667969 "/>
<path style=" stroke:none;fill-rule:nonzero;fill:rgb(94.901961%,94.901961%,94.901961%);fill-opacity:1;" d="M 32.421875 289.238281 C 32.445312 289.53125 32.46875 289.828125 32.496094 290.128906 C 32.832031 294.09375 33.382812 298 34.144531 301.792969 C 34.199219 302.089844 34.257812 302.386719 34.320312 302.675781 C 36.253906 311.863281 39.296875 320.257812 43.257812 327.316406 C 44.867188 330.199219 46.617188 332.855469 48.480469 335.253906 C 51.082031 338.601562 54.089844 341.902344 55.695312 346.3125 C 55.863281 346.765625 56.015625 347.242188 56.148438 347.734375 L 48.078125 373.460938 C 48.039062 373.507812 48.007812 373.558594 47.96875 373.601562 L 47.675781 374.648438 C 47.574219 374.535156 47.46875 374.414062 47.367188 374.300781 C 47.304688 374.234375 47.246094 374.160156 47.1875 374.097656 C 47.148438 374.050781 47.109375 374.003906 47.070312 373.964844 C 47.058594 373.953125 47.042969 373.9375 47.035156 373.921875 C 46.996094 373.886719 46.964844 373.84375 46.929688 373.808594 C 46.339844 373.128906 45.753906 372.441406 45.167969 371.75 C 45.164062 371.746094 45.164062 371.746094 45.160156 371.738281 C 40.707031 366.425781 36.535156 360.46875 33.144531 353.671875 C 33.042969 353.46875 32.9375 353.261719 32.835938 353.046875 C 31.332031 349.992188 29.992188 346.710938 28.835938 343.242188 C 28.214844 341.355469 27.65625 339.410156 27.167969 337.414062 C 25.910156 332.253906 25.210938 326.753906 25.101562 321.171875 C 24.882812 309.992188 27.039062 298.5625 32.035156 289.894531 C 32.164062 289.671875 32.289062 289.457031 32.421875 289.238281 Z M 32.421875 289.238281 "/>
<path style=" stroke:none;fill-rule:nonzero;fill:rgb(100%,100%,100%);fill-opacity:1;" d="M 32.609375 289.425781 C 30.242188 303.109375 30.699219 317.703125 34.042969 330.277344 C 34.738281 333.066406 35.714844 335.625 36.933594 337.832031 C 38.242188 340.011719 39.871094 341.542969 41.648438 342.269531 C 43.347656 343.054688 45.164062 343.550781 46.679688 344.960938 C 47.421875 345.644531 48.058594 346.621094 48.539062 347.804688 C 49.019531 348.988281 49.324219 350.351562 49.4375 351.777344 C 49.75 355.257812 49.207031 358.792969 48.597656 362.234375 C 47.917969 366.050781 47.175781 370.007812 47.664062 373.855469 C 47.722656 374.320312 47.234375 374.488281 47.175781 374.023438 C 46.324219 367.328125 49.007812 360.753906 49.035156 354.027344 C 49.046875 350.890625 48.433594 347.800781 46.757812 345.972656 C 45.289062 344.371094 43.417969 343.859375 41.691406 343.085938 C 39.945312 342.410156 38.320312 341.015625 36.960938 339.023438 C 35.671875 336.933594 34.625 334.441406 33.882812 331.6875 C 32.175781 325.609375 31.125 319.054688 30.785156 312.339844 C 30.375 304.550781 30.839844 296.699219 32.152344 289.199219 C 32.230469 288.726562 32.691406 288.957031 32.609375 289.425781 Z M 32.609375 289.425781 "/>
<path style=" stroke:none;fill-rule:nonzero;fill:rgb(100%,100%,100%);fill-opacity:1;" d="M 32.808594 326.292969 C 29.660156 327.789062 26.386719 325.621094 25.160156 321.246094 C 25.039062 320.8125 25.492188 320.457031 25.613281 320.890625 C 26.761719 324.988281 29.792969 326.960938 32.734375 325.5625 C 33.046875 325.417969 33.117188 326.148438 32.808594 326.292969 Z M 32.808594 326.292969 "/>
<path style=" stroke:none;fill-rule:nonzero;fill:rgb(100%,100%,100%);fill-opacity:1;" d="M 40.742188 342.050781 C 41.578125 340.039062 42.167969 337.761719 42.472656 335.351562 C 42.777344 332.941406 42.789062 330.453125 42.511719 328.035156 C 42.453125 327.566406 42.945312 327.402344 43 327.867188 C 43.289062 330.386719 43.269531 332.976562 42.949219 335.484375 C 42.628906 337.988281 42.015625 340.359375 41.140625 342.445312 C 40.96875 342.871094 40.570312 342.472656 40.742188 342.050781 Z M 40.742188 342.050781 "/>
<path style=" stroke:none;fill-rule:nonzero;fill:rgb(100%,100%,100%);fill-opacity:1;" d="M 30.992188 304.914062 C 31.605469 304.828125 32.203125 304.511719 32.738281 303.992188 C 33.273438 303.46875 33.734375 302.75 34.085938 301.890625 C 34.253906 301.464844 34.652344 301.863281 34.484375 302.289062 C 34.09375 303.238281 33.582031 304.027344 32.992188 304.609375 C 32.402344 305.1875 31.742188 305.539062 31.066406 305.644531 C 30.929688 305.664062 30.804688 305.574219 30.785156 305.359375 C 30.777344 305.253906 30.796875 305.148438 30.835938 305.066406 C 30.875 304.984375 30.929688 304.929688 30.992188 304.914062 Z M 30.992188 304.914062 "/>
<path style=" stroke:none;fill-rule:nonzero;fill:rgb(100%,71.372549%,71.372549%);fill-opacity:1;" d="M 60.859375 160.292969 L 61.566406 171.484375 L 61.152344 186.15625 L 80.226562 182.292969 L 82.019531 160.292969 L 79.734375 160.332031 Z M 60.859375 160.292969 "/>
<path style=" stroke:none;fill-rule:nonzero;fill:rgb(100%,71.372549%,71.372549%);fill-opacity:1;" d="M 50.964844 363.445312 L 55.136719 363.445312 L 57.121094 336.039062 L 50.964844 336.039062 Z M 50.964844 363.445312 "/>
<path style=" stroke:none;fill-rule:nonzero;fill:rgb(18.431373%,18.039216%,25.490196%);fill-opacity:1;" d="M 49.605469 358.578125 L 56.265625 357.898438 L 56.265625 362.765625 L 62.601562 370.21875 C 62.914062 370.585938 63.152344 371.113281 63.273438 371.726562 C 63.398438 372.339844 63.402344 373.003906 63.292969 373.621094 C 63.179688 374.242188 62.953125 374.78125 62.644531 375.164062 C 62.339844 375.550781 61.96875 375.753906 61.589844 375.753906 L 53.65625 375.753906 L 52.289062 370.945312 L 51.753906 375.753906 L 48.761719 375.753906 Z M 49.605469 358.578125 "/>
<path style=" stroke:none;fill-rule:nonzero;fill:rgb(100%,71.372549%,71.372549%);fill-opacity:1;" d="M 74.390625 363.445312 L 78.5625 363.445312 L 80.546875 336.039062 L 74.390625 336.039062 Z M 74.390625 363.445312 "/>
<path style=" stroke:none;fill-rule:nonzero;fill:rgb(18.431373%,18.039216%,25.490196%);fill-opacity:1;" d="M 73.03125 358.578125 L 79.695312 357.898438 L 79.695312 362.765625 L 86.03125 370.21875 C 86.34375 370.585938 86.578125 371.113281 86.703125 371.726562 C 86.824219 372.339844 86.832031 373.003906 86.71875 373.621094 C 86.605469 374.242188 86.378906 374.78125 86.074219 375.164062 C 85.765625 375.550781 85.394531 375.753906 85.015625 375.753906 L 77.082031 375.753906 L 75.714844 370.945312 L 75.183594 375.753906 L 72.191406 375.753906 Z M 73.03125 358.578125 "/>
<path style=" stroke:none;fill-rule:nonzero;fill:rgb(18.431373%,18.039216%,25.490196%);fill-opacity:1;" d="M 49.164062 339.808594 L 49.210938 339.808594 L 50.011719 295.246094 C 49.492188 293.542969 49.230469 291.644531 49.246094 289.722656 C 49.261719 287.800781 49.554688 285.917969 50.101562 284.234375 L 50.21875 283.882812 L 49.917969 281.53125 C 49.535156 278.507812 49.710938 275.359375 50.421875 272.515625 L 51.171875 230.945312 C 48.496094 201.429688 61.238281 182.179688 61.238281 182.179688 L 80.324219 182.179688 L 84.417969 206.164062 C 87.128906 251.125 86.636719 294.9375 82.339844 337.382812 L 82.457031 337.484375 C 82.878906 337.730469 83.058594 338.726562 82.859375 339.707031 C 82.660156 340.6875 82.160156 341.28125 81.738281 341.035156 L 71.65625 340.4375 C 71.234375 340.1875 71.054688 339.191406 71.253906 338.210938 C 71.453125 337.230469 71.953125 336.640625 72.375 336.886719 L 73.0625 337.476562 L 71.601562 294.476562 L 71.761719 286.621094 L 71.429688 277.710938 L 69.882812 237.628906 L 64.035156 286.917969 L 58.0625 340.304688 C 58.226562 340.5625 58.34375 340.894531 58.394531 341.261719 C 58.445312 341.628906 58.429688 342.015625 58.347656 342.371094 C 58.269531 342.722656 58.128906 343.027344 57.945312 343.242188 C 57.761719 343.453125 57.542969 343.566406 57.320312 343.566406 L 49.164062 343.566406 C 49.019531 343.566406 48.875 343.519531 48.742188 343.425781 C 48.609375 343.328125 48.488281 343.191406 48.382812 343.015625 C 48.28125 342.84375 48.199219 342.636719 48.144531 342.40625 C 48.089844 342.179688 48.0625 341.933594 48.0625 341.6875 C 48.0625 341.441406 48.089844 341.195312 48.144531 340.96875 C 48.199219 340.738281 48.28125 340.535156 48.382812 340.359375 C 48.488281 340.183594 48.609375 340.046875 48.742188 339.953125 C 48.875 339.859375 49.019531 339.808594 49.164062 339.808594 Z M 49.164062 339.808594 "/>
<path style=" stroke:none;fill-rule:nonzero;fill:rgb(100%,71.372549%,71.372549%);fill-opacity:1;" d="M 64.191406 103.035156 C 69.84375 103.035156 74.425781 95.226562 74.425781 85.59375 C 74.425781 75.960938 69.84375 68.152344 64.191406 68.152344 C 58.535156 68.152344 53.953125 75.960938 53.953125 85.59375 C 53.953125 95.226562 58.535156 103.035156 64.191406 103.035156 Z M 64.191406 103.035156 "/>
<path style=" stroke:none;fill-rule:nonzero;fill:rgb(18.431373%,18.039216%,25.490196%);fill-opacity:1;" d="M 19.332031 166.167969 C 20.773438 160.476562 22.746094 155.226562 25.183594 150.621094 C 23.121094 156.21875 21.941406 162.628906 21.761719 169.230469 C 22.507812 170.023438 23.289062 170.71875 24.097656 171.308594 C 26.527344 173.046875 29.117188 174.039062 31.75 174.238281 C 33.167969 166.1875 35.617188 158.765625 38.921875 152.519531 C 36.542969 158.988281 35.34375 166.515625 35.484375 174.144531 C 38.417969 173.710938 41.3125 172.65625 44.09375 171 C 48.273438 168.550781 52.328125 164.894531 55.214844 159.207031 C 58.34375 153.050781 59.882812 144.929688 60.382812 136.832031 C 60.878906 128.738281 60.410156 120.570312 59.941406 112.472656 C 59.71875 108.613281 61.601562 104.171875 61.378906 100.3125 L 61.230469 100.3125 C 60.242188 98 59.230469 95.625 58.742188 92.878906 C 58.261719 90.140625 58.386719 86.910156 59.496094 84.75 C 60.121094 83.625 60.90625 82.796875 61.773438 82.347656 C 61.855469 82.171875 61.945312 82 62.039062 81.828125 C 63.71875 78.785156 65.699219 76.265625 67.886719 74.375 C 66.308594 76.40625 65.253906 78.703125 64.761719 81.074219 C 66.128906 80.5625 67.496094 80.054688 68.863281 79.542969 C 69.320312 78.71875 69.800781 77.933594 70.304688 77.191406 C 71.035156 76.109375 71.277344 76.027344 72.148438 75.007812 C 71.445312 76.066406 70.898438 77.390625 70.554688 78.878906 C 72.3125 78.128906 74.070312 76.996094 74.984375 74.421875 C 76.496094 70.164062 74.695312 64.417969 72.183594 61.875 C 70.355469 60.113281 68.246094 59.378906 66.160156 59.769531 C 64.070312 60.160156 62.109375 61.660156 60.546875 64.058594 C 56.914062 59.496094 51.738281 59.570312 47.691406 62.980469 C 45.023438 65.332031 42.722656 68.742188 40.984375 72.921875 C 41.992188 72.699219 43.007812 72.578125 44.023438 72.558594 C 42.59375 72.917969 41.230469 73.835938 40.046875 75.242188 C 39.523438 76.628906 39.042969 78.0625 38.605469 79.539062 C 38.320312 80.507812 38.050781 81.488281 37.796875 82.480469 C 36.242188 88.515625 35.226562 94.941406 34.175781 101.292969 C 32.949219 108.695312 31.636719 116.148438 29.339844 122.773438 C 25.824219 132.84375 20.273438 140.390625 13.726562 144 C 13.179688 152.367188 15.578125 160.554688 19.332031 166.167969 Z M 19.332031 166.167969 "/>
<path style=" stroke:none;fill-rule:nonzero;fill:rgb(10.196078%,62.352941%,100%);fill-opacity:1;" d="M 74.5 114.695312 L 72.511719 113.425781 L 70.007812 106.523438 L 61.082031 107.765625 L 58.914062 115.167969 L 53.6875 121.964844 L 55.972656 142.46875 L 59.523438 167.375 L 83.289062 162.3125 L 83.265625 143.566406 C 83.265625 143.566406 87.558594 128.753906 80.621094 123.203125 Z M 74.5 114.695312 "/>
<path style=" stroke:none;fill-rule:nonzero;fill:rgb(100%,71.372549%,71.372549%);fill-opacity:1;" d="M 111.132812 179.730469 C 110.671875 180.046875 110.175781 180.183594 109.679688 180.140625 C 109.179688 180.09375 108.699219 179.859375 108.257812 179.460938 C 107.820312 179.058594 107.441406 178.5 107.140625 177.824219 C 106.84375 177.144531 106.636719 176.363281 106.535156 175.535156 L 80.039062 148.21875 L 84.878906 138.695312 L 109.40625 168.542969 C 110.234375 168.34375 111.078125 168.671875 111.773438 169.460938 C 112.46875 170.25 112.972656 171.453125 113.1875 172.828125 C 113.398438 174.207031 113.308594 175.671875 112.929688 176.945312 C 112.550781 178.214844 111.910156 179.207031 111.132812 179.730469 Z M 111.132812 179.730469 "/>
<path style=" stroke:none;fill-rule:nonzero;fill:rgb(10.196078%,62.352941%,100%);fill-opacity:1;" d="M 71.207031 135.265625 C 71.207031 135.265625 69.941406 137.433594 73.117188 141.003906 C 75.664062 143.863281 87.007812 157.984375 91.03125 160.21875 C 90.980469 161.222656 91.128906 162.230469 91.453125 163.078125 C 91.773438 163.925781 92.253906 164.566406 92.8125 164.898438 L 96.453125 151.265625 C 95.664062 148.148438 94.40625 148.871094 93.742188 149.574219 L 89.34375 143.941406 L 78.542969 125.566406 L 72.105469 133.667969 Z M 71.207031 135.265625 "/>
<path style=" stroke:none;fill-rule:nonzero;fill:rgb(99.215686%,39.607843%,51.764706%);fill-opacity:1;" d="M 60.613281 64.53125 C 59.382812 67.625 58.589844 71.160156 58.289062 74.863281 C 57.992188 78.566406 58.203125 82.332031 58.898438 85.875 "/>
<path style=" stroke:none;fill-rule:nonzero;fill:rgb(80%,80%,80%);fill-opacity:1;" d="M 8.679688 375.28125 C 8.679688 375.375 8.6875 375.46875 8.710938 375.558594 C 8.730469 375.644531 8.761719 375.722656 8.800781 375.789062 C 8.839844 375.855469 8.886719 375.910156 8.9375 375.945312 C 8.988281 375.984375 9.042969 376 9.101562 376 L 108.261719 376 C 108.371094 376 108.480469 375.925781 108.558594 375.789062 C 108.636719 375.65625 108.683594 375.472656 108.683594 375.28125 C 108.683594 375.09375 108.636719 374.910156 108.558594 374.773438 C 108.480469 374.640625 108.371094 374.566406 108.261719 374.566406 L 9.101562 374.566406 C 9.042969 374.566406 8.988281 374.582031 8.9375 374.621094 C 8.886719 374.65625 8.839844 374.707031 8.800781 374.773438 C 8.761719 374.84375 8.730469 374.921875 8.710938 375.007812 C 8.6875 375.09375 8.679688 375.1875 8.679688 375.28125 Z M 8.679688 375.28125 "/>
<path style=" stroke:none;fill-rule:nonzero;fill:rgb(90.196078%,90.196078%,90.196078%);fill-opacity:1;" d="M 46.460938 212.261719 C 46.210938 212.410156 46.007812 212.71875 45.894531 213.121094 C 45.78125 213.523438 45.765625 213.988281 45.855469 214.410156 L 59.667969 282.246094 C 59.757812 282.667969 59.9375 283.011719 60.175781 283.203125 C 60.410156 283.398438 60.679688 283.421875 60.929688 283.277344 L 141.316406 235.226562 C 141.5625 235.078125 141.765625 234.769531 141.878906 234.367188 C 141.992188 233.964844 142.007812 233.5 141.921875 233.082031 L 128.105469 165.242188 C 128.019531 164.820312 127.835938 164.476562 127.601562 164.285156 C 127.363281 164.089844 127.09375 164.066406 126.84375 164.210938 Z M 46.460938 212.261719 "/>
<path style=" stroke:none;fill-rule:nonzero;fill:rgb(100%,100%,100%);fill-opacity:1;" d="M 66.804688 273.484375 C 65.222656 273.484375 63.679688 272.648438 62.390625 271.09375 C 61.097656 269.539062 60.121094 267.339844 59.589844 264.800781 L 52.003906 228.230469 C 51.328125 224.972656 51.4375 221.390625 52.3125 218.273438 C 53.1875 215.15625 54.753906 212.757812 56.664062 211.605469 L 97.292969 187.144531 C 104.898438 182.582031 113.253906 183.34375 120.53125 189.265625 C 127.804688 195.183594 133.40625 205.78125 136.101562 218.730469 C 136.777344 221.984375 136.664062 225.566406 135.792969 228.683594 C 134.917969 231.800781 133.351562 234.199219 131.441406 235.351562 L 69.347656 272.738281 C 68.53125 273.234375 67.671875 273.484375 66.804688 273.484375 Z M 66.804688 273.484375 "/>
<path style=" stroke:none;fill-rule:nonzero;fill:rgb(90.196078%,90.196078%,90.196078%);fill-opacity:1;" d="M 120.683594 201.394531 L 84.304688 223.140625 C 83.792969 223.449219 83.15625 222.628906 82.886719 221.3125 C 82.613281 219.996094 82.8125 218.679688 83.324219 218.375 L 119.703125 196.628906 C 120.214844 196.324219 120.847656 197.144531 121.121094 198.457031 C 121.390625 199.773438 121.195312 201.089844 120.683594 201.394531 Z M 120.683594 201.394531 "/>
<path style=" stroke:none;fill-rule:nonzero;fill:rgb(90.196078%,90.196078%,90.196078%);fill-opacity:1;" d="M 123.496094 215.058594 L 87.117188 236.804688 C 86.605469 237.113281 85.972656 236.292969 85.699219 234.976562 C 85.429688 233.660156 85.625 232.34375 86.136719 232.039062 L 122.515625 210.292969 C 123.027344 209.988281 123.664062 210.804688 123.933594 212.121094 C 124.207031 213.4375 124.011719 214.753906 123.496094 215.058594 Z M 123.496094 215.058594 "/>
<path style=" stroke:none;fill-rule:nonzero;fill:rgb(89.411765%,89.411765%,89.411765%);fill-opacity:1;" d="M 79.382812 230.574219 C 79.773438 232.449219 79.960938 234.429688 79.941406 236.417969 C 79.933594 237.332031 79.882812 238.238281 79.785156 239.132812 C 79.472656 242.023438 78.722656 244.726562 77.601562 246.964844 C 76.484375 249.203125 75.035156 250.898438 73.410156 251.878906 C 71.78125 252.859375 70.03125 253.085938 68.335938 252.546875 C 66.636719 252.003906 65.054688 250.707031 63.75 248.789062 C 63.617188 248.597656 63.488281 248.398438 63.363281 248.191406 C 62.292969 246.449219 61.472656 244.316406 60.957031 241.953125 C 60.441406 239.589844 60.246094 237.058594 60.386719 234.546875 C 60.527344 232.039062 61 229.617188 61.769531 227.460938 C 62.539062 225.308594 63.585938 223.480469 64.828125 222.113281 C 66.070312 220.746094 67.480469 219.875 68.949219 219.566406 C 70.417969 219.261719 71.90625 219.523438 73.308594 220.339844 C 74.707031 221.152344 75.984375 222.496094 77.035156 224.269531 C 78.085938 226.042969 78.890625 228.199219 79.382812 230.574219 Z M 79.382812 230.574219 "/>
<path style=" stroke:none;fill-rule:nonzero;fill:rgb(99.215686%,39.607843%,51.764706%);fill-opacity:1;" d="M 70.550781 238.6875 C 71.585938 238.6875 72.425781 237.257812 72.425781 235.496094 C 72.425781 233.734375 71.585938 232.304688 70.550781 232.304688 C 69.515625 232.304688 68.675781 233.734375 68.675781 235.496094 C 68.675781 237.257812 69.515625 238.6875 70.550781 238.6875 Z M 70.550781 238.6875 "/>
<path style=" stroke:none;fill-rule:nonzero;fill:rgb(24.705882%,23.921569%,33.72549%);fill-opacity:1;" d="M 63.363281 248.191406 C 63.84375 246.292969 64.410156 243.390625 65.726562 244.445312 C 66.378906 244.925781 67.542969 246.386719 68.015625 244.6875 L 71.722656 231.480469 C 71.792969 231.234375 71.890625 231.011719 72.011719 230.832031 C 72.132812 230.652344 72.273438 230.515625 72.425781 230.425781 C 72.578125 230.34375 72.738281 230.308594 72.898438 230.328125 C 73.058594 230.351562 73.214844 230.425781 73.359375 230.550781 L 79.941406 236.417969 C 79.933594 237.332031 79.882812 238.238281 79.785156 239.132812 L 63.75 248.789062 Z M 63.363281 248.191406 "/>
<path style=" stroke:none;fill-rule:nonzero;fill:rgb(100%,71.372549%,71.372549%);fill-opacity:1;" d="M 65.273438 209.183594 C 64.8125 208.875 64.390625 208.402344 64.046875 207.789062 C 63.707031 207.175781 63.445312 206.441406 63.285156 205.640625 C 63.125 204.839844 63.070312 203.988281 63.125 203.144531 C 63.179688 202.304688 63.34375 201.492188 63.601562 200.769531 L 55.21875 149.972656 L 62.574219 148.664062 L 68.503906 199.003906 C 69.1875 199.828125 69.671875 201.046875 69.863281 202.433594 C 70.054688 203.824219 69.9375 205.285156 69.542969 206.539062 C 69.144531 207.792969 68.488281 208.753906 67.703125 209.242188 C 66.917969 209.730469 66.050781 209.710938 65.273438 209.183594 Z M 65.273438 209.183594 "/>
<path style=" stroke:none;fill-rule:nonzero;fill:rgb(10.196078%,62.352941%,100%);fill-opacity:1;" d="M 53.980469 122.085938 C 53.980469 122.085938 52.183594 122.195312 53.070312 128.503906 C 53.78125 133.550781 56.390625 165.21875 58.429688 171.535156 C 57.988281 172.210938 57.695312 173.117188 57.589844 174.109375 C 57.484375 175.105469 57.578125 176.128906 57.851562 177.023438 L 65.980469 171.3125 C 66.65625 168.121094 66.132812 165.222656 65.363281 164.964844 L 64.414062 155.726562 L 63.015625 124.746094 L 55.277344 121.96875 Z M 53.980469 122.085938 "/>
<path style=" stroke:none;fill-rule:nonzero;fill:rgb(10.196078%,62.352941%,100%);fill-opacity:1;" d="M 127.203125 255.742188 L 115.960938 256.535156 C 115.722656 256.550781 115.484375 256.476562 115.261719 256.316406 C 115.042969 256.152344 114.84375 255.90625 114.6875 255.597656 C 114.535156 255.292969 114.421875 254.9375 114.359375 254.550781 C 114.296875 254.164062 114.285156 253.757812 114.328125 253.363281 C 115.191406 245.347656 114.941406 237.101562 113.59375 229.28125 C 113.492188 228.683594 113.511719 228.042969 113.652344 227.46875 C 113.796875 226.894531 114.050781 226.421875 114.375 226.132812 C 118.980469 222.054688 123.296875 221.847656 127.199219 225.515625 C 127.402344 225.707031 127.582031 225.96875 127.71875 226.289062 C 127.859375 226.605469 127.953125 226.972656 128.003906 227.359375 C 129.019531 235.894531 129.261719 244.640625 128.722656 253.296875 C 128.6875 253.949219 128.511719 254.554688 128.234375 255.003906 C 127.953125 255.453125 127.589844 255.714844 127.203125 255.742188 Z M 127.203125 255.742188 "/>
<path style=" stroke:none;fill-rule:nonzero;fill:rgb(100%,100%,100%);fill-opacity:1;" d="M 126.730469 243.207031 L 118.132812 243.8125 C 118.027344 243.820312 117.921875 243.789062 117.820312 243.730469 C 117.722656 243.667969 117.628906 243.570312 117.550781 243.449219 C 117.476562 243.328125 117.410156 243.179688 117.367188 243.015625 C 117.324219 242.851562 117.296875 242.675781 117.292969 242.496094 C 117.289062 242.3125 117.304688 242.132812 117.339844 241.964844 C 117.378906 241.796875 117.433594 241.640625 117.507812 241.507812 C 117.578125 241.371094 117.664062 241.265625 117.761719 241.191406 C 117.855469 241.113281 117.960938 241.070312 118.066406 241.066406 L 126.660156 240.457031 C 126.769531 240.449219 126.875 240.476562 126.972656 240.539062 C 127.074219 240.601562 127.164062 240.695312 127.242188 240.820312 C 127.320312 240.941406 127.382812 241.089844 127.429688 241.253906 C 127.472656 241.417969 127.496094 241.59375 127.5 241.773438 C 127.507812 241.957031 127.488281 242.132812 127.453125 242.304688 C 127.417969 242.472656 127.359375 242.628906 127.289062 242.761719 C 127.21875 242.894531 127.132812 243.003906 127.035156 243.078125 C 126.9375 243.15625 126.835938 243.199219 126.730469 243.207031 Z M 126.730469 243.207031 "/>
<path style=" stroke:none;fill-rule:nonzero;fill:rgb(100%,100%,100%);fill-opacity:1;" d="M 126.613281 238.386719 L 118.015625 238.996094 C 117.800781 239.007812 117.59375 238.878906 117.4375 238.632812 C 117.277344 238.386719 117.183594 238.042969 117.175781 237.679688 C 117.167969 237.3125 117.242188 236.957031 117.390625 236.691406 C 117.535156 236.421875 117.734375 236.261719 117.949219 236.246094 L 126.542969 235.640625 C 126.757812 235.625 126.96875 235.753906 127.125 236.003906 C 127.28125 236.25 127.375 236.59375 127.386719 236.957031 C 127.394531 237.320312 127.316406 237.675781 127.171875 237.945312 C 127.027344 238.210938 126.824219 238.371094 126.613281 238.386719 Z M 126.613281 238.386719 "/>
<path style=" stroke:none;fill-rule:nonzero;fill:rgb(10.196078%,62.352941%,100%);fill-opacity:1;" d="M 332.808594 105.921875 L 321.652344 103.425781 C 321.414062 103.375 321.183594 103.230469 320.984375 103.007812 C 320.78125 102.78125 320.613281 102.484375 320.488281 102.132812 C 320.367188 101.789062 320.292969 101.40625 320.269531 101.003906 C 320.246094 100.605469 320.277344 100.203125 320.359375 99.828125 C 322.015625 92.183594 322.59375 83.984375 322.054688 75.886719 C 322.011719 75.269531 322.097656 74.640625 322.292969 74.117188 C 322.492188 73.59375 322.789062 73.203125 323.136719 73.011719 C 328.085938 70.335938 332.355469 71.390625 335.835938 76.140625 C 336.015625 76.386719 336.164062 76.695312 336.269531 77.050781 C 336.375 77.40625 336.433594 77.792969 336.441406 78.191406 C 336.585938 86.894531 335.949219 95.582031 334.550781 103.957031 C 334.449219 104.585938 334.214844 105.132812 333.894531 105.496094 C 333.574219 105.855469 333.1875 106.007812 332.808594 105.921875 Z M 332.808594 105.921875 "/>
<path style=" stroke:none;fill-rule:nonzero;fill:rgb(100%,100%,100%);fill-opacity:1;" d="M 333.597656 93.429688 L 325.066406 91.523438 C 324.960938 91.5 324.859375 91.441406 324.769531 91.351562 C 324.675781 91.261719 324.597656 91.140625 324.53125 91 C 324.464844 90.855469 324.417969 90.691406 324.390625 90.519531 C 324.363281 90.34375 324.359375 90.160156 324.371094 89.984375 C 324.386719 89.804688 324.417969 89.632812 324.472656 89.476562 C 324.527344 89.320312 324.597656 89.179688 324.679688 89.070312 C 324.765625 88.960938 324.859375 88.878906 324.960938 88.832031 C 325.0625 88.785156 325.171875 88.773438 325.277344 88.796875 L 333.808594 90.703125 C 334.019531 90.753906 334.210938 90.941406 334.339844 91.230469 C 334.472656 91.519531 334.527344 91.886719 334.5 92.246094 C 334.472656 92.609375 334.363281 92.9375 334.191406 93.15625 C 334.023438 93.378906 333.808594 93.476562 333.597656 93.429688 Z M 333.597656 93.429688 "/>
<path style=" stroke:none;fill-rule:nonzero;fill:rgb(100%,100%,100%);fill-opacity:1;" d="M 333.964844 88.648438 L 325.433594 86.742188 C 325.328125 86.722656 325.226562 86.664062 325.136719 86.574219 C 325.042969 86.480469 324.964844 86.363281 324.898438 86.21875 C 324.832031 86.074219 324.785156 85.914062 324.757812 85.738281 C 324.730469 85.5625 324.722656 85.382812 324.738281 85.203125 C 324.75 85.023438 324.785156 84.847656 324.839844 84.691406 C 324.890625 84.535156 324.964844 84.398438 325.046875 84.289062 C 325.132812 84.179688 325.226562 84.097656 325.328125 84.050781 C 325.433594 84.003906 325.539062 83.992188 325.644531 84.019531 L 334.175781 85.921875 C 334.28125 85.945312 334.382812 86.003906 334.472656 86.09375 C 334.566406 86.183594 334.644531 86.304688 334.710938 86.449219 C 334.773438 86.59375 334.824219 86.753906 334.851562 86.929688 C 334.878906 87.105469 334.886719 87.285156 334.871094 87.464844 C 334.859375 87.644531 334.824219 87.816406 334.769531 87.976562 C 334.71875 88.132812 334.648438 88.269531 334.5625 88.378906 C 334.476562 88.488281 334.382812 88.570312 334.277344 88.617188 C 334.175781 88.664062 334.070312 88.671875 333.964844 88.648438 Z M 333.964844 88.648438 "/>
<path style=" stroke:none;fill-rule:nonzero;fill:rgb(100%,100%,100%);fill-opacity:1;" d="M 184.207031 142.757812 L 180.488281 142.757812 L 180.488281 136.429688 C 180.488281 134.910156 180.136719 133.453125 179.507812 132.378906 C 178.875 131.304688 178.019531 130.703125 177.128906 130.703125 C 176.238281 130.703125 175.382812 131.304688 174.753906 132.378906 C 174.121094 133.453125 173.769531 134.910156 173.769531 136.429688 L 173.769531 142.757812 L 170.054688 142.757812 C 169.164062 142.757812 168.308594 143.359375 167.675781 144.433594 C 167.046875 145.507812 166.691406 146.964844 166.691406 148.484375 C 166.691406 150 167.046875 151.457031 167.675781 152.53125 C 168.308594 153.605469 169.164062 154.207031 170.054688 154.207031 L 173.769531 154.207031 L 173.769531 160.539062 C 173.769531 162.054688 174.121094 163.511719 174.753906 164.585938 C 175.382812 165.660156 176.238281 166.261719 177.128906 166.261719 C 178.019531 166.261719 178.875 165.660156 179.507812 164.585938 C 180.136719 163.511719 180.488281 162.054688 180.488281 160.539062 L 180.488281 154.207031 L 184.207031 154.207031 C 185.097656 154.207031 185.953125 153.605469 186.582031 152.53125 C 187.210938 151.457031 187.566406 150 187.566406 148.484375 C 187.566406 146.964844 187.210938 145.507812 186.582031 144.433594 C 185.953125 143.359375 185.097656 142.757812 184.207031 142.757812 Z M 184.207031 142.757812 "/>
<path style=" stroke:none;fill-rule:nonzero;fill:rgb(24.705882%,23.921569%,33.72549%);fill-opacity:1;" d="M 304.503906 25.636719 C 306.460938 25.636719 308.042969 22.933594 308.042969 19.601562 C 308.042969 16.269531 306.460938 13.570312 304.503906 13.570312 C 302.546875 13.570312 300.960938 16.269531 300.960938 19.601562 C 300.960938 22.933594 302.546875 25.636719 304.503906 25.636719 Z M 304.503906 25.636719 "/>
<path style=" stroke:none;fill-rule:nonzero;fill:rgb(24.705882%,23.921569%,33.72549%);fill-opacity:1;" d="M 86.925781 196.207031 C 88.882812 196.207031 90.46875 193.503906 90.46875 190.171875 C 90.46875 186.839844 88.882812 184.136719 86.925781 184.136719 C 84.972656 184.136719 83.386719 186.839844 83.386719 190.171875 C 83.386719 193.503906 84.972656 196.207031 86.925781 196.207031 Z M 86.925781 196.207031 "/>
</g>
</svg>
