<?xml version="1.0" encoding="UTF-8"?>
<svg xmlns="http://www.w3.org/2000/svg" xmlns:xlink="http://www.w3.org/1999/xlink" width="376px" height="376px" viewBox="0 0 376 376" version="1.1">
<g id="surface1">
<path style=" stroke:none;fill-rule:nonzero;fill:rgb(90.196078%,90.196078%,90.196078%);fill-opacity:1;" d="M 223.109375 11.535156 C 250.179688 -11.433594 284.53125 0.609375 302.746094 41.332031 L 302.128906 42.03125 C 284.136719 1.808594 250.203125 -10.082031 223.46875 12.597656 C 221.195312 14.527344 219.003906 16.679688 216.902344 19.042969 C 189.410156 49.964844 182.90625 110.59375 202.40625 154.195312 L 201.785156 154.890625 C 182.046875 110.75 188.628906 49.367188 216.464844 18.058594 C 218.589844 15.664062 220.808594 13.488281 223.109375 11.535156 Z M 223.109375 11.535156 "/>
<path style=" stroke:none;fill-rule:nonzero;fill:rgb(90.196078%,90.196078%,90.196078%);fill-opacity:1;" d="M 366.507812 109.707031 L 277.476562 98.726562 C 276.09375 98.550781 274.8125 97.515625 273.910156 95.847656 C 273.007812 94.175781 272.5625 92.007812 272.667969 89.8125 L 276.527344 21.214844 C 276.636719 19.023438 277.289062 16.992188 278.34375 15.5625 C 279.398438 14.132812 280.765625 13.425781 282.148438 13.59375 L 371.175781 24.574219 C 372.558594 24.75 373.839844 25.785156 374.742188 27.453125 C 375.644531 29.125 376.089844 31.292969 375.984375 33.488281 L 372.125 102.085938 C 372.015625 104.277344 371.363281 106.308594 370.308594 107.738281 C 369.257812 109.167969 367.886719 109.875 366.507812 109.707031 Z M 366.507812 109.707031 "/>
<path style=" stroke:none;fill-rule:nonzero;fill:rgb(100%,100%,100%);fill-opacity:1;" d="M 345.476562 94.210938 C 344.800781 94.210938 344.121094 94.167969 343.441406 94.085938 L 285.902344 86.988281 C 284.753906 86.84375 283.632812 86.34375 282.605469 85.515625 C 281.574219 84.6875 280.660156 83.542969 279.910156 82.152344 C 279.160156 80.761719 278.589844 79.152344 278.230469 77.414062 C 277.875 75.671875 277.734375 73.839844 277.824219 72.015625 L 279.136719 45.269531 C 279.320312 41.585938 280.417969 38.167969 282.1875 35.765625 C 283.957031 33.363281 286.257812 32.171875 288.578125 32.457031 L 362.980469 41.632812 C 365.304688 41.925781 367.460938 43.664062 368.972656 46.472656 C 370.488281 49.28125 371.238281 52.925781 371.0625 56.609375 C 370.558594 66.828125 367.648438 76.375 362.90625 83.34375 C 358.164062 90.3125 351.941406 94.195312 345.476562 94.210938 Z M 345.476562 94.210938 "/>
<path style=" stroke:none;fill-rule:nonzero;fill:rgb(90.196078%,90.196078%,90.196078%);fill-opacity:1;" d="M 361.199219 62.898438 L 288.265625 53.898438 C 288.113281 53.878906 287.964844 53.8125 287.828125 53.703125 C 287.691406 53.59375 287.570312 53.445312 287.472656 53.261719 C 287.375 53.078125 287.300781 52.863281 287.25 52.632812 C 287.203125 52.402344 287.1875 52.160156 287.199219 51.921875 C 287.210938 51.679688 287.25 51.445312 287.320312 51.230469 C 287.390625 51.015625 287.484375 50.820312 287.601562 50.664062 C 287.714844 50.507812 287.851562 50.386719 287.996094 50.3125 C 288.140625 50.238281 288.292969 50.210938 288.445312 50.226562 L 361.382812 59.226562 C 361.53125 59.246094 361.679688 59.3125 361.816406 59.421875 C 361.953125 59.53125 362.074219 59.679688 362.171875 59.863281 C 362.273438 60.046875 362.347656 60.261719 362.394531 60.492188 C 362.441406 60.722656 362.460938 60.964844 362.449219 61.203125 C 362.4375 61.445312 362.394531 61.679688 362.324219 61.894531 C 362.257812 62.109375 362.160156 62.304688 362.046875 62.460938 C 361.929688 62.617188 361.796875 62.738281 361.652344 62.8125 C 361.507812 62.886719 361.351562 62.914062 361.199219 62.898438 Z M 361.199219 62.898438 "/>
<path style=" stroke:none;fill-rule:nonzero;fill:rgb(90.196078%,90.196078%,90.196078%);fill-opacity:1;" d="M 330.914062 66.453125 L 287.910156 61.148438 C 287.601562 61.109375 287.316406 60.882812 287.117188 60.511719 C 286.917969 60.140625 286.820312 59.65625 286.84375 59.171875 C 286.867188 58.683594 287.011719 58.234375 287.246094 57.917969 C 287.480469 57.597656 287.78125 57.441406 288.089844 57.480469 L 331.097656 62.785156 C 331.246094 62.804688 331.394531 62.871094 331.53125 62.980469 C 331.667969 63.089844 331.789062 63.238281 331.890625 63.421875 C 331.988281 63.605469 332.0625 63.820312 332.109375 64.050781 C 332.15625 64.28125 332.175781 64.523438 332.164062 64.761719 C 332.152344 65.003906 332.109375 65.238281 332.039062 65.453125 C 331.972656 65.671875 331.878906 65.863281 331.761719 66.019531 C 331.644531 66.175781 331.511719 66.296875 331.367188 66.371094 C 331.222656 66.445312 331.066406 66.472656 330.914062 66.453125 Z M 330.914062 66.453125 "/>
<path style=" stroke:none;fill-rule:nonzero;fill:rgb(90.196078%,90.196078%,90.196078%);fill-opacity:1;" d="M 340.390625 74.917969 L 287.554688 68.398438 C 287.402344 68.382812 287.253906 68.316406 287.117188 68.207031 C 286.980469 68.097656 286.859375 67.945312 286.761719 67.761719 C 286.660156 67.578125 286.585938 67.367188 286.539062 67.136719 C 286.492188 66.90625 286.472656 66.664062 286.484375 66.421875 C 286.496094 66.179688 286.539062 65.945312 286.609375 65.730469 C 286.675781 65.515625 286.773438 65.324219 286.886719 65.167969 C 287.003906 65.007812 287.140625 64.890625 287.285156 64.816406 C 287.429688 64.738281 287.582031 64.710938 287.734375 64.730469 L 340.570312 71.25 C 340.878906 71.285156 341.160156 71.515625 341.359375 71.886719 C 341.5625 72.257812 341.660156 72.738281 341.636719 73.226562 C 341.613281 73.710938 341.46875 74.164062 341.234375 74.480469 C 341 74.800781 340.695312 74.957031 340.390625 74.917969 Z M 340.390625 74.917969 "/>
<path style=" stroke:none;fill-rule:nonzero;fill:rgb(90.196078%,90.196078%,90.196078%);fill-opacity:1;" d="M 360.546875 202.828125 L 271.519531 191.84375 C 270.136719 191.671875 268.855469 190.636719 267.953125 188.964844 C 267.050781 187.296875 266.605469 185.125 266.710938 182.933594 L 270.570312 114.335938 C 270.679688 112.144531 271.332031 110.113281 272.386719 108.683594 C 273.4375 107.253906 274.808594 106.542969 276.1875 106.710938 L 365.21875 117.695312 C 366.601562 117.871094 367.882812 118.90625 368.785156 120.574219 C 369.6875 122.246094 370.132812 124.414062 370.027344 126.605469 L 366.167969 195.203125 C 366.058594 197.398438 365.40625 199.429688 364.351562 200.859375 C 363.296875 202.289062 361.929688 202.996094 360.546875 202.828125 Z M 360.546875 202.828125 "/>
<path style=" stroke:none;fill-rule:nonzero;fill:rgb(100%,100%,100%);fill-opacity:1;" d="M 339.496094 187.332031 C 338.828125 187.332031 338.160156 187.289062 337.484375 187.207031 L 279.945312 180.105469 C 278.796875 179.964844 277.675781 179.464844 276.644531 178.636719 C 275.617188 177.808594 274.703125 176.664062 273.953125 175.273438 C 273.203125 173.886719 272.632812 172.273438 272.273438 170.53125 C 271.914062 168.792969 271.777344 166.957031 271.867188 165.132812 L 273.179688 138.390625 C 273.269531 136.566406 273.585938 134.785156 274.105469 133.15625 C 274.628906 131.523438 275.351562 130.070312 276.226562 128.882812 C 277.105469 127.691406 278.121094 126.789062 279.21875 126.21875 C 280.316406 125.652344 281.472656 125.433594 282.621094 125.578125 L 357.023438 134.753906 C 358.175781 134.898438 359.296875 135.398438 360.324219 136.226562 C 361.351562 137.054688 362.269531 138.199219 363.019531 139.589844 C 363.769531 140.980469 364.339844 142.589844 364.695312 144.332031 C 365.054688 146.070312 365.191406 147.90625 365.101562 149.730469 C 364.59375 159.953125 361.675781 169.496094 356.929688 176.464844 C 352.1875 183.429688 345.960938 187.308594 339.496094 187.332031 Z M 339.496094 187.332031 "/>
<path style=" stroke:none;fill-rule:nonzero;fill:rgb(90.196078%,90.196078%,90.196078%);fill-opacity:1;" d="M 355.242188 156.015625 L 282.308594 147.019531 C 282.15625 147 282.007812 146.933594 281.871094 146.824219 C 281.734375 146.714844 281.613281 146.5625 281.515625 146.378906 C 281.414062 146.195312 281.339844 145.984375 281.292969 145.753906 C 281.246094 145.523438 281.226562 145.28125 281.238281 145.042969 C 281.253906 144.800781 281.292969 144.566406 281.363281 144.351562 C 281.433594 144.132812 281.527344 143.941406 281.644531 143.785156 C 281.757812 143.628906 281.894531 143.507812 282.039062 143.433594 C 282.183594 143.359375 282.335938 143.332031 282.488281 143.347656 L 355.425781 152.347656 C 355.574219 152.367188 355.722656 152.433594 355.859375 152.542969 C 355.996094 152.652344 356.117188 152.800781 356.214844 152.984375 C 356.316406 153.167969 356.390625 153.382812 356.4375 153.613281 C 356.484375 153.84375 356.503906 154.085938 356.492188 154.324219 C 356.480469 154.566406 356.4375 154.800781 356.367188 155.015625 C 356.300781 155.230469 356.203125 155.421875 356.089844 155.582031 C 355.972656 155.738281 355.839844 155.855469 355.691406 155.933594 C 355.550781 156.007812 355.394531 156.035156 355.242188 156.015625 Z M 355.242188 156.015625 "/>
<path style=" stroke:none;fill-rule:nonzero;fill:rgb(90.196078%,90.196078%,90.196078%);fill-opacity:1;" d="M 324.960938 159.578125 L 281.953125 154.269531 C 281.800781 154.25 281.652344 154.183594 281.515625 154.074219 C 281.378906 153.964844 281.257812 153.816406 281.160156 153.632812 C 281.058594 153.449219 280.984375 153.234375 280.9375 153.003906 C 280.890625 152.777344 280.871094 152.53125 280.882812 152.292969 C 280.894531 152.050781 280.9375 151.816406 281.007812 151.601562 C 281.074219 151.386719 281.171875 151.191406 281.285156 151.035156 C 281.402344 150.878906 281.535156 150.757812 281.683594 150.683594 C 281.828125 150.609375 281.980469 150.582031 282.132812 150.601562 L 325.140625 155.90625 C 325.445312 155.945312 325.730469 156.171875 325.929688 156.542969 C 326.128906 156.914062 326.230469 157.398438 326.203125 157.882812 C 326.179688 158.371094 326.035156 158.820312 325.804688 159.136719 C 325.570312 159.457031 325.265625 159.613281 324.960938 159.578125 Z M 324.960938 159.578125 "/>
<path style=" stroke:none;fill-rule:nonzero;fill:rgb(90.196078%,90.196078%,90.196078%);fill-opacity:1;" d="M 334.433594 168.039062 L 281.597656 161.519531 C 281.289062 161.484375 281.003906 161.253906 280.804688 160.882812 C 280.605469 160.511719 280.503906 160.03125 280.527344 159.542969 C 280.554688 159.054688 280.695312 158.605469 280.929688 158.289062 C 281.164062 157.96875 281.46875 157.8125 281.777344 157.851562 L 334.613281 164.367188 C 334.917969 164.40625 335.203125 164.636719 335.402344 165.007812 C 335.605469 165.378906 335.703125 165.859375 335.679688 166.347656 C 335.65625 166.835938 335.511719 167.285156 335.277344 167.601562 C 335.042969 167.917969 334.738281 168.078125 334.433594 168.039062 Z M 334.433594 168.039062 "/>
<path style=" stroke:none;fill-rule:nonzero;fill:rgb(90.196078%,90.196078%,90.196078%);fill-opacity:1;" d="M 134.082031 166.988281 C 132.953125 162.925781 132.339844 158.550781 132.273438 154.113281 C 132.210938 149.675781 132.695312 145.261719 133.710938 141.121094 C 134.722656 136.984375 136.238281 133.199219 138.171875 129.992188 C 140.105469 126.78125 142.417969 124.207031 144.980469 122.414062 C 147.539062 120.621094 150.296875 119.648438 153.097656 119.546875 C 155.894531 119.445312 158.679688 120.21875 161.289062 121.824219 C 163.898438 123.425781 166.285156 125.832031 168.308594 128.898438 C 170.332031 131.964844 171.957031 135.632812 173.085938 139.695312 L 172.390625 140.179688 C 171.300781 136.265625 169.734375 132.726562 167.78125 129.769531 C 165.832031 126.8125 163.53125 124.496094 161.015625 122.945312 C 158.496094 121.398438 155.8125 120.652344 153.113281 120.75 C 150.414062 120.847656 147.753906 121.789062 145.285156 123.515625 C 142.816406 125.246094 140.585938 127.726562 138.722656 130.824219 C 136.855469 133.917969 135.394531 137.566406 134.417969 141.558594 C 133.441406 145.550781 132.972656 149.808594 133.035156 154.085938 C 133.097656 158.367188 133.6875 162.585938 134.777344 166.5 Z M 134.082031 166.988281 "/>
<path style=" stroke:none;fill-rule:nonzero;fill:rgb(94.901961%,94.901961%,94.901961%);fill-opacity:1;" d="M 355.035156 355.507812 C 363.738281 348.96875 370.21875 335.808594 369.210938 321.347656 C 361.402344 331.375 350.769531 336.972656 339.796875 336.839844 C 335.519531 336.789062 330.734375 336.097656 327.628906 339.902344 C 325.695312 342.269531 324.824219 346.027344 324.714844 349.773438 C 324.601562 353.519531 325.175781 357.308594 325.746094 361.050781 L 325.570312 361.9375 C 335.789062 362.96875 346.328125 362.050781 355.035156 355.507812 Z M 355.035156 355.507812 "/>
<path style=" stroke:none;fill-rule:nonzero;fill:rgb(100%,100%,100%);fill-opacity:1;" d="M 368.996094 321.3125 C 365.628906 331.730469 359.792969 340.410156 352.539062 345.492188 C 350.949219 346.667969 349.257812 347.457031 347.519531 347.832031 C 345.75 348.125 343.960938 347.753906 342.300781 346.75 C 340.722656 345.851562 339.167969 344.683594 337.496094 344.328125 C 336.679688 344.144531 335.847656 344.230469 335.046875 344.570312 C 334.25 344.910156 333.503906 345.503906 332.851562 346.3125 C 331.308594 348.21875 330.386719 350.855469 329.550781 353.484375 C 328.625 356.40625 327.695312 359.460938 325.882812 361.453125 C 325.660156 361.691406 325.96875 362.195312 326.1875 361.953125 C 329.34375 358.492188 329.800781 352.230469 332.3125 348.039062 C 332.902344 346.980469 333.636719 346.148438 334.457031 345.601562 C 335.277344 345.058594 336.167969 344.8125 337.058594 344.890625 C 338.765625 345.089844 340.367188 346.292969 341.960938 347.222656 C 343.578125 348.234375 345.3125 348.683594 347.050781 348.546875 C 348.804688 348.300781 350.519531 347.609375 352.132812 346.496094 C 355.640625 344.179688 358.886719 340.976562 361.742188 337.011719 C 364.902344 332.679688 367.511719 327.429688 369.425781 321.546875 C 369.542969 321.1875 369.109375 320.953125 368.996094 321.3125 Z M 368.996094 321.3125 "/>
<path style=" stroke:none;fill-rule:nonzero;fill:rgb(100%,100%,100%);fill-opacity:1;" d="M 354.96875 344.023438 C 355.886719 345.738281 357.117188 346.957031 358.488281 347.511719 C 359.863281 348.0625 361.308594 347.925781 362.632812 347.113281 C 362.886719 346.941406 362.679688 346.355469 362.425781 346.523438 C 361.195312 347.285156 359.847656 347.414062 358.566406 346.894531 C 357.289062 346.375 356.148438 345.234375 355.300781 343.628906 C 355.121094 343.289062 354.792969 343.683594 354.96875 344.023438 Z M 354.96875 344.023438 "/>
<path style=" stroke:none;fill-rule:nonzero;fill:rgb(100%,100%,100%);fill-opacity:1;" d="M 343.066406 347.347656 C 343.234375 345.3125 343.671875 343.359375 344.351562 341.609375 C 345.03125 339.863281 345.9375 338.367188 347.007812 337.214844 C 347.226562 336.972656 346.917969 336.472656 346.699219 336.710938 C 345.589844 337.914062 344.648438 339.476562 343.945312 341.296875 C 343.238281 343.117188 342.785156 345.152344 342.613281 347.269531 C 342.585938 347.675781 343.035156 347.75 343.066406 347.347656 Z M 343.066406 347.347656 "/>
<path style=" stroke:none;fill-rule:nonzero;fill:rgb(100%,100%,100%);fill-opacity:1;" d="M 364.386719 332.238281 C 363.96875 331.726562 363.636719 331.054688 363.429688 330.289062 C 363.21875 329.519531 363.136719 328.679688 363.191406 327.847656 C 363.226562 327.445312 362.773438 327.367188 362.742188 327.769531 C 362.683594 328.6875 362.777344 329.617188 363.003906 330.46875 C 363.234375 331.316406 363.597656 332.058594 364.054688 332.632812 C 364.097656 332.695312 364.148438 332.734375 364.207031 332.746094 C 364.265625 332.753906 364.324219 332.734375 364.371094 332.683594 C 364.394531 332.660156 364.410156 332.625 364.425781 332.589844 C 364.4375 332.550781 364.445312 332.507812 364.445312 332.464844 C 364.445312 332.421875 364.441406 332.378906 364.429688 332.339844 C 364.421875 332.300781 364.40625 332.265625 364.386719 332.238281 Z M 364.386719 332.238281 "/>
<path style=" stroke:none;fill-rule:nonzero;fill:rgb(94.901961%,94.901961%,94.901961%);fill-opacity:1;" d="M 340.492188 290.773438 C 340.464844 291.023438 340.441406 291.273438 340.410156 291.523438 C 340.035156 294.871094 339.46875 298.160156 338.710938 301.339844 C 338.652344 301.589844 338.59375 301.835938 338.535156 302.082031 C 336.617188 309.785156 333.699219 316.761719 329.976562 322.566406 C 328.460938 324.9375 326.820312 327.109375 325.082031 329.058594 C 322.65625 331.78125 319.855469 334.441406 318.320312 338.105469 C 318.160156 338.484375 318.015625 338.878906 317.886719 339.292969 L 324.800781 361.480469 C 324.835938 361.519531 324.863281 361.5625 324.898438 361.605469 L 325.144531 362.503906 C 325.242188 362.414062 325.339844 362.316406 325.4375 362.222656 C 325.492188 362.167969 325.546875 362.113281 325.601562 362.058594 C 325.640625 362.019531 325.675781 361.984375 325.710938 361.953125 C 325.722656 361.941406 325.734375 361.929688 325.742188 361.917969 C 325.777344 361.886719 325.808594 361.855469 325.839844 361.828125 C 326.390625 361.277344 326.9375 360.722656 327.484375 360.160156 C 327.484375 360.15625 327.484375 360.15625 327.488281 360.152344 C 331.636719 355.851562 335.535156 350.992188 338.742188 345.382812 C 338.839844 345.214844 338.9375 345.042969 339.03125 344.863281 C 340.457031 342.34375 341.730469 339.625 342.84375 336.734375 C 343.441406 335.160156 343.980469 333.539062 344.464844 331.867188 C 345.695312 327.550781 346.425781 322.917969 346.617188 318.191406 C 347.007812 308.71875 345.238281 298.929688 340.835938 291.347656 C 340.722656 291.152344 340.609375 290.964844 340.492188 290.773438 Z M 340.492188 290.773438 "/>
<path style=" stroke:none;fill-rule:nonzero;fill:rgb(100%,100%,100%);fill-opacity:1;" d="M 340.316406 290.921875 C 342.242188 302.636719 341.578125 314.988281 338.316406 325.5 C 337.640625 327.835938 336.703125 329.960938 335.558594 331.777344 C 334.328125 333.5625 332.820312 334.789062 331.1875 335.320312 C 329.625 335.910156 327.960938 336.246094 326.558594 337.375 C 325.871094 337.921875 325.273438 338.71875 324.816406 339.699219 C 324.359375 340.683594 324.054688 341.824219 323.929688 343.03125 C 323.585938 345.964844 324.023438 348.988281 324.519531 351.933594 C 325.070312 355.203125 325.679688 358.589844 325.171875 361.832031 C 325.109375 362.222656 325.554688 362.386719 325.613281 361.996094 C 326.503906 356.359375 324.171875 350.660156 324.261719 344.957031 C 324.300781 342.292969 324.914062 339.703125 326.472656 338.226562 C 327.832031 336.9375 329.546875 336.589844 331.132812 336.015625 C 332.738281 335.519531 334.242188 334.410156 335.511719 332.785156 C 336.722656 331.070312 337.71875 329.007812 338.441406 326.703125 C 340.101562 321.628906 341.167969 316.117188 341.589844 310.441406 C 342.097656 303.851562 341.808594 297.171875 340.738281 290.753906 C 340.671875 290.351562 340.25 290.519531 340.316406 290.921875 Z M 340.316406 290.921875 "/>
<path style=" stroke:none;fill-rule:nonzero;fill:rgb(100%,100%,100%);fill-opacity:1;" d="M 339.511719 322.179688 C 342.355469 323.589844 345.371094 321.902344 346.566406 318.25 C 346.683594 317.886719 346.277344 317.566406 346.160156 317.925781 C 345.042969 321.347656 342.25 322.882812 339.589844 321.5625 C 339.308594 321.425781 339.230469 322.042969 339.511719 322.179688 Z M 339.511719 322.179688 "/>
<path style=" stroke:none;fill-rule:nonzero;fill:rgb(100%,100%,100%);fill-opacity:1;" d="M 332.015625 335.175781 C 331.289062 333.433594 330.789062 331.476562 330.554688 329.417969 C 330.316406 327.359375 330.347656 325.25 330.640625 323.210938 C 330.703125 322.816406 330.257812 322.652344 330.199219 323.046875 C 329.894531 325.171875 329.867188 327.367188 330.117188 329.507812 C 330.367188 331.644531 330.886719 333.683594 331.648438 335.496094 C 331.796875 335.863281 332.164062 335.542969 332.015625 335.175781 Z M 332.015625 335.175781 "/>
<path style=" stroke:none;fill-rule:nonzero;fill:rgb(100%,100%,100%);fill-opacity:1;" d="M 341.527344 304.132812 C 340.972656 304.03125 340.433594 303.738281 339.953125 303.269531 C 339.476562 302.800781 339.066406 302.171875 338.761719 301.425781 C 338.613281 301.054688 338.246094 301.378906 338.390625 301.746094 C 338.734375 302.570312 339.183594 303.261719 339.710938 303.78125 C 340.238281 304.296875 340.832031 304.628906 341.449219 304.746094 C 341.570312 304.769531 341.6875 304.703125 341.710938 304.519531 C 341.71875 304.429688 341.703125 304.339844 341.667969 304.269531 C 341.636719 304.195312 341.585938 304.148438 341.527344 304.132812 Z M 341.527344 304.132812 "/>
<path style=" stroke:none;fill-rule:nonzero;fill:rgb(100%,72.156863%,72.156863%);fill-opacity:1;" d="M 355.171875 197.972656 L 349.882812 153.316406 L 339.496094 131.636719 L 331.800781 139.617188 C 332.890625 148.972656 341.113281 166.433594 341.113281 166.433594 L 348.40625 200.972656 C 348.378906 201.152344 348.351562 201.332031 348.332031 201.519531 C 348.214844 202.613281 348.277344 203.734375 348.515625 204.777344 C 348.753906 205.816406 349.15625 206.746094 349.6875 207.464844 C 350.214844 208.191406 350.855469 208.683594 351.539062 208.902344 C 352.226562 209.117188 352.933594 209.050781 353.597656 208.707031 C 354.261719 208.363281 354.859375 207.753906 355.332031 206.9375 C 355.804688 206.121094 356.132812 205.125 356.292969 204.042969 C 356.449219 202.964844 356.429688 201.839844 356.234375 200.777344 C 356.039062 199.714844 355.671875 198.75 355.171875 197.972656 Z M 355.171875 197.972656 "/>
<path style=" stroke:none;fill-rule:nonzero;fill:rgb(24.705882%,23.921569%,33.72549%);fill-opacity:1;" d="M 332.007812 144.335938 L 340.722656 133.121094 L 340.738281 133.0625 C 342.367188 127.207031 338.75 117.164062 335.425781 109.769531 C 334.328125 107.335938 332.691406 105.648438 330.839844 105.058594 C 328.992188 104.464844 327.066406 105.007812 325.460938 106.578125 C 324.28125 107.746094 323.328125 109.417969 322.714844 111.402344 C 322.101562 113.382812 321.851562 115.597656 321.988281 117.796875 L 322.722656 128.984375 Z M 332.007812 144.335938 "/>
<path style=" stroke:none;fill-rule:nonzero;fill:rgb(100%,72.156863%,72.156863%);fill-opacity:1;" d="M 301.214844 366.589844 L 295.417969 366.585938 L 292.660156 331.125 L 301.214844 331.128906 Z M 301.214844 366.589844 "/>
<path style=" stroke:none;fill-rule:nonzero;fill:rgb(18.431373%,18.039216%,25.490196%);fill-opacity:1;" d="M 302.691406 363.585938 L 301.0625 363.585938 L 294.691406 359.476562 L 291.277344 363.585938 C 289.347656 363.585938 287.496094 364.800781 286.132812 366.964844 C 284.765625 369.128906 284 372.0625 284 375.125 L 284 375.5 L 302.691406 375.5 Z M 302.691406 363.585938 "/>
<path style=" stroke:none;fill-rule:nonzero;fill:rgb(100%,72.156863%,72.156863%);fill-opacity:1;" d="M 326.9375 366.589844 L 321.140625 366.585938 L 318.382812 331.125 L 326.9375 331.128906 Z M 326.9375 366.589844 "/>
<path style=" stroke:none;fill-rule:nonzero;fill:rgb(18.431373%,18.039216%,25.490196%);fill-opacity:1;" d="M 328.417969 363.585938 L 326.785156 363.585938 L 320.414062 359.476562 L 317 363.585938 C 315.070312 363.585938 313.21875 364.800781 311.855469 366.964844 C 310.488281 369.128906 309.722656 372.0625 309.722656 375.125 L 309.722656 375.5 L 328.417969 375.5 Z M 328.417969 363.585938 "/>
<path style=" stroke:none;fill-rule:nonzero;fill:rgb(18.431373%,18.039216%,25.490196%);fill-opacity:1;" d="M 335.777344 213.84375 C 335.777344 213.84375 336.453125 226.726562 334.761719 239.070312 C 333.070312 251.417969 333.070312 286.1875 333.070312 286.1875 L 329.347656 353.941406 L 318.179688 352.328125 L 315.132812 239.070312 L 304.300781 277.183594 L 305.316406 282.550781 L 303.964844 283.890625 C 303.964844 283.890625 304.976562 294.355469 304.300781 294.355469 C 303.621094 294.355469 301.929688 295.96875 301.929688 295.96875 L 303.285156 351.253906 L 291.777344 350.71875 L 287.714844 272.886719 L 292.113281 228.335938 L 292.453125 219.746094 L 293.976562 219.847656 L 294.753906 216.257812 L 296.175781 210.085938 Z M 335.777344 213.84375 "/>
<path style=" stroke:none;fill-rule:nonzero;fill:rgb(24.705882%,23.921569%,33.72549%);fill-opacity:1;" d="M 336.363281 216.550781 L 336.421875 216.414062 C 339.644531 209.261719 334.800781 192.074219 334.070312 189.582031 L 337.148438 187.996094 L 336.453125 178.652344 L 336.125 174.488281 L 338.476562 170.757812 L 338.484375 170.664062 L 339.839844 151.878906 L 341.808594 139.398438 C 342.550781 134.683594 342.484375 129.738281 341.625 125.070312 C 340.761719 120.40625 339.132812 116.1875 336.902344 112.851562 L 332.355469 106.046875 L 326.824219 93.070312 L 317.90625 93.070312 L 314.847656 102.230469 C 311.882812 103.316406 309.253906 106.019531 307.414062 109.863281 C 305.578125 113.710938 304.648438 118.457031 304.792969 123.273438 L 305.484375 147.296875 L 302.773438 177.207031 L 302.769531 182.617188 L 299.71875 188 L 300.382812 193.285156 L 298.0625 194.863281 L 297.035156 202.457031 C 296.609375 203.34375 293.808594 209.273438 293.808594 210.890625 C 293.808594 211.132812 293.921875 211.367188 294.164062 211.632812 C 296.074219 213.679688 306.628906 217.863281 311.300781 214.898438 C 316.277344 211.742188 336.0625 216.476562 336.261719 216.523438 Z M 336.363281 216.550781 "/>
<path style=" stroke:none;fill-rule:nonzero;fill:rgb(80%,80%,80%);fill-opacity:1;" d="M 258.816406 375.28125 C 258.8125 375.472656 258.863281 375.652344 258.945312 375.789062 C 259.03125 375.925781 259.144531 376 259.265625 376 L 365.796875 376 C 365.914062 376 366.03125 375.925781 366.113281 375.789062 C 366.199219 375.65625 366.246094 375.472656 366.246094 375.28125 C 366.246094 375.09375 366.199219 374.910156 366.113281 374.773438 C 366.03125 374.640625 365.914062 374.566406 365.796875 374.566406 L 259.265625 374.566406 C 259.148438 374.5625 259.03125 374.640625 258.949219 374.773438 C 258.863281 374.90625 258.816406 375.089844 258.816406 375.277344 Z M 258.816406 375.28125 "/>
<path style=" stroke:none;fill-rule:nonzero;fill:rgb(100%,72.156863%,72.156863%);fill-opacity:1;" d="M 321.214844 88.882812 C 327.734375 88.882812 333.023438 80.496094 333.023438 70.152344 C 333.023438 59.808594 327.734375 51.421875 321.214844 51.421875 C 314.691406 51.421875 309.402344 59.808594 309.402344 70.152344 C 309.402344 80.496094 314.691406 88.882812 321.214844 88.882812 Z M 321.214844 88.882812 "/>
<path style=" stroke:none;fill-rule:nonzero;fill:rgb(18.431373%,18.039216%,25.490196%);fill-opacity:1;" d="M 320.082031 89.1875 C 321.910156 89.15625 323.734375 88.878906 325.535156 88.355469 C 327.316406 87.707031 331.246094 82.886719 332.316406 80.039062 C 333.113281 77.925781 333.589844 74.652344 333.851562 72.28125 C 334.203125 69.140625 334.136719 65.917969 333.652344 62.824219 C 333.167969 59.726562 332.28125 56.828125 331.046875 54.3125 C 330.570312 53.257812 329.921875 52.425781 329.175781 51.90625 C 329.109375 51.871094 329.039062 51.835938 328.972656 51.808594 C 327.886719 51.402344 326.898438 50.492188 326.144531 49.191406 C 325.996094 48.929688 325.835938 48.683594 325.667969 48.453125 C 324.820312 47.375 323.820312 46.632812 322.753906 46.28125 C 321.035156 45.628906 318.570312 46.449219 315.4375 48.726562 C 313.863281 49.871094 312.117188 49.550781 310.769531 49.144531 C 310.691406 49.125 310.613281 49.136719 310.542969 49.179688 C 310.472656 49.222656 310.40625 49.292969 310.359375 49.386719 C 309.804688 50.257812 309.058594 50.765625 308.277344 50.800781 C 307.800781 50.855469 307.316406 51.925781 306.730469 53.324219 C 306.597656 53.640625 306.441406 54.007812 306.328125 54.234375 L 306.308594 53.8125 L 306.042969 54.296875 C 305.632812 55.058594 305.34375 55.972656 305.214844 56.957031 C 305.085938 57.941406 305.113281 58.960938 305.296875 59.921875 C 305.484375 60.882812 305.816406 61.753906 306.273438 62.453125 C 306.726562 63.15625 307.285156 63.664062 307.898438 63.929688 C 308.382812 64.113281 308.878906 64.214844 309.375 64.238281 C 309.679688 64.269531 309.992188 64.300781 310.289062 64.371094 C 311.253906 64.644531 312.15625 65.308594 312.910156 66.300781 C 313.664062 67.289062 314.246094 68.574219 314.59375 70.027344 C 314.675781 70.363281 314.804688 70.664062 314.972656 70.90625 C 315.136719 71.148438 315.339844 71.328125 315.554688 71.429688 C 315.773438 71.53125 316.003906 71.550781 316.226562 71.488281 C 316.449219 71.429688 316.660156 71.285156 316.847656 71.074219 C 317.152344 70.675781 317.511719 70.402344 317.898438 70.273438 C 318.285156 70.148438 318.683594 70.167969 319.0625 70.339844 C 319.394531 70.613281 319.65625 71.058594 319.804688 71.601562 C 319.980469 72.203125 320.269531 72.710938 320.628906 73.054688 C 321.859375 73.996094 322.015625 78.386719 321.640625 82.070312 C 321.277344 85.617188 320.488281 88.207031 319.71875 88.367188 C 319.128906 88.488281 319.0625 88.554688 319.023438 88.722656 L 318.988281 88.875 L 319.054688 89.011719 C 319.386719 89.183594 319.734375 89.246094 320.082031 89.1875 Z M 320.082031 89.1875 "/>
<path style=" stroke:none;fill-rule:nonzero;fill:rgb(10.196078%,62.352941%,100%);fill-opacity:1;" d="M 190.289062 185.726562 C 203.257812 185.726562 213.769531 169.050781 213.769531 148.484375 C 213.769531 127.914062 203.257812 111.242188 190.289062 111.242188 C 177.316406 111.242188 166.804688 127.914062 166.804688 148.484375 C 166.804688 169.050781 177.316406 185.726562 190.289062 185.726562 Z M 190.289062 185.726562 "/>
<path style=" stroke:none;fill-rule:nonzero;fill:rgb(100%,72.156863%,72.156863%);fill-opacity:1;" d="M 317.359375 142.941406 L 309.613281 135.085938 C 304.683594 140.496094 298.015625 159.558594 298.015625 159.558594 L 281.144531 184.273438 C 280.441406 184.46875 279.78125 184.949219 279.234375 185.671875 C 278.6875 186.394531 278.269531 187.332031 278.019531 188.394531 C 277.773438 189.457031 277.710938 190.601562 277.832031 191.71875 C 277.953125 192.832031 278.257812 193.875 278.714844 194.746094 C 279.171875 195.613281 279.761719 196.273438 280.433594 196.664062 C 281.101562 197.054688 281.824219 197.15625 282.527344 196.964844 C 283.230469 196.769531 283.886719 196.285156 284.433594 195.558594 C 284.980469 194.835938 285.398438 193.894531 285.644531 192.832031 L 309.15625 166.855469 Z M 317.359375 142.941406 "/>
<path style=" stroke:none;fill-rule:nonzero;fill:rgb(24.705882%,23.921569%,33.72549%);fill-opacity:1;" d="M 316.621094 146.128906 L 321.78125 126.492188 L 319.914062 115.640625 C 319.546875 113.511719 318.804688 111.589844 317.78125 110.09375 C 316.757812 108.597656 315.492188 107.582031 314.125 107.167969 C 312.265625 106.625 310.351562 107.222656 308.761719 108.835938 C 307.171875 110.449219 306.027344 112.960938 305.558594 115.859375 C 304.144531 124.65625 303.058594 136.09375 305.914062 140.621094 L 305.941406 140.664062 Z M 316.621094 146.128906 "/>
<path style=" stroke:none;fill-rule:nonzero;fill:rgb(94.901961%,94.901961%,94.901961%);fill-opacity:1;" d="M 16.175781 364.636719 C 6.074219 356.417969 -1.25 340.53125 0.28125 323.554688 C 9.242188 335.828125 21.632812 343.054688 34.566406 343.546875 C 39.601562 343.738281 45.257812 343.210938 48.828125 347.875 C 51.046875 350.777344 51.988281 355.257812 52.027344 359.675781 C 52.070312 364.09375 51.304688 368.527344 50.546875 372.898438 L 50.730469 373.953125 C 38.667969 374.5625 26.273438 372.859375 16.175781 364.636719 Z M 16.175781 364.636719 "/>
<path style=" stroke:none;fill-rule:nonzero;fill:rgb(100%,100%,100%);fill-opacity:1;" d="M 0.535156 323.527344 C 4.253906 335.996094 10.925781 346.570312 19.347656 352.984375 C 21.195312 354.464844 23.167969 355.492188 25.207031 356.035156 C 27.285156 356.488281 29.398438 356.15625 31.382812 355.070312 C 33.261719 354.109375 35.117188 352.824219 37.097656 352.503906 C 38.066406 352.339844 39.042969 352.488281 39.976562 352.933594 C 40.910156 353.382812 41.773438 354.128906 42.519531 355.117188 C 44.296875 357.453125 45.320312 360.613281 46.242188 363.761719 C 47.265625 367.257812 48.285156 370.914062 50.378906 373.367188 C 50.632812 373.664062 50.257812 374.234375 50.003906 373.9375 C 46.367188 369.671875 45.976562 362.269531 43.121094 357.183594 C 41.785156 354.808594 39.90625 353.039062 37.601562 353.195312 C 35.585938 353.328125 33.667969 354.652344 31.773438 355.648438 C 29.84375 356.746094 27.785156 357.175781 25.742188 356.90625 C 23.683594 356.515625 21.679688 355.597656 19.804688 354.195312 C 15.730469 351.257812 11.980469 347.292969 8.707031 342.449219 C 5.085938 337.160156 2.140625 330.824219 0.0195312 323.777344 C -0.109375 323.347656 0.40625 323.097656 0.535156 323.527344 Z M 0.535156 323.527344 "/>
<path style=" stroke:none;fill-rule:nonzero;fill:rgb(100%,100%,100%);fill-opacity:1;" d="M 16.523438 351.113281 C 14.308594 355.117188 10.410156 356.46875 7.421875 354.296875 C 7.128906 354.082031 7.386719 353.402344 7.679688 353.617188 C 9.109375 354.582031 10.695312 354.816406 12.214844 354.277344 C 13.730469 353.746094 15.105469 352.46875 16.140625 350.628906 C 16.359375 350.234375 16.738281 350.722656 16.523438 351.113281 Z M 16.523438 351.113281 "/>
<path style=" stroke:none;fill-rule:nonzero;fill:rgb(100%,100%,100%);fill-opacity:1;" d="M 30.464844 355.734375 C 30.316406 353.324219 29.84375 350.996094 29.085938 348.898438 C 28.328125 346.800781 27.296875 344.980469 26.0625 343.5625 C 25.808594 343.261719 26.183594 342.691406 26.433594 342.988281 C 27.71875 344.46875 28.785156 346.367188 29.574219 348.550781 C 30.359375 350.738281 30.847656 353.164062 31 355.667969 C 31.027344 356.144531 30.492188 356.207031 30.464844 355.734375 Z M 30.464844 355.734375 "/>
<path style=" stroke:none;fill-rule:nonzero;fill:rgb(100%,100%,100%);fill-opacity:1;" d="M 5.707031 336.667969 C 6.210938 336.09375 6.613281 335.320312 6.878906 334.429688 C 7.144531 333.535156 7.261719 332.550781 7.21875 331.566406 C 7.183594 331.089844 7.71875 331.027344 7.75 331.5 C 7.792969 332.589844 7.664062 333.675781 7.375 334.664062 C 7.082031 335.652344 6.640625 336.507812 6.085938 337.152344 C 6.035156 337.226562 5.972656 337.269531 5.902344 337.277344 C 5.835938 337.289062 5.765625 337.257812 5.710938 337.199219 C 5.6875 337.164062 5.664062 337.125 5.652344 337.078125 C 5.636719 337.035156 5.632812 336.984375 5.628906 336.9375 C 5.628906 336.886719 5.636719 336.835938 5.648438 336.789062 C 5.664062 336.742188 5.683594 336.703125 5.707031 336.667969 Z M 5.707031 336.667969 "/>
<path style=" stroke:none;fill-rule:nonzero;fill:rgb(94.901961%,94.901961%,94.901961%);fill-opacity:1;" d="M 34.828125 289.238281 C 34.855469 289.53125 34.878906 289.828125 34.910156 290.128906 C 35.269531 294.09375 35.863281 298 36.679688 301.792969 C 36.742188 302.089844 36.804688 302.386719 36.871094 302.675781 C 38.949219 311.863281 42.21875 320.257812 46.46875 327.316406 C 48.203125 330.199219 50.078125 332.855469 52.082031 335.253906 C 54.875 338.601562 58.109375 341.902344 59.832031 346.3125 C 60.015625 346.765625 60.175781 347.242188 60.316406 347.734375 L 51.648438 373.460938 C 51.609375 373.507812 51.574219 373.558594 51.535156 373.601562 L 51.21875 374.648438 C 51.109375 374.535156 50.996094 374.414062 50.882812 374.300781 C 50.820312 374.234375 50.757812 374.160156 50.691406 374.097656 C 50.648438 374.050781 50.605469 374.003906 50.566406 373.964844 C 50.550781 373.953125 50.539062 373.9375 50.527344 373.921875 C 50.488281 373.886719 50.453125 373.84375 50.417969 373.808594 C 49.78125 373.128906 49.152344 372.441406 48.519531 371.75 C 48.515625 371.746094 48.515625 371.746094 48.515625 371.738281 C 43.730469 366.425781 39.25 360.46875 35.605469 353.671875 C 35.496094 353.46875 35.382812 353.261719 35.277344 353.046875 C 33.65625 349.992188 32.21875 346.710938 30.976562 343.242188 C 30.308594 341.355469 29.710938 339.410156 29.183594 337.414062 C 27.835938 332.253906 27.082031 326.753906 26.96875 321.171875 C 26.730469 309.992188 29.046875 298.5625 34.414062 289.894531 C 34.550781 289.671875 34.6875 289.457031 34.828125 289.238281 Z M 34.828125 289.238281 "/>
<path style=" stroke:none;fill-rule:nonzero;fill:rgb(100%,100%,100%);fill-opacity:1;" d="M 35.03125 289.425781 C 32.488281 303.109375 32.980469 317.703125 36.574219 330.277344 C 37.316406 333.066406 38.367188 335.625 39.675781 337.832031 C 41.082031 340.011719 42.832031 341.542969 44.742188 342.269531 C 46.570312 343.054688 48.519531 343.550781 50.144531 344.960938 C 50.945312 345.644531 51.628906 346.621094 52.144531 347.804688 C 52.660156 348.988281 52.992188 350.351562 53.109375 351.777344 C 53.445312 355.257812 52.859375 358.792969 52.207031 362.234375 C 51.476562 366.050781 50.679688 370.007812 51.203125 373.855469 C 51.269531 374.320312 50.742188 374.488281 50.679688 374.023438 C 49.765625 367.328125 52.648438 360.753906 52.675781 354.027344 C 52.691406 350.890625 52.03125 347.800781 50.230469 345.972656 C 48.65625 344.371094 46.644531 343.859375 44.789062 343.085938 C 42.910156 342.410156 41.164062 341.015625 39.707031 339.023438 C 38.320312 336.933594 37.199219 334.441406 36.398438 331.6875 C 34.5625 325.609375 33.4375 319.054688 33.074219 312.339844 C 32.632812 304.550781 33.128906 296.699219 34.539062 289.199219 C 34.625 288.726562 35.121094 288.957031 35.03125 289.425781 Z M 35.03125 289.425781 "/>
<path style=" stroke:none;fill-rule:nonzero;fill:rgb(100%,100%,100%);fill-opacity:1;" d="M 35.246094 326.292969 C 31.863281 327.789062 28.347656 325.621094 27.027344 321.246094 C 26.898438 320.8125 27.382812 320.457031 27.515625 320.890625 C 28.75 324.988281 32.003906 326.960938 35.167969 325.5625 C 35.5 325.417969 35.578125 326.148438 35.246094 326.292969 Z M 35.246094 326.292969 "/>
<path style=" stroke:none;fill-rule:nonzero;fill:rgb(100%,100%,100%);fill-opacity:1;" d="M 43.769531 342.050781 C 44.667969 340.039062 45.300781 337.761719 45.625 335.351562 C 45.953125 332.941406 45.96875 330.453125 45.667969 328.035156 C 45.609375 327.566406 46.132812 327.402344 46.195312 327.867188 C 46.503906 330.386719 46.484375 332.976562 46.140625 335.484375 C 45.796875 337.988281 45.136719 340.359375 44.195312 342.445312 C 44.011719 342.871094 43.585938 342.472656 43.769531 342.050781 Z M 43.769531 342.050781 "/>
<path style=" stroke:none;fill-rule:nonzero;fill:rgb(100%,100%,100%);fill-opacity:1;" d="M 33.292969 304.914062 C 33.953125 304.828125 34.59375 304.511719 35.167969 303.992188 C 35.742188 303.46875 36.238281 302.75 36.621094 301.890625 C 36.800781 301.464844 37.226562 301.863281 37.046875 302.289062 C 36.625 303.238281 36.078125 304.027344 35.441406 304.609375 C 34.808594 305.1875 34.101562 305.539062 33.371094 305.644531 C 33.226562 305.664062 33.09375 305.574219 33.070312 305.359375 C 33.0625 305.253906 33.085938 305.148438 33.125 305.066406 C 33.167969 304.984375 33.226562 304.929688 33.292969 304.914062 Z M 33.292969 304.914062 "/>
<path style=" stroke:none;fill-rule:nonzero;fill:rgb(100%,71.372549%,71.372549%);fill-opacity:1;" d="M 65.378906 160.292969 L 66.140625 171.484375 L 65.695312 186.15625 L 86.1875 182.292969 L 88.113281 160.292969 L 85.660156 160.332031 Z M 65.378906 160.292969 "/>
<path style=" stroke:none;fill-rule:nonzero;fill:rgb(100%,71.372549%,71.372549%);fill-opacity:1;" d="M 54.75 363.445312 L 59.230469 363.445312 L 61.363281 336.039062 L 54.75 336.039062 Z M 54.75 363.445312 "/>
<path style=" stroke:none;fill-rule:nonzero;fill:rgb(18.431373%,18.039216%,25.490196%);fill-opacity:1;" d="M 53.289062 358.578125 L 60.445312 357.898438 L 60.445312 362.765625 L 67.253906 370.21875 C 67.589844 370.585938 67.839844 371.113281 67.976562 371.726562 C 68.109375 372.339844 68.113281 373.003906 67.992188 373.621094 C 67.871094 374.242188 67.628906 374.78125 67.300781 375.164062 C 66.96875 375.550781 66.570312 375.753906 66.164062 375.753906 L 57.640625 375.753906 L 56.171875 370.945312 L 55.597656 375.753906 L 52.386719 375.753906 Z M 53.289062 358.578125 "/>
<path style=" stroke:none;fill-rule:nonzero;fill:rgb(100%,71.372549%,71.372549%);fill-opacity:1;" d="M 79.917969 363.445312 L 84.398438 363.445312 L 86.53125 336.039062 L 79.917969 336.039062 Z M 79.917969 363.445312 "/>
<path style=" stroke:none;fill-rule:nonzero;fill:rgb(18.431373%,18.039216%,25.490196%);fill-opacity:1;" d="M 78.457031 358.578125 L 85.613281 357.898438 L 85.613281 362.765625 L 92.421875 370.21875 C 92.757812 370.585938 93.007812 371.113281 93.144531 371.726562 C 93.277344 372.339844 93.28125 373.003906 93.160156 373.621094 C 93.039062 374.242188 92.796875 374.78125 92.46875 375.164062 C 92.136719 375.550781 91.738281 375.753906 91.332031 375.753906 L 82.808594 375.753906 L 81.339844 370.945312 L 80.765625 375.753906 L 77.554688 375.753906 Z M 78.457031 358.578125 "/>
<path style=" stroke:none;fill-rule:nonzero;fill:rgb(18.431373%,18.039216%,25.490196%);fill-opacity:1;" d="M 52.816406 339.808594 L 52.867188 339.808594 L 53.726562 295.246094 C 53.171875 293.542969 52.886719 291.644531 52.902344 289.722656 C 52.921875 287.800781 53.238281 285.917969 53.824219 284.234375 L 53.949219 283.882812 L 53.628906 281.53125 C 53.21875 278.507812 53.40625 275.359375 54.167969 272.515625 L 54.972656 230.945312 C 52.097656 201.429688 65.785156 182.179688 65.785156 182.179688 L 86.289062 182.179688 L 90.691406 206.164062 C 93.601562 251.125 93.074219 294.9375 88.457031 337.382812 L 88.582031 337.484375 C 89.035156 337.730469 89.230469 338.726562 89.015625 339.707031 C 88.800781 340.6875 88.261719 341.28125 87.808594 341.035156 L 76.980469 340.4375 C 76.527344 340.1875 76.332031 339.191406 76.546875 338.210938 C 76.757812 337.230469 77.300781 336.640625 77.753906 336.886719 L 78.488281 337.476562 L 76.917969 294.476562 L 77.09375 286.621094 L 76.734375 277.710938 L 75.074219 237.628906 L 68.792969 286.917969 L 62.375 340.304688 C 62.550781 340.5625 62.675781 340.894531 62.730469 341.261719 C 62.785156 341.628906 62.769531 342.015625 62.683594 342.371094 C 62.597656 342.722656 62.445312 343.027344 62.25 343.242188 C 62.050781 343.453125 61.816406 343.566406 61.578125 343.566406 L 52.816406 343.566406 C 52.660156 343.566406 52.507812 343.519531 52.363281 343.425781 C 52.21875 343.328125 52.089844 343.191406 51.980469 343.015625 C 51.867188 342.84375 51.78125 342.636719 51.722656 342.40625 C 51.660156 342.179688 51.632812 341.933594 51.632812 341.6875 C 51.632812 341.441406 51.660156 341.195312 51.722656 340.96875 C 51.78125 340.738281 51.867188 340.535156 51.980469 340.359375 C 52.089844 340.183594 52.21875 340.046875 52.363281 339.953125 C 52.507812 339.859375 52.660156 339.808594 52.816406 339.808594 Z M 52.816406 339.808594 "/>
<path style=" stroke:none;fill-rule:nonzero;fill:rgb(100%,71.372549%,71.372549%);fill-opacity:1;" d="M 68.957031 103.035156 C 75.03125 103.035156 79.957031 95.226562 79.957031 85.59375 C 79.957031 75.960938 75.03125 68.152344 68.957031 68.152344 C 62.886719 68.152344 57.960938 75.960938 57.960938 85.59375 C 57.960938 95.226562 62.886719 103.035156 68.957031 103.035156 Z M 68.957031 103.035156 "/>
<path style=" stroke:none;fill-rule:nonzero;fill:rgb(18.431373%,18.039216%,25.490196%);fill-opacity:1;" d="M 20.769531 166.167969 C 22.316406 160.476562 24.4375 155.226562 27.050781 150.621094 C 24.839844 156.21875 23.574219 162.628906 23.378906 169.230469 C 24.179688 170.023438 25.019531 170.71875 25.886719 171.308594 C 28.5 173.046875 31.28125 174.039062 34.109375 174.238281 C 35.632812 166.1875 38.265625 158.765625 41.8125 152.519531 C 39.253906 158.988281 37.96875 166.515625 38.117188 174.144531 C 41.273438 173.710938 44.382812 172.65625 47.371094 171 C 51.859375 168.550781 56.214844 164.894531 59.316406 159.207031 C 62.675781 153.050781 64.332031 144.929688 64.867188 136.832031 C 65.402344 128.738281 64.898438 120.570312 64.390625 112.472656 C 64.152344 108.613281 66.179688 104.171875 65.941406 100.3125 L 65.78125 100.3125 C 64.714844 98 63.628906 95.625 63.109375 92.878906 C 62.589844 90.140625 62.726562 86.910156 63.917969 84.75 C 64.585938 83.625 65.429688 82.796875 66.363281 82.347656 C 66.449219 82.171875 66.546875 82 66.644531 81.828125 C 68.453125 78.785156 70.578125 76.265625 72.929688 74.375 C 71.234375 76.40625 70.101562 78.703125 69.574219 81.074219 C 71.042969 80.5625 72.511719 80.054688 73.980469 79.542969 C 74.46875 78.71875 74.984375 77.933594 75.527344 77.191406 C 76.3125 76.109375 76.570312 76.027344 77.507812 75.007812 C 76.753906 76.066406 76.164062 77.390625 75.796875 78.878906 C 77.683594 78.128906 79.570312 76.996094 80.554688 74.421875 C 82.179688 70.164062 80.246094 64.417969 77.546875 61.875 C 75.582031 60.113281 73.316406 59.378906 71.074219 59.769531 C 68.832031 60.160156 66.722656 61.660156 65.046875 64.058594 C 61.140625 59.496094 55.578125 59.570312 51.234375 62.980469 C 48.367188 65.332031 45.898438 68.742188 44.03125 72.921875 C 45.113281 72.699219 46.203125 72.578125 47.292969 72.558594 C 45.757812 72.917969 44.296875 73.835938 43.023438 75.242188 C 42.457031 76.628906 41.941406 78.0625 41.472656 79.539062 C 41.167969 80.507812 40.875 81.488281 40.605469 82.480469 C 38.933594 88.515625 37.84375 94.941406 36.714844 101.292969 C 35.398438 108.695312 33.984375 116.148438 31.519531 122.773438 C 27.742188 132.84375 21.777344 140.390625 14.746094 144 C 14.160156 152.367188 16.734375 160.554688 20.769531 166.167969 Z M 20.769531 166.167969 "/>
<path style=" stroke:none;fill-rule:nonzero;fill:rgb(10.196078%,62.352941%,100%);fill-opacity:1;" d="M 80.035156 114.695312 L 77.898438 113.425781 L 75.207031 106.523438 L 65.621094 107.765625 L 63.289062 115.167969 L 57.675781 121.964844 L 60.132812 142.46875 L 63.945312 167.375 L 89.476562 162.3125 L 89.449219 143.566406 C 89.449219 143.566406 94.0625 128.753906 86.609375 123.203125 Z M 80.035156 114.695312 "/>
<path style=" stroke:none;fill-rule:nonzero;fill:rgb(100%,71.372549%,71.372549%);fill-opacity:1;" d="M 119.386719 179.730469 C 118.890625 180.046875 118.359375 180.183594 117.824219 180.140625 C 117.292969 180.09375 116.773438 179.859375 116.300781 179.460938 C 115.832031 179.058594 115.421875 178.5 115.101562 177.824219 C 114.78125 177.144531 114.558594 176.363281 114.449219 175.535156 L 85.984375 148.21875 L 91.1875 138.695312 L 117.53125 168.542969 C 118.421875 168.34375 119.328125 168.671875 120.078125 169.460938 C 120.824219 170.25 121.363281 171.453125 121.59375 172.828125 C 121.820312 174.207031 121.722656 175.671875 121.316406 176.945312 C 120.910156 178.214844 120.222656 179.207031 119.386719 179.730469 Z M 119.386719 179.730469 "/>
<path style=" stroke:none;fill-rule:nonzero;fill:rgb(10.196078%,62.352941%,100%);fill-opacity:1;" d="M 76.496094 135.265625 C 76.496094 135.265625 75.136719 137.433594 78.550781 141.003906 C 81.28125 143.863281 93.472656 157.984375 97.792969 160.21875 C 97.738281 161.222656 97.898438 162.230469 98.246094 163.078125 C 98.589844 163.925781 99.105469 164.566406 99.707031 164.898438 L 103.617188 151.265625 C 102.773438 148.148438 101.417969 148.871094 100.703125 149.574219 L 95.980469 143.941406 L 84.375 125.566406 L 77.460938 133.667969 Z M 76.496094 135.265625 "/>
<path style=" stroke:none;fill-rule:nonzero;fill:rgb(99.215686%,39.607843%,51.764706%);fill-opacity:1;" d="M 65.117188 64.53125 C 63.792969 67.625 62.941406 71.160156 62.621094 74.863281 C 62.300781 78.566406 62.523438 82.332031 63.273438 85.875 "/>
<path style=" stroke:none;fill-rule:nonzero;fill:rgb(80%,80%,80%);fill-opacity:1;" d="M 9.324219 375.28125 C 9.324219 375.375 9.335938 375.46875 9.359375 375.558594 C 9.378906 375.644531 9.414062 375.722656 9.457031 375.789062 C 9.496094 375.855469 9.546875 375.910156 9.601562 375.945312 C 9.65625 375.984375 9.714844 376 9.777344 376 L 116.304688 376 C 116.421875 376 116.539062 375.925781 116.621094 375.789062 C 116.707031 375.65625 116.757812 375.472656 116.757812 375.28125 C 116.757812 375.09375 116.707031 374.910156 116.621094 374.773438 C 116.539062 374.640625 116.421875 374.566406 116.304688 374.566406 L 9.777344 374.566406 C 9.714844 374.566406 9.65625 374.582031 9.601562 374.621094 C 9.546875 374.65625 9.496094 374.707031 9.457031 374.773438 C 9.414062 374.84375 9.378906 374.921875 9.359375 375.007812 C 9.335938 375.09375 9.324219 375.1875 9.324219 375.28125 Z M 9.324219 375.28125 "/>
<path style=" stroke:none;fill-rule:nonzero;fill:rgb(90.196078%,90.196078%,90.196078%);fill-opacity:1;" d="M 49.910156 212.261719 C 49.644531 212.410156 49.425781 212.71875 49.304688 213.121094 C 49.183594 213.523438 49.167969 213.988281 49.261719 214.410156 L 64.101562 282.246094 C 64.195312 282.667969 64.390625 283.011719 64.644531 283.203125 C 64.898438 283.398438 65.1875 283.421875 65.453125 283.277344 L 151.8125 235.226562 C 152.078125 235.078125 152.296875 234.769531 152.417969 234.367188 C 152.539062 233.964844 152.554688 233.5 152.464844 233.082031 L 137.621094 165.242188 C 137.527344 164.820312 137.332031 164.476562 137.078125 164.285156 C 136.824219 164.089844 136.535156 164.066406 136.269531 164.210938 Z M 49.910156 212.261719 "/>
<path style=" stroke:none;fill-rule:nonzero;fill:rgb(100%,100%,100%);fill-opacity:1;" d="M 71.769531 273.484375 C 70.070312 273.484375 68.410156 272.648438 67.023438 271.09375 C 65.636719 269.539062 64.585938 267.339844 64.015625 264.800781 L 55.867188 228.230469 C 55.140625 224.972656 55.261719 221.390625 56.199219 218.273438 C 57.136719 215.15625 58.820312 212.757812 60.875 211.605469 L 104.519531 187.144531 C 112.691406 182.582031 121.667969 183.34375 129.484375 189.265625 C 137.300781 195.183594 143.316406 205.78125 146.210938 218.730469 C 146.9375 221.984375 146.816406 225.566406 145.878906 228.683594 C 144.941406 231.800781 143.257812 234.199219 141.203125 235.351562 L 74.5 272.738281 C 73.621094 273.234375 72.699219 273.484375 71.769531 273.484375 Z M 71.769531 273.484375 "/>
<path style=" stroke:none;fill-rule:nonzero;fill:rgb(90.196078%,90.196078%,90.196078%);fill-opacity:1;" d="M 129.648438 201.394531 L 90.566406 223.140625 C 90.015625 223.449219 89.335938 222.628906 89.042969 221.3125 C 88.75 219.996094 88.960938 218.679688 89.511719 218.375 L 128.59375 196.628906 C 129.144531 196.324219 129.828125 197.144531 130.117188 198.457031 C 130.410156 199.773438 130.199219 201.089844 129.648438 201.394531 Z M 129.648438 201.394531 "/>
<path style=" stroke:none;fill-rule:nonzero;fill:rgb(90.196078%,90.196078%,90.196078%);fill-opacity:1;" d="M 132.671875 215.058594 L 93.589844 236.804688 C 93.039062 237.113281 92.355469 236.292969 92.066406 234.976562 C 91.773438 233.660156 91.984375 232.34375 92.535156 232.039062 L 131.617188 210.292969 C 132.167969 209.988281 132.851562 210.804688 133.140625 212.121094 C 133.433594 213.4375 133.222656 214.753906 132.671875 215.058594 Z M 132.671875 215.058594 "/>
<path style=" stroke:none;fill-rule:nonzero;fill:rgb(89.411765%,89.411765%,89.411765%);fill-opacity:1;" d="M 85.28125 230.574219 C 85.699219 232.449219 85.902344 234.429688 85.882812 236.417969 C 85.871094 237.332031 85.816406 238.238281 85.710938 239.132812 C 85.378906 242.023438 84.570312 244.726562 83.367188 246.964844 C 82.164062 249.203125 80.609375 250.898438 78.863281 251.878906 C 77.113281 252.859375 75.234375 253.085938 73.410156 252.546875 C 71.589844 252.003906 69.890625 250.707031 68.484375 248.789062 C 68.34375 248.597656 68.203125 248.398438 68.070312 248.191406 C 66.921875 246.449219 66.039062 244.316406 65.484375 241.953125 C 64.929688 239.589844 64.722656 237.058594 64.875 234.546875 C 65.023438 232.039062 65.53125 229.617188 66.359375 227.460938 C 67.183594 225.308594 68.308594 223.480469 69.644531 222.113281 C 70.980469 220.746094 72.492188 219.875 74.070312 219.566406 C 75.648438 219.261719 77.25 219.523438 78.753906 220.339844 C 80.257812 221.152344 81.628906 222.496094 82.757812 224.269531 C 83.886719 226.042969 84.75 228.199219 85.28125 230.574219 Z M 85.28125 230.574219 "/>
<path style=" stroke:none;fill-rule:nonzero;fill:rgb(99.215686%,39.607843%,51.764706%);fill-opacity:1;" d="M 75.792969 238.6875 C 76.902344 238.6875 77.804688 237.257812 77.804688 235.496094 C 77.804688 233.734375 76.902344 232.304688 75.792969 232.304688 C 74.679688 232.304688 73.777344 233.734375 73.777344 235.496094 C 73.777344 237.257812 74.679688 238.6875 75.792969 238.6875 Z M 75.792969 238.6875 "/>
<path style=" stroke:none;fill-rule:nonzero;fill:rgb(24.705882%,23.921569%,33.72549%);fill-opacity:1;" d="M 68.070312 248.191406 C 68.585938 246.292969 69.195312 243.390625 70.609375 244.445312 C 71.308594 244.925781 72.5625 246.386719 73.070312 244.6875 L 77.046875 231.480469 C 77.125 231.234375 77.230469 231.011719 77.359375 230.832031 C 77.488281 230.652344 77.640625 230.515625 77.804688 230.425781 C 77.96875 230.34375 78.140625 230.308594 78.3125 230.328125 C 78.484375 230.351562 78.652344 230.425781 78.808594 230.550781 L 85.882812 236.417969 C 85.871094 237.332031 85.816406 238.238281 85.710938 239.132812 L 68.484375 248.789062 Z M 68.070312 248.191406 "/>
<path style=" stroke:none;fill-rule:nonzero;fill:rgb(100%,71.372549%,71.372549%);fill-opacity:1;" d="M 70.121094 209.183594 C 69.625 208.875 69.175781 208.402344 68.804688 207.789062 C 68.4375 207.175781 68.15625 206.441406 67.984375 205.640625 C 67.816406 204.839844 67.757812 203.988281 67.816406 203.144531 C 67.875 202.304688 68.050781 201.492188 68.328125 200.769531 L 59.320312 149.972656 L 67.222656 148.664062 L 73.589844 199.003906 C 74.324219 199.828125 74.84375 201.046875 75.050781 202.433594 C 75.257812 203.824219 75.136719 205.285156 74.707031 206.539062 C 74.28125 207.792969 73.578125 208.753906 72.730469 209.242188 C 71.886719 209.730469 70.957031 209.710938 70.121094 209.183594 Z M 70.121094 209.183594 "/>
<path style=" stroke:none;fill-rule:nonzero;fill:rgb(10.196078%,62.352941%,100%);fill-opacity:1;" d="M 57.988281 122.085938 C 57.988281 122.085938 56.058594 122.195312 57.015625 128.503906 C 57.777344 133.550781 60.578125 165.21875 62.769531 171.535156 C 62.296875 172.210938 61.980469 173.117188 61.867188 174.109375 C 61.753906 175.105469 61.855469 176.128906 62.148438 177.023438 L 70.882812 171.3125 C 71.605469 168.121094 71.046875 165.222656 70.21875 164.964844 L 69.199219 155.726562 L 67.695312 124.746094 L 59.382812 121.96875 Z M 57.988281 122.085938 "/>
<path style=" stroke:none;fill-rule:nonzero;fill:rgb(10.196078%,62.352941%,100%);fill-opacity:1;" d="M 136.652344 255.742188 L 124.578125 256.535156 C 124.320312 256.550781 124.0625 256.476562 123.824219 256.316406 C 123.589844 256.152344 123.378906 255.90625 123.207031 255.597656 C 123.042969 255.292969 122.921875 254.9375 122.851562 254.550781 C 122.785156 254.164062 122.773438 253.757812 122.820312 253.363281 C 123.746094 245.347656 123.476562 237.101562 122.03125 229.28125 C 121.921875 228.683594 121.945312 228.042969 122.097656 227.46875 C 122.25 226.894531 122.523438 226.421875 122.871094 226.132812 C 127.820312 222.054688 132.453125 221.847656 136.648438 225.515625 C 136.867188 225.707031 137.058594 225.96875 137.207031 226.289062 C 137.355469 226.605469 137.460938 226.972656 137.511719 227.359375 C 138.601562 235.894531 138.863281 244.640625 138.285156 253.296875 C 138.246094 253.949219 138.058594 254.554688 137.761719 255.003906 C 137.460938 255.453125 137.066406 255.714844 136.652344 255.742188 Z M 136.652344 255.742188 "/>
<path style=" stroke:none;fill-rule:nonzero;fill:rgb(100%,100%,100%);fill-opacity:1;" d="M 136.144531 243.207031 L 126.910156 243.8125 C 126.796875 243.820312 126.679688 243.789062 126.574219 243.730469 C 126.46875 243.667969 126.367188 243.570312 126.285156 243.449219 C 126.203125 243.328125 126.132812 243.179688 126.085938 243.015625 C 126.039062 242.851562 126.011719 242.675781 126.007812 242.496094 C 126 242.3125 126.019531 242.132812 126.058594 241.964844 C 126.097656 241.796875 126.15625 241.640625 126.234375 241.507812 C 126.3125 241.371094 126.40625 241.265625 126.507812 241.191406 C 126.609375 241.113281 126.722656 241.070312 126.835938 241.066406 L 136.070312 240.457031 C 136.183594 240.449219 136.300781 240.476562 136.40625 240.539062 C 136.511719 240.601562 136.609375 240.695312 136.695312 240.820312 C 136.777344 240.941406 136.847656 241.089844 136.894531 241.253906 C 136.941406 241.417969 136.96875 241.59375 136.972656 241.773438 C 136.976562 241.957031 136.960938 242.132812 136.921875 242.304688 C 136.882812 242.472656 136.820312 242.628906 136.746094 242.761719 C 136.667969 242.894531 136.574219 243.003906 136.472656 243.078125 C 136.367188 243.15625 136.257812 243.199219 136.144531 243.207031 Z M 136.144531 243.207031 "/>
<path style=" stroke:none;fill-rule:nonzero;fill:rgb(100%,100%,100%);fill-opacity:1;" d="M 136.015625 238.386719 L 126.78125 238.996094 C 126.554688 239.007812 126.328125 238.878906 126.160156 238.632812 C 125.992188 238.386719 125.890625 238.042969 125.882812 237.679688 C 125.871094 237.3125 125.953125 236.957031 126.109375 236.691406 C 126.265625 236.421875 126.480469 236.261719 126.710938 236.246094 L 135.945312 235.640625 C 136.175781 235.625 136.398438 235.753906 136.566406 236.003906 C 136.738281 236.25 136.839844 236.59375 136.847656 236.957031 C 136.855469 237.320312 136.773438 237.675781 136.617188 237.945312 C 136.464844 238.210938 136.246094 238.371094 136.015625 238.386719 Z M 136.015625 238.386719 "/>
<path style=" stroke:none;fill-rule:nonzero;fill:rgb(10.196078%,62.352941%,100%);fill-opacity:1;" d="M 357.53125 105.921875 L 345.546875 103.425781 C 345.289062 103.375 345.042969 103.230469 344.828125 103.007812 C 344.613281 102.78125 344.429688 102.484375 344.296875 102.132812 C 344.164062 101.789062 344.085938 101.40625 344.0625 101.003906 C 344.035156 100.605469 344.070312 100.203125 344.15625 99.828125 C 345.933594 92.183594 346.558594 83.984375 345.976562 75.886719 C 345.929688 75.269531 346.023438 74.640625 346.234375 74.117188 C 346.449219 73.59375 346.769531 73.203125 347.144531 73.011719 C 352.457031 70.335938 357.046875 71.390625 360.78125 76.140625 C 360.976562 76.386719 361.136719 76.695312 361.25 77.050781 C 361.363281 77.40625 361.425781 77.792969 361.433594 78.191406 C 361.589844 86.894531 360.90625 95.582031 359.402344 103.957031 C 359.292969 104.585938 359.042969 105.132812 358.699219 105.496094 C 358.355469 105.855469 357.9375 106.007812 357.53125 105.921875 Z M 357.53125 105.921875 "/>
<path style=" stroke:none;fill-rule:nonzero;fill:rgb(100%,100%,100%);fill-opacity:1;" d="M 358.378906 93.429688 L 349.214844 91.523438 C 349.101562 91.5 348.992188 91.441406 348.894531 91.351562 C 348.796875 91.261719 348.710938 91.140625 348.640625 91 C 348.570312 90.855469 348.519531 90.691406 348.488281 90.519531 C 348.460938 90.34375 348.453125 90.160156 348.46875 89.984375 C 348.480469 89.804688 348.519531 89.632812 348.574219 89.476562 C 348.632812 89.320312 348.710938 89.179688 348.800781 89.070312 C 348.890625 88.960938 348.992188 88.878906 349.101562 88.832031 C 349.210938 88.785156 349.328125 88.773438 349.441406 88.796875 L 358.605469 90.703125 C 358.832031 90.753906 359.039062 90.941406 359.179688 91.230469 C 359.316406 91.519531 359.378906 91.886719 359.351562 92.246094 C 359.320312 92.609375 359.199219 92.9375 359.019531 93.15625 C 358.835938 93.378906 358.605469 93.476562 358.378906 93.429688 Z M 358.378906 93.429688 "/>
<path style=" stroke:none;fill-rule:nonzero;fill:rgb(100%,100%,100%);fill-opacity:1;" d="M 358.773438 88.648438 L 349.609375 86.742188 C 349.496094 86.722656 349.386719 86.664062 349.289062 86.574219 C 349.191406 86.480469 349.101562 86.363281 349.035156 86.21875 C 348.964844 86.074219 348.914062 85.914062 348.882812 85.738281 C 348.855469 85.5625 348.847656 85.382812 348.859375 85.203125 C 348.875 85.023438 348.914062 84.847656 348.96875 84.691406 C 349.027344 84.535156 349.101562 84.398438 349.191406 84.289062 C 349.285156 84.179688 349.386719 84.097656 349.496094 84.050781 C 349.605469 84.003906 349.722656 83.992188 349.835938 84.019531 L 359 85.921875 C 359.113281 85.945312 359.222656 86.003906 359.320312 86.09375 C 359.417969 86.183594 359.503906 86.304688 359.574219 86.449219 C 359.644531 86.59375 359.695312 86.753906 359.726562 86.929688 C 359.753906 87.105469 359.761719 87.285156 359.746094 87.464844 C 359.734375 87.644531 359.695312 87.816406 359.640625 87.976562 C 359.582031 88.132812 359.507812 88.269531 359.414062 88.378906 C 359.324219 88.488281 359.222656 88.570312 359.109375 88.617188 C 359 88.664062 358.886719 88.671875 358.773438 88.648438 Z M 358.773438 88.648438 "/>
<path style=" stroke:none;fill-rule:nonzero;fill:rgb(100%,100%,100%);fill-opacity:1;" d="M 197.890625 142.757812 L 193.898438 142.757812 L 193.898438 136.429688 C 193.898438 134.910156 193.519531 133.453125 192.839844 132.378906 C 192.164062 131.304688 191.246094 130.703125 190.289062 130.703125 C 189.328125 130.703125 188.410156 131.304688 187.734375 132.378906 C 187.058594 133.453125 186.675781 134.910156 186.675781 136.429688 L 186.675781 142.757812 L 182.6875 142.757812 C 181.730469 142.757812 180.808594 143.359375 180.132812 144.433594 C 179.457031 145.507812 179.074219 146.964844 179.074219 148.484375 C 179.074219 150 179.457031 151.457031 180.132812 152.53125 C 180.808594 153.605469 181.730469 154.207031 182.6875 154.207031 L 186.675781 154.207031 L 186.675781 160.539062 C 186.675781 162.054688 187.058594 163.511719 187.734375 164.585938 C 188.410156 165.660156 189.328125 166.261719 190.289062 166.261719 C 191.246094 166.261719 192.164062 165.660156 192.839844 164.585938 C 193.519531 163.511719 193.898438 162.054688 193.898438 160.539062 L 193.898438 154.207031 L 197.890625 154.207031 C 198.847656 154.207031 199.765625 153.605469 200.441406 152.53125 C 201.117188 151.457031 201.5 150 201.5 148.484375 C 201.5 146.964844 201.117188 145.507812 200.441406 144.433594 C 199.765625 143.359375 198.847656 142.757812 197.890625 142.757812 Z M 197.890625 142.757812 "/>
<path style=" stroke:none;fill-rule:nonzero;fill:rgb(24.705882%,23.921569%,33.72549%);fill-opacity:1;" d="M 327.121094 25.636719 C 329.226562 25.636719 330.929688 22.933594 330.929688 19.601562 C 330.929688 16.269531 329.226562 13.570312 327.121094 13.570312 C 325.023438 13.570312 323.316406 16.269531 323.316406 19.601562 C 323.316406 22.933594 325.023438 25.636719 327.121094 25.636719 Z M 327.121094 25.636719 "/>
<path style=" stroke:none;fill-rule:nonzero;fill:rgb(24.705882%,23.921569%,33.72549%);fill-opacity:1;" d="M 93.386719 196.207031 C 95.488281 196.207031 97.191406 193.503906 97.191406 190.171875 C 97.191406 186.839844 95.488281 184.136719 93.386719 184.136719 C 91.285156 184.136719 89.578125 186.839844 89.578125 190.171875 C 89.578125 193.503906 91.285156 196.207031 93.386719 196.207031 Z M 93.386719 196.207031 "/>
</g>
</svg>
