<svg width="376" height="237" viewBox="0 0 376 237" fill="none" xmlns="http://www.w3.org/2000/svg">
<g clip-path="url(#clip0_519_446)">
<path d="M223.11 7.27078C250.178 -7.20636 284.533 0.383258 302.747 26.0532L302.127 26.4929C284.138 1.13983 250.203 -6.35423 223.468 7.941C221.197 9.15578 219.004 10.5124 216.903 12.0028C189.411 31.4945 182.908 69.7098 202.407 97.1914L201.787 97.6311C182.045 69.8079 188.629 31.1169 216.464 11.3831C218.591 9.87444 220.81 8.50097 223.11 7.27078Z" fill="#E6E6E6"/>
<path d="M366.506 69.1513L277.476 62.2281C276.094 62.119 274.812 61.4664 273.911 60.4135C273.009 59.3606 272.563 57.9933 272.669 56.6116L276.528 13.373C276.637 11.9915 277.29 10.7097 278.343 9.80882C279.397 8.90789 280.765 8.46141 282.147 8.56732L371.176 15.4906C372.559 15.5997 373.841 16.2522 374.742 17.3052C375.643 18.3581 376.09 19.7254 375.984 21.1071L372.124 64.3457C372.015 65.7271 371.363 67.0089 370.309 67.9098C369.256 68.8108 367.888 69.2573 366.506 69.1513Z" fill="#E6E6E6"/>
<path d="M345.476 59.3832C344.8 59.3832 344.122 59.3568 343.441 59.3039L285.904 54.8296C284.754 54.7402 283.632 54.4252 282.604 53.9025C281.575 53.3798 280.66 52.6596 279.909 51.7832C279.159 50.9068 278.589 49.8913 278.231 48.7946C277.874 47.698 277.736 46.5416 277.825 45.3917L279.137 28.5333C279.321 26.2117 280.418 24.0576 282.188 22.5436C283.958 21.0296 286.257 20.2793 288.58 20.4573L362.982 26.2431C365.304 26.4264 367.459 27.523 368.973 29.2923C370.488 31.0617 371.239 33.3593 371.061 35.6812C370.559 42.1239 367.647 48.141 362.905 52.5337C358.164 56.9263 351.941 59.3719 345.476 59.3832Z" fill="white"/>
<path d="M361.201 39.645L288.265 33.9731C288.113 33.9613 287.965 33.9197 287.829 33.8506C287.693 33.7816 287.572 33.6865 287.473 33.5707C287.374 33.455 287.299 33.3208 287.251 33.176C287.204 33.0311 287.186 32.8784 287.198 32.7265C287.21 32.5746 287.251 32.4265 287.32 32.2907C287.389 32.1549 287.485 32.0341 287.6 31.935C287.716 31.836 287.85 31.7607 287.995 31.7135C288.14 31.6663 288.293 31.6481 288.445 31.6599L361.381 37.3317C361.533 37.3435 361.681 37.3851 361.817 37.4542C361.953 37.5232 362.074 37.6183 362.173 37.7341C362.272 37.8499 362.348 37.984 362.395 38.1288C362.442 38.2737 362.46 38.4264 362.448 38.5783C362.437 38.7302 362.395 38.8783 362.326 39.0141C362.257 39.1499 362.162 39.2708 362.046 39.3698C361.93 39.4689 361.796 39.5441 361.651 39.5913C361.506 39.6386 361.353 39.6568 361.201 39.645Z" fill="#E6E6E6"/>
<path d="M330.916 41.8879L287.909 38.5435C287.602 38.5195 287.318 38.3746 287.118 38.1409C286.918 37.9071 286.819 37.6035 286.843 37.2969C286.867 36.9902 287.011 36.7056 287.245 36.5056C287.479 36.3055 287.782 36.2065 288.089 36.2301L331.096 39.5745C331.248 39.5863 331.396 39.6278 331.532 39.6968C331.668 39.7659 331.789 39.861 331.889 39.9767C331.988 40.0925 332.063 40.2267 332.11 40.3716C332.158 40.5165 332.176 40.6693 332.164 40.8213C332.152 40.9732 332.111 41.1214 332.041 41.2572C331.972 41.3931 331.877 41.514 331.761 41.613C331.645 41.7121 331.511 41.7874 331.366 41.8345C331.221 41.8817 331.068 41.8998 330.916 41.8879Z" fill="#E6E6E6"/>
<path d="M340.39 47.2227L287.553 43.1139C287.401 43.1022 287.253 43.0606 287.117 42.9916C286.981 42.9226 286.86 42.8275 286.761 42.7117C286.662 42.5959 286.587 42.4618 286.539 42.3168C286.492 42.1719 286.474 42.0191 286.486 41.8672C286.497 41.7152 286.539 41.5671 286.608 41.4312C286.677 41.2954 286.773 41.1745 286.888 41.0754C287.004 40.9764 287.139 40.9011 287.284 40.8539C287.429 40.8068 287.581 40.7886 287.733 40.8005L340.57 44.9093C340.877 44.9334 341.161 45.0782 341.361 45.312C341.561 45.5457 341.66 45.8493 341.637 46.1559C341.613 46.4626 341.468 46.7472 341.234 46.9473C341 47.1473 340.697 47.2464 340.39 47.2227Z" fill="#E6E6E6"/>
<path d="M360.548 127.847L271.519 120.924C270.137 120.815 268.854 120.162 267.953 119.109C267.052 118.056 266.605 116.689 266.711 115.307L270.571 72.0688C270.68 70.6873 271.332 69.4055 272.386 68.5046C273.439 67.6037 274.807 67.1572 276.189 67.2631L365.219 74.1864C366.601 74.2955 367.883 74.948 368.785 76.001C369.686 77.0539 370.133 78.4212 370.027 79.8029L366.167 123.041C366.058 124.423 365.405 125.705 364.352 126.606C363.298 127.507 361.93 127.953 360.548 127.847Z" fill="#E6E6E6"/>
<path d="M339.495 118.078C338.829 118.078 338.159 118.052 337.484 118L279.947 113.525C278.796 113.436 277.675 113.121 276.646 112.598C275.618 112.076 274.702 111.355 273.952 110.479C273.202 109.603 272.631 108.587 272.274 107.49C271.916 106.394 271.778 105.237 271.868 104.087L273.18 87.2292C273.269 86.0792 273.585 84.958 274.107 83.9298C274.63 82.9015 275.351 81.9863 276.228 81.2364C277.105 80.4865 278.121 79.9165 279.218 79.5591C280.315 79.2016 281.472 79.0637 282.622 79.1532L357.024 84.939C358.174 85.0284 359.296 85.3435 360.325 85.8662C361.353 86.3889 362.269 87.1091 363.019 87.9855C363.769 88.8619 364.339 89.8774 364.697 90.9741C365.055 92.0708 365.192 93.2271 365.103 94.3771C364.593 100.821 361.676 106.837 356.931 111.228C352.186 115.62 345.962 118.065 339.495 118.078Z" fill="white"/>
<path d="M355.244 98.3408L282.307 92.6689C282.155 92.6571 282.007 92.6155 281.871 92.5464C281.736 92.4774 281.615 92.3823 281.516 92.2665C281.416 92.1508 281.341 92.0166 281.294 91.8718C281.247 91.7269 281.228 91.5742 281.24 91.4223C281.252 91.2704 281.294 91.1224 281.363 90.9865C281.432 90.8507 281.527 90.7299 281.643 90.6308C281.759 90.5318 281.893 90.4565 282.038 90.4093C282.183 90.3621 282.335 90.3439 282.487 90.3557L355.424 96.0275C355.576 96.0393 355.724 96.0809 355.86 96.15C355.996 96.219 356.117 96.3141 356.216 96.4299C356.315 96.5457 356.39 96.6798 356.437 96.8246C356.485 96.9695 356.503 97.1222 356.491 97.2741C356.479 97.426 356.437 97.5741 356.368 97.7099C356.299 97.8457 356.204 97.9666 356.088 98.0656C355.973 98.1647 355.838 98.2399 355.693 98.2871C355.549 98.3344 355.396 98.3526 355.244 98.3408Z" fill="#E6E6E6"/>
<path d="M324.959 100.584L281.952 97.2393C281.8 97.2276 281.651 97.186 281.515 97.117C281.379 97.048 281.258 96.9529 281.159 96.8371C281.06 96.7213 280.985 96.5871 280.938 96.4422C280.89 96.2973 280.872 96.1445 280.884 95.9926C280.896 95.8406 280.937 95.6925 281.006 95.5566C281.076 95.4208 281.171 95.2998 281.287 95.2008C281.403 95.1017 281.537 95.0265 281.682 94.9793C281.827 94.9321 281.98 94.914 282.132 94.9259L325.139 98.2703C325.445 98.2944 325.73 98.4392 325.93 98.6729C326.13 98.9067 326.229 99.2103 326.205 99.5169C326.181 99.8236 326.037 100.108 325.803 100.308C325.569 100.508 325.265 100.607 324.959 100.584Z" fill="#E6E6E6"/>
<path d="M334.432 105.918L281.596 101.81C281.289 101.786 281.004 101.641 280.804 101.407C280.604 101.173 280.505 100.87 280.529 100.563C280.553 100.256 280.697 99.9715 280.931 99.7715C281.165 99.5714 281.469 99.4724 281.776 99.4963L334.613 103.605C334.919 103.629 335.204 103.774 335.404 104.007C335.605 104.241 335.704 104.545 335.68 104.852C335.656 105.159 335.511 105.443 335.277 105.643C335.043 105.843 334.739 105.942 334.432 105.918Z" fill="#E6E6E6"/>
<path d="M134.082 105.256C132.952 102.696 132.338 99.9388 132.274 97.1413C132.21 94.3439 132.697 91.5613 133.709 88.9524C134.721 86.3434 136.237 83.9592 138.171 81.9359C140.104 79.9126 142.418 78.2898 144.979 77.1601C147.54 76.0305 150.298 75.4161 153.097 75.3521C155.895 75.2881 158.679 75.7758 161.289 76.7872C163.899 77.7986 166.284 79.3139 168.308 81.2468C170.333 83.1796 171.956 85.492 173.086 88.052L172.391 88.3589C171.301 85.8902 169.735 83.6603 167.783 81.7964C165.831 79.9325 163.531 78.4712 161.014 77.4958C158.497 76.5205 155.813 76.0503 153.114 76.112C150.416 76.1737 147.755 76.7661 145.286 77.8554C142.816 78.9448 140.585 80.5097 138.721 82.4608C136.856 84.412 135.394 86.7111 134.418 89.227C133.442 91.7429 132.972 94.4263 133.034 97.1239C133.096 99.8215 133.688 102.481 134.778 104.949L134.082 105.256Z" fill="#E6E6E6"/>
<path d="M355.034 224.084C363.738 219.962 370.22 211.667 369.209 202.552C361.401 208.872 350.77 212.401 339.796 212.317C335.521 212.284 330.734 211.849 327.628 214.247C325.695 215.739 324.824 218.107 324.713 220.468C324.603 222.829 325.176 225.218 325.745 227.577L325.572 228.135C335.791 228.786 346.33 228.207 355.034 224.084Z" fill="#F2F2F2"/>
<path d="M368.995 202.529C365.628 209.095 359.792 214.567 352.539 217.77C350.95 218.511 349.258 219.008 347.52 219.244C345.751 219.429 343.962 219.195 342.299 218.562C340.723 217.997 339.169 217.26 337.497 217.036C336.679 216.922 335.846 216.974 335.048 217.189C334.25 217.404 333.504 217.778 332.853 218.288C331.309 219.489 330.387 221.151 329.552 222.808C328.625 224.649 327.696 226.576 325.881 227.83C325.661 227.982 325.967 228.299 326.187 228.147C329.345 225.964 329.801 222.018 332.311 219.375C332.901 218.708 333.635 218.183 334.457 217.839C335.279 217.496 336.169 217.342 337.058 217.391C338.764 217.517 340.367 218.275 341.959 218.86C343.577 219.498 345.314 219.783 347.052 219.695C348.803 219.541 350.519 219.105 352.132 218.404C355.639 216.944 358.885 214.925 361.744 212.425C364.902 209.695 367.51 206.386 369.426 202.677C369.542 202.451 369.11 202.304 368.995 202.529Z" fill="white"/>
<path d="M354.969 216.845C355.885 217.925 357.116 218.694 358.489 219.043C359.862 219.391 361.31 219.304 362.631 218.792C362.885 218.685 362.678 218.314 362.424 218.421C361.195 218.9 359.846 218.981 358.568 218.654C357.29 218.327 356.147 217.608 355.299 216.597C355.121 216.381 354.792 216.63 354.969 216.845Z" fill="white"/>
<path d="M343.065 218.94C343.234 217.657 343.672 216.425 344.351 215.324C345.031 214.223 345.936 213.279 347.006 212.553C347.226 212.4 346.919 212.084 346.7 212.236C345.588 212.994 344.648 213.979 343.944 215.126C343.24 216.273 342.787 217.557 342.615 218.891C342.584 219.146 343.034 219.193 343.065 218.94Z" fill="white"/>
<path d="M364.386 209.416C363.967 209.094 363.638 208.671 363.429 208.187C363.22 207.702 363.138 207.172 363.191 206.648C363.226 206.394 362.775 206.347 362.741 206.599C362.685 207.179 362.776 207.764 363.005 208.3C363.235 208.835 363.596 209.304 364.055 209.664C364.097 209.704 364.15 209.73 364.208 209.736C364.266 209.742 364.324 209.729 364.373 209.698C364.395 209.682 364.412 209.661 364.425 209.637C364.437 209.613 364.444 209.587 364.445 209.56C364.446 209.533 364.442 209.506 364.431 209.481C364.421 209.456 364.405 209.434 364.386 209.416Z" fill="white"/>
<path d="M340.493 183.279C340.466 183.437 340.44 183.594 340.409 183.753C340.037 185.864 339.468 187.936 338.71 189.941C338.654 190.097 338.595 190.254 338.534 190.408C336.617 195.263 333.701 199.662 329.976 203.32C328.459 204.815 326.822 206.183 325.082 207.412C322.656 209.128 319.857 210.804 318.322 213.115C318.16 213.353 318.014 213.603 317.886 213.862L324.801 227.847C324.834 227.873 324.864 227.9 324.897 227.926L325.145 228.494C325.241 228.436 325.34 228.374 325.436 228.316C325.492 228.282 325.546 228.246 325.602 228.212C325.639 228.189 325.676 228.165 325.71 228.146C325.723 228.139 325.735 228.131 325.744 228.124C325.779 228.105 325.808 228.084 325.84 228.066C326.39 227.72 326.937 227.37 327.483 227.016C327.486 227.014 327.486 227.014 327.488 227.01C331.636 224.299 335.537 221.236 338.742 217.701C338.838 217.595 338.938 217.488 339.031 217.375C340.456 215.786 341.732 214.071 342.843 212.249C343.441 211.259 343.982 210.235 344.463 209.182C345.695 206.462 346.426 203.541 346.618 200.561C347.009 194.592 345.238 188.42 340.834 183.642C340.721 183.519 340.61 183.4 340.493 183.279Z" fill="#F2F2F2"/>
<path d="M340.316 183.374C342.243 190.758 341.579 198.544 338.318 205.17C337.64 206.641 336.705 207.98 335.558 209.125C334.33 210.25 332.82 211.023 331.188 211.36C329.625 211.73 327.962 211.943 326.559 212.654C325.871 212.998 325.273 213.501 324.816 214.12C324.359 214.74 324.056 215.459 323.93 216.218C323.586 218.069 324.022 219.975 324.519 221.831C325.072 223.892 325.681 226.027 325.172 228.07C325.11 228.317 325.553 228.42 325.615 228.173C326.502 224.62 324.171 221.027 324.26 217.433C324.301 215.755 324.913 214.121 326.471 213.191C327.833 212.379 329.547 212.158 331.134 211.796C332.738 211.484 334.241 210.785 335.513 209.76C336.724 208.68 337.718 207.379 338.442 205.927C340.101 202.728 341.167 199.255 341.589 195.676C342.096 191.523 341.807 187.312 340.74 183.268C340.673 183.013 340.25 183.121 340.316 183.374Z" fill="white"/>
<path d="M339.51 203.076C342.355 203.966 345.373 202.901 346.565 200.598C346.683 200.371 346.277 200.168 346.159 200.395C345.042 202.552 342.249 203.52 339.59 202.687C339.31 202.6 339.232 202.989 339.51 203.076Z" fill="white"/>
<path d="M332.017 211.268C331.288 210.169 330.791 208.935 330.555 207.638C330.318 206.342 330.348 205.011 330.642 203.726C330.703 203.478 330.259 203.375 330.199 203.623C329.896 204.961 329.868 206.346 330.117 207.695C330.366 209.043 330.886 210.328 331.647 211.469C331.796 211.702 332.165 211.499 332.017 211.268Z" fill="white"/>
<path d="M341.529 191.7C340.971 191.636 340.433 191.451 339.954 191.156C339.476 190.862 339.068 190.465 338.76 189.995C338.614 189.761 338.246 189.964 338.39 190.197C338.733 190.715 339.184 191.152 339.712 191.479C340.24 191.805 340.833 192.013 341.45 192.088C341.572 192.103 341.686 192.059 341.711 191.945C341.718 191.889 341.703 191.832 341.669 191.786C341.635 191.741 341.585 191.71 341.529 191.7Z" fill="white"/>
<path d="M355.173 124.787L349.883 96.6371L339.498 82.9738L331.802 88.0034C332.889 93.8993 341.115 104.906 341.115 104.906L348.407 126.676C348.377 126.789 348.35 126.904 348.331 127.021C348.215 127.71 348.279 128.417 348.517 129.074C348.754 129.73 349.157 130.315 349.687 130.77C350.216 131.226 350.855 131.537 351.54 131.674C352.225 131.811 352.934 131.769 353.598 131.552C354.262 131.335 354.859 130.951 355.331 130.436C355.803 129.921 356.134 129.293 356.292 128.613C356.451 127.933 356.431 127.223 356.235 126.553C356.039 125.883 355.673 125.275 355.173 124.787Z" fill="#FFB8B8"/>
<path d="M332.008 90.9775L340.721 83.9085L340.738 83.8711C342.368 80.1798 338.749 73.8504 335.427 69.1907C334.33 67.6552 332.691 66.5932 330.841 66.2194C328.991 65.8457 327.068 66.1881 325.461 67.1774C324.28 67.9152 323.329 68.9684 322.716 70.218C322.103 71.4675 321.851 72.8637 321.99 74.2486L322.723 81.3004L332.008 90.9775Z" fill="#3F3D56"/>
<path d="M301.214 231.068L295.417 231.067L292.659 208.715L301.216 208.716L301.214 231.068Z" fill="#FFB8B8"/>
<path d="M302.693 229.176L301.062 229.176L294.691 226.586L291.276 229.175H291.276C289.346 229.175 287.496 229.942 286.131 231.306C284.767 232.669 284 234.519 284 236.448V236.684L302.693 236.685L302.693 229.176Z" fill="#2F2E41"/>
<path d="M326.938 231.068L321.141 231.067L318.383 208.715L326.939 208.716L326.938 231.068Z" fill="#FFB8B8"/>
<path d="M328.417 229.176L326.785 229.176L320.415 226.586L317 229.175H317C315.07 229.175 313.219 229.942 311.855 231.306C310.49 232.669 309.724 234.519 309.724 236.448V236.684L328.417 236.685L328.417 229.176Z" fill="#2F2E41"/>
<path d="M335.778 134.789C335.778 134.789 336.455 142.909 334.763 150.691C333.07 158.473 333.07 180.389 333.07 180.389L329.347 223.095L318.178 222.08L315.131 150.691L304.3 174.713L305.316 178.096L303.963 178.942C303.963 178.942 304.977 185.539 304.3 185.539C303.623 185.539 301.931 186.554 301.931 186.554L303.285 221.403L291.777 221.065L287.715 172.006L292.115 143.924L292.454 138.511L293.977 138.574L294.752 136.312L296.177 132.421L335.778 134.789Z" fill="#2F2E41"/>
<path d="M336.363 136.495L336.423 136.41C339.645 131.902 334.8 121.067 334.069 119.497L337.147 118.498L336.454 112.609L336.125 109.983L338.478 107.631L338.485 107.573L339.839 95.7311L341.807 87.866C342.549 84.8927 342.486 81.7757 341.624 78.8349C340.762 75.894 339.133 73.2354 336.904 71.1319L332.354 66.8434L326.824 58.6644H317.906L314.849 64.4376C311.884 65.1225 309.254 66.8252 307.416 69.2491C305.579 71.673 304.65 74.6646 304.792 77.7026L305.485 92.8439L302.772 111.696L302.77 115.108L299.717 118.499L300.384 121.831L298.061 122.827L297.035 127.612C296.61 128.172 293.808 131.908 293.808 132.929C293.808 133.082 293.921 133.23 294.164 133.395C296.074 134.687 306.63 137.323 311.302 135.454C316.278 133.465 336.061 136.449 336.26 136.479L336.363 136.495Z" fill="#3F3D56"/>
<path d="M258.815 236.548C258.814 236.667 258.862 236.782 258.946 236.867C259.03 236.952 259.145 237 259.264 237H365.795C365.915 237 366.03 236.952 366.115 236.868C366.199 236.783 366.247 236.668 366.247 236.548C366.247 236.428 366.199 236.313 366.115 236.228C366.03 236.143 365.915 236.096 365.795 236.096H259.267C259.147 236.095 259.033 236.143 258.948 236.227C258.863 236.311 258.815 236.426 258.815 236.545V236.548Z" fill="#CCCCCC"/>
<path d="M321.213 56.0242C327.736 56.0242 333.023 50.7387 333.023 44.2188C333.023 37.6988 327.736 32.4133 321.213 32.4133C314.691 32.4133 309.403 37.6988 309.403 44.2188C309.403 50.7387 314.691 56.0242 321.213 56.0242Z" fill="#FFB8B8"/>
<path d="M320.082 56.2154C321.911 56.1967 323.735 56.0219 325.534 55.6928C327.315 55.2826 331.246 52.2449 332.317 50.4503C333.112 49.117 333.59 47.0546 333.851 45.5593C334.203 43.5805 334.135 41.5498 333.652 39.5988C333.168 37.6478 332.281 35.82 331.046 34.2338C330.57 33.5692 329.923 33.0456 329.174 32.7184C329.108 32.6944 329.04 32.6734 328.971 32.6558C327.885 32.3999 326.9 31.8254 326.143 31.006C325.996 30.8402 325.837 30.6851 325.668 30.542C324.819 29.8623 323.821 29.3932 322.755 29.173C321.034 28.7598 318.572 29.2775 315.438 30.7131C313.863 31.4344 312.116 31.2332 310.769 30.9773C310.693 30.9647 310.615 30.9721 310.544 30.9988C310.472 31.0255 310.408 31.0705 310.359 31.1293C309.803 31.6788 309.06 31.9976 308.278 32.0215C307.8 32.0549 307.315 32.7306 306.73 33.6104C306.597 33.8102 306.442 34.0433 306.33 34.1855L306.307 33.9184L306.044 34.2238C305.631 34.7039 305.345 35.2808 305.215 35.9008C305.084 36.5208 305.113 37.1637 305.298 37.7697C305.483 38.3757 305.818 38.925 306.273 39.3666C306.727 39.8081 307.286 40.1275 307.897 40.295C308.382 40.4107 308.878 40.4765 309.376 40.4916C309.678 40.5109 309.991 40.5309 310.291 40.575C311.255 40.7466 312.158 41.1651 312.912 41.7896C313.666 42.4142 314.245 43.2235 314.593 44.1386C314.675 44.3501 314.804 44.5398 314.971 44.6933C315.138 44.8468 315.339 44.9598 315.556 45.0236C315.774 45.0875 316.004 45.1005 316.227 45.0616C316.451 45.0227 316.662 44.933 316.846 44.7994C317.151 44.5491 317.512 44.3762 317.898 44.2956C318.284 44.2149 318.684 44.2288 319.064 44.3362C319.394 44.5087 319.655 44.7895 319.803 45.1314C319.981 45.512 320.269 45.8308 320.63 46.0472C321.86 46.6412 322.015 49.4095 321.639 51.7303C321.276 53.9673 320.487 55.5991 319.72 55.6986C319.13 55.7751 319.063 55.8189 319.023 55.9246L318.987 56.0193L319.056 56.1052C319.386 56.2152 319.736 56.2528 320.082 56.2154Z" fill="#2F2E41"/>
<path d="M190.288 117.066C203.257 117.066 213.771 106.556 213.771 93.5916C213.771 80.6272 203.257 70.1174 190.288 70.1174C177.318 70.1174 166.804 80.6272 166.804 93.5916C166.804 106.556 177.318 117.066 190.288 117.066Z" fill="#1A9FFF"/>
<path d="M317.361 90.0983L309.615 85.1464C304.682 88.5568 298.016 100.572 298.016 100.572L281.144 116.152C280.441 116.273 279.783 116.576 279.234 117.032C278.686 117.488 278.268 118.08 278.021 118.749C277.775 119.418 277.709 120.14 277.831 120.843C277.952 121.545 278.256 122.203 278.713 122.751C279.17 123.298 279.763 123.716 280.432 123.961C281.102 124.207 281.824 124.272 282.527 124.15C283.229 124.027 283.887 123.722 284.435 123.265C284.982 122.808 285.399 122.215 285.644 121.545L309.157 105.171L317.361 90.0983Z" fill="#FFB8B8"/>
<path d="M316.623 92.1076L321.782 79.7303L319.916 72.8903C319.545 71.5488 318.806 70.3379 317.782 69.3943C316.759 68.4507 315.491 67.8121 314.124 67.5507C312.267 67.2087 310.35 67.5841 308.76 68.601C307.17 69.6178 306.026 71.2003 305.559 73.0283C304.146 78.5735 303.06 85.7822 305.914 88.6351L305.943 88.664L316.623 92.1076Z" fill="#3F3D56"/>
<path d="M16.1746 229.838C6.07562 224.657 -1.25145 214.644 0.280424 203.943C9.24264 211.68 21.634 216.235 34.5653 216.545C39.6019 216.666 45.2575 216.332 48.8271 219.273C51.0481 221.102 51.9867 223.925 52.0283 226.71C52.0698 229.496 51.306 232.289 50.5472 235.046L50.7303 235.711C38.6676 236.095 26.2737 235.02 16.1746 229.838Z" fill="#F2F2F2"/>
<path d="M0.53375 203.925C4.25394 211.785 10.9247 218.449 19.3494 222.493C21.1938 223.426 23.1686 224.074 25.2069 224.417C27.2847 224.701 29.4002 224.493 31.3826 223.808C33.2606 223.201 35.1186 222.392 37.0964 222.19C38.0649 222.086 39.0445 222.179 39.9764 222.462C40.9084 222.745 41.7737 223.213 42.5205 223.838C44.2954 225.31 45.3188 227.302 46.2406 229.286C47.2639 231.489 48.2863 233.794 50.378 235.34C50.6314 235.527 50.2588 235.888 50.0057 235.701C46.3665 233.012 45.977 228.346 43.1192 225.139C41.7857 223.642 39.9043 222.528 37.6005 222.625C35.586 222.709 33.6693 223.543 31.7725 224.172C29.8422 224.864 27.7859 225.134 25.7422 224.965C23.6841 224.718 21.6795 224.141 19.8057 223.255C15.729 221.405 11.9802 218.905 8.70575 215.853C5.08701 212.519 2.13904 208.524 0.020449 204.083C-0.108058 203.812 0.40608 203.655 0.53375 203.925Z" fill="white"/>
<path d="M16.5218 221.313C14.3078 223.837 10.4113 224.69 7.42263 223.32C7.1282 223.185 7.38574 222.756 7.68056 222.891C9.11073 223.501 10.6962 223.647 12.2139 223.309C13.7316 222.972 15.1052 222.167 16.1416 221.008C16.3594 220.76 16.7383 221.066 16.5218 221.313Z" fill="white"/>
<path d="M30.4667 224.225C30.316 222.708 29.8456 221.24 29.0865 219.918C28.3274 218.595 27.2967 217.449 26.0623 216.553C25.8097 216.365 26.1823 216.004 26.4346 216.192C27.7171 217.126 28.7869 218.322 29.5736 219.699C30.3604 221.077 30.8461 222.606 30.9988 224.185C31.0259 224.485 30.4938 224.524 30.4667 224.225Z" fill="white"/>
<path d="M5.70624 212.209C6.21131 211.846 6.61519 211.36 6.87959 210.797C7.14399 210.234 7.26013 209.613 7.21699 208.993C7.18549 208.693 7.71773 208.654 7.74902 208.952C7.79358 209.638 7.6646 210.323 7.374 210.946C7.0834 211.568 6.64055 212.107 6.08637 212.514C6.03608 212.56 5.97153 212.588 5.90323 212.593C5.83493 212.599 5.76689 212.58 5.71016 212.542C5.68566 212.522 5.66586 212.497 5.65215 212.468C5.63843 212.44 5.63113 212.408 5.63075 212.377C5.63038 212.345 5.63694 212.314 5.64999 212.285C5.66303 212.256 5.68222 212.23 5.70624 212.209Z" fill="white"/>
<path d="M34.8284 182.312C34.8541 182.498 34.8799 182.685 34.9095 182.873C35.2694 185.374 35.8623 187.835 36.6805 190.226C36.7403 190.412 36.8042 190.599 36.8701 190.783C38.9473 196.574 42.2176 201.865 46.4693 206.313C48.2012 208.13 50.0783 209.804 52.0821 211.316C54.8751 213.428 58.1099 215.507 59.8316 218.287C60.0144 218.574 60.1768 218.873 60.3175 219.183L51.6491 235.399C51.6093 235.429 51.5733 235.46 51.5334 235.489L51.2195 236.149C51.1085 236.077 50.9952 236 50.8841 235.928C50.8195 235.887 50.7568 235.841 50.6921 235.8C50.6496 235.771 50.6072 235.742 50.5668 235.718C50.5526 235.709 50.5386 235.699 50.5284 235.691C50.488 235.667 50.4537 235.641 50.4173 235.619C49.7827 235.191 49.1507 234.758 48.5214 234.32C48.5173 234.319 48.5173 234.319 48.5152 234.314C43.7304 230.965 39.2495 227.211 35.6059 222.927C35.4964 222.798 35.3827 222.668 35.2771 222.532C33.6582 220.607 32.2193 218.539 30.9784 216.352C30.3101 215.163 29.7112 213.936 29.1847 212.678C27.8342 209.427 27.083 205.959 26.9671 202.442C26.7301 195.395 29.0475 188.19 34.4141 182.726C34.5514 182.586 34.687 182.45 34.8284 182.312Z" fill="#F2F2F2"/>
<path d="M35.0332 182.43C32.4884 191.056 32.9793 200.254 36.5734 208.181C37.3175 209.939 38.3681 211.552 39.6765 212.943C41.0816 214.315 42.8319 215.281 44.7418 215.739C46.5693 216.233 48.5192 216.546 50.1458 217.436C50.9441 217.867 51.6288 218.482 52.144 219.229C52.6593 219.975 52.9903 220.834 53.1102 221.733C53.4455 223.926 52.8613 226.155 52.2059 228.323C51.4782 230.73 50.6802 233.223 51.2043 235.648C51.2678 235.942 50.7416 236.047 50.6782 235.753C49.7663 231.534 52.6468 227.389 52.6762 223.151C52.6899 221.174 52.0308 219.226 50.23 218.072C48.6553 217.064 46.6449 216.74 44.7884 216.254C42.9107 215.828 41.166 214.948 39.7067 213.692C38.3203 212.375 37.1979 210.805 36.3993 209.068C34.564 205.237 33.4375 201.106 33.074 196.874C32.6326 191.963 33.1297 187.014 34.5389 182.289C34.6268 181.991 35.1205 182.134 35.0332 182.43Z" fill="white"/>
<path d="M35.247 205.669C31.8627 206.612 28.3475 205.244 27.0285 202.487C26.8985 202.215 27.3846 201.991 27.5147 202.263C28.7504 204.846 32.0041 206.09 35.1677 205.209C35.5006 205.116 35.5781 205.577 35.247 205.669Z" fill="white"/>
<path d="M43.7687 215.6C44.6677 214.333 45.2998 212.897 45.6266 211.378C45.9534 209.86 45.9681 208.291 45.6699 206.767C45.6075 206.472 46.1337 206.368 46.196 206.661C46.5029 208.248 46.4839 209.881 46.1403 211.461C45.7966 213.041 45.1354 214.534 44.1968 215.851C44.0127 216.119 43.5855 215.866 43.7687 215.6Z" fill="white"/>
<path d="M33.2935 192.192C33.9538 192.139 34.5942 191.94 35.1691 191.611C35.7439 191.282 36.2391 190.83 36.6193 190.288C36.7998 190.018 37.2267 190.271 37.0475 190.539C36.6249 191.137 36.0774 191.635 35.4428 192C34.8083 192.365 34.102 192.588 33.3729 192.653C33.2281 192.665 33.0951 192.61 33.0701 192.475C33.0642 192.408 33.084 192.342 33.1256 192.289C33.1671 192.237 33.2272 192.202 33.2935 192.192Z" fill="white"/>
<path d="M65.3802 101.036L66.1411 108.089L65.6934 117.337L86.1872 114.903L88.1129 101.036L85.6593 101.06L65.3802 101.036Z" fill="#FFB6B6"/>
<path d="M54.7507 229.086H59.2313L61.3638 211.811H54.7507V229.086Z" fill="#FFB6B6"/>
<path d="M53.2885 226.019L60.4467 225.591V228.657L67.2523 233.355C67.5884 233.587 67.8416 233.921 67.9748 234.307C68.108 234.693 68.1143 235.111 67.9927 235.501C67.8711 235.891 67.6281 236.232 67.299 236.474C66.97 236.716 66.5722 236.846 66.1637 236.846H57.6415L56.1726 233.814L55.5991 236.846H52.3859L53.2885 226.019Z" fill="#2F2E41"/>
<path d="M79.9188 229.086H84.3994L86.5315 211.811H79.9188V229.086Z" fill="#FFB6B6"/>
<path d="M78.4564 226.019L85.6147 225.591V228.657L92.4203 233.355C92.7564 233.587 93.0096 233.921 93.1428 234.307C93.276 234.693 93.2823 235.111 93.1607 235.501C93.0391 235.891 92.7961 236.232 92.467 236.474C92.138 236.716 91.7402 236.846 91.3317 236.846H82.8095L81.3406 233.814L80.767 236.846H77.5538L78.4564 226.019Z" fill="#2F2E41"/>
<path d="M52.8175 214.189H52.8662L53.7279 186.1C53.1702 185.025 52.8872 183.828 52.904 182.618C52.9209 181.407 53.237 180.219 53.8243 179.159L53.9476 178.936L53.6278 177.454C53.2169 175.55 53.4054 173.565 54.1675 171.772L54.9714 145.57C52.0994 126.965 65.7863 114.832 65.7863 114.832H86.2894L90.6911 129.949C93.6011 158.288 93.0731 185.904 88.4554 212.659L88.5813 212.723C89.0346 212.879 89.229 213.507 89.0156 214.125C88.8023 214.742 88.2618 215.117 87.8086 214.96L76.9806 214.584C76.5273 214.427 76.3328 213.8 76.5462 213.182C76.7596 212.564 77.3 212.19 77.7533 212.346L78.4895 212.718L76.9194 185.614L77.0937 180.663L76.7347 175.046L75.0749 149.783L68.7926 180.85L62.3755 214.501C62.5525 214.662 62.6767 214.872 62.7318 215.104C62.7869 215.336 62.7702 215.58 62.684 215.802C62.5978 216.025 62.446 216.216 62.2489 216.351C62.0517 216.485 61.8183 216.557 61.5795 216.556H52.8175C52.6618 216.556 52.5076 216.526 52.3637 216.467C52.2198 216.407 52.089 216.32 51.9788 216.21C51.8686 216.1 51.7812 215.97 51.7216 215.826C51.6619 215.682 51.6312 215.528 51.6312 215.372C51.6312 215.217 51.6619 215.063 51.7216 214.919C51.7812 214.775 51.8686 214.645 51.9788 214.535C52.089 214.425 52.2198 214.338 52.3637 214.278C52.5076 214.219 52.6618 214.189 52.8175 214.189Z" fill="#2F2E41"/>
<path d="M68.9589 64.9443C75.0326 64.9443 79.9562 60.0227 79.9562 53.9515C79.9562 47.8804 75.0326 42.9587 68.9589 42.9587C62.8853 42.9587 57.9617 47.8804 57.9617 53.9515C57.9617 60.0227 62.8853 64.9443 68.9589 64.9443Z" fill="#FFB6B6"/>
<path d="M20.7694 104.738C22.315 101.151 24.4374 97.8414 27.0526 94.94C24.8381 98.4678 23.5725 102.508 23.3784 106.668C24.1801 107.168 25.019 107.607 25.8877 107.98C28.4982 109.074 31.2816 109.699 34.1096 109.826C35.6339 104.75 38.2647 100.074 41.8129 96.1363C39.2558 100.213 37.9699 104.957 38.1188 109.766C41.2732 109.494 44.381 108.828 47.37 107.784C51.858 106.241 56.2143 103.936 59.318 100.351C62.677 96.4713 64.3325 91.3511 64.8671 86.2469C65.4017 81.1467 64.899 75.9986 64.3924 70.8943C64.153 68.4619 66.1796 65.6625 65.9402 63.2301H65.7806C64.7155 61.7705 63.6304 60.2752 63.1078 58.5445C62.5892 56.8178 62.7248 54.7802 63.9176 53.4203C64.5859 52.7099 65.4292 52.1873 66.3631 51.905C66.4509 51.7934 66.5466 51.6857 66.6463 51.578C68.4527 49.6602 70.5787 48.0707 72.9295 46.8806C71.234 48.1606 70.1011 49.6081 69.5745 51.1035C71.0425 50.7805 72.5106 50.4588 73.9787 50.1385C74.4693 49.6183 74.9859 49.1231 75.5265 48.6551C76.3124 47.9732 76.5717 47.9213 77.5092 47.2793C76.7523 47.9449 76.1656 48.7816 75.7978 49.7198C77.6847 49.2452 79.5717 48.5315 80.553 46.9085C82.1807 44.2247 80.2458 40.604 77.5451 39.0009C75.5805 37.8916 73.3168 37.4275 71.0739 37.6744C68.8311 37.9213 66.7226 38.8666 65.0466 40.3767C61.1411 37.5015 55.58 37.5494 51.2357 39.6987C48.3676 41.1812 45.897 43.3295 44.031 45.9634C45.1134 45.8245 46.203 45.7486 47.2942 45.7361C45.7581 45.9608 44.2954 46.5396 43.0217 47.4269C42.4582 48.3014 41.9415 49.2052 41.4738 50.1345C41.1667 50.7446 40.8768 51.3627 40.6042 51.9887C38.9327 55.793 37.8436 59.8445 36.7146 63.8481C35.3981 68.5137 33.9859 73.2111 31.5205 77.3862C27.7405 83.7348 21.7775 88.4905 14.7455 90.7649C14.1591 96.0406 16.7362 101.201 20.7694 104.738Z" fill="#2F2E41"/>
<path d="M80.0334 72.2956L77.899 71.4944L75.2076 67.1443L65.6205 67.9273L63.2902 72.5918L57.6766 76.877L60.1316 89.8008L63.9456 105.499L89.4771 102.309L89.4501 90.4916C89.4501 90.4916 94.0638 81.155 86.6111 77.6565L80.0334 72.2956Z" fill="#1A9FFF"/>
<path d="M119.388 113.288C118.892 113.487 118.359 113.574 117.826 113.545C117.292 113.516 116.772 113.37 116.301 113.118C115.831 112.865 115.421 112.513 115.101 112.086C114.781 111.658 114.559 111.166 114.45 110.643L85.9828 93.4244L91.1861 87.4233L117.533 106.236C118.423 106.111 119.328 106.317 120.077 106.815C120.825 107.313 121.365 108.069 121.594 108.938C121.822 109.807 121.724 110.73 121.318 111.532C120.911 112.333 120.224 112.958 119.388 113.288Z" fill="#FFB6B6"/>
<path d="M76.497 85.2594C76.497 85.2594 75.1366 86.6277 78.5502 88.8775C81.2831 90.6787 93.4728 99.5797 97.7939 100.988C97.7398 101.622 97.8985 102.256 98.2448 102.791C98.5911 103.325 99.1055 103.729 99.7068 103.939L103.619 95.345C102.772 93.3803 101.418 93.8352 100.705 94.2807L95.9798 90.7285L84.3766 79.1467L77.4628 84.2529L76.497 85.2594Z" fill="#1A9FFF"/>
<path d="M65.1163 40.6757C63.7945 42.6254 62.9406 44.8537 62.621 47.1872C62.3014 49.5207 62.5248 51.8965 63.2738 54.1296" fill="#FD6584"/>
<path d="M9.32337 236.548C9.32319 236.607 9.33477 236.666 9.35744 236.721C9.3801 236.776 9.41342 236.826 9.45545 236.868C9.49749 236.91 9.54741 236.943 9.60237 236.966C9.65733 236.989 9.71622 237 9.77566 237H116.303C116.423 237 116.538 236.952 116.623 236.868C116.708 236.783 116.756 236.668 116.756 236.548C116.756 236.428 116.708 236.313 116.623 236.228C116.538 236.143 116.423 236.096 116.303 236.096H9.77566C9.71622 236.096 9.65733 236.107 9.60238 236.13C9.54742 236.153 9.49749 236.186 9.45545 236.228C9.41342 236.27 9.38011 236.32 9.35744 236.375C9.33477 236.43 9.32319 236.488 9.32337 236.548Z" fill="#CCCCCC"/>
<path d="M49.9105 133.793C49.645 133.886 49.4275 134.081 49.3056 134.335C49.1837 134.588 49.1673 134.88 49.2602 135.146L64.1018 177.904C64.1953 178.17 64.3902 178.387 64.6439 178.509C64.8976 178.631 65.1893 178.647 65.455 178.554L151.813 148.267C152.078 148.174 152.296 147.979 152.418 147.725C152.54 147.472 152.556 147.18 152.463 146.915L137.621 104.156C137.528 103.89 137.333 103.673 137.079 103.551C136.826 103.429 136.534 103.413 136.268 103.506L49.9105 133.793Z" fill="#E6E6E6"/>
<path d="M71.7688 172.383C70.0693 172.383 68.4117 171.856 67.0236 170.876C65.6356 169.896 64.5853 168.51 64.017 166.909L55.8665 143.857C55.1405 141.804 55.2602 139.547 56.1992 137.582C57.1381 135.618 58.8195 134.106 60.8733 133.38L104.519 117.96C112.69 115.084 121.668 115.565 129.484 119.297C137.3 123.029 143.316 129.708 146.212 137.869C146.938 139.922 146.818 142.179 145.879 144.144C144.94 146.109 143.259 147.62 141.205 148.346L74.4981 171.913C73.6216 172.224 72.6986 172.383 71.7688 172.383Z" fill="white"/>
<path d="M129.648 126.944L90.5673 140.65C90.0167 140.844 89.3343 140.327 89.0431 139.498C88.7518 138.668 88.9622 137.839 89.5128 137.646L128.594 123.94C129.145 123.747 129.827 124.263 130.118 125.092C130.409 125.922 130.199 126.752 129.648 126.944Z" fill="#E6E6E6"/>
<path d="M132.671 135.556L93.5902 149.263C93.0395 149.456 92.3571 148.94 92.0659 148.11C91.7747 147.281 91.985 146.451 92.5356 146.258L131.617 132.552C132.167 132.359 132.85 132.875 133.141 133.705C133.432 134.534 133.222 135.363 132.671 135.556Z" fill="#E6E6E6"/>
<path d="M85.2793 145.336C85.6989 146.518 85.9028 147.766 85.8812 149.02C85.873 149.594 85.8162 150.166 85.7116 150.73C85.3784 152.553 84.5696 154.256 83.3669 155.667C82.1641 157.077 80.6101 158.146 78.8619 158.763C77.1138 159.381 75.2335 159.526 73.4111 159.184C71.5888 158.843 69.8891 158.026 68.4838 156.817C68.3418 156.695 68.2037 156.57 68.0693 156.441C66.9216 155.342 66.0378 153.997 65.4844 152.507C64.9309 151.018 64.7221 149.422 64.8736 147.84C65.0251 146.258 65.533 144.732 66.3591 143.374C67.1853 142.016 68.3082 140.864 69.6438 140.002C70.9793 139.14 72.4928 138.592 74.0705 138.398C75.6483 138.204 77.2495 138.371 78.7539 138.884C80.2583 139.397 81.627 140.244 82.7571 141.362C83.8872 142.479 84.7495 143.838 85.2793 145.336Z" fill="#E4E4E4"/>
<path d="M75.7917 150.45C76.9032 150.45 77.8042 149.549 77.8042 148.438C77.8042 147.327 76.9032 146.427 75.7917 146.427C74.6802 146.427 73.7792 147.327 73.7792 148.438C73.7792 149.549 74.6802 150.45 75.7917 150.45Z" fill="#FD6584"/>
<path d="M68.0693 156.441C68.586 155.242 69.1967 153.414 70.6112 154.079C71.31 154.382 72.5615 155.302 73.0697 154.232L77.0488 145.906C77.1242 145.751 77.2299 145.612 77.3597 145.498C77.4895 145.385 77.6408 145.298 77.8046 145.243C77.9684 145.189 78.1415 145.167 78.3137 145.181C78.4858 145.194 78.6536 145.241 78.8072 145.32L85.8813 149.02C85.873 149.594 85.8163 150.166 85.7117 150.73L68.4838 156.817L68.0693 156.441Z" fill="#3F3D56"/>
<path d="M70.1228 131.853C69.6251 131.659 69.1758 131.359 68.8066 130.973C68.4375 130.587 68.1574 130.125 67.9862 129.62C67.815 129.114 67.7569 128.577 67.8158 128.046C67.8747 127.516 68.0492 127.004 68.3272 126.549L59.3213 94.5303L67.2228 93.705L73.5907 125.437C74.3259 125.955 74.8456 126.724 75.0514 127.599C75.2572 128.474 75.1348 129.394 74.7073 130.185C74.2799 130.975 73.5771 131.582 72.7321 131.889C71.8872 132.197 70.9588 132.184 70.1228 131.853Z" fill="#FFB6B6"/>
<path d="M57.989 76.954C57.989 76.954 56.0604 77.0232 57.0137 80.9978C57.7769 84.1797 60.5798 104.141 62.7713 108.121C62.298 108.547 61.98 109.118 61.8673 109.745C61.7547 110.372 61.8539 111.018 62.1492 111.582L70.8817 107.982C71.607 105.969 71.0454 104.142 70.2205 103.98L69.2003 98.1586L67.6967 78.6297L59.3822 76.8792L57.989 76.954Z" fill="#1A9FFF"/>
<path d="M136.654 161.198L124.577 161.698C124.319 161.709 124.062 161.662 123.825 161.56C123.588 161.458 123.377 161.303 123.208 161.108C123.042 160.917 122.92 160.692 122.853 160.448C122.786 160.204 122.775 159.948 122.822 159.699C123.748 154.648 123.478 149.449 122.033 144.521C121.921 144.144 121.944 143.74 122.097 143.378C122.25 143.016 122.524 142.718 122.872 142.535C127.819 139.966 132.454 139.836 136.648 142.148C136.868 142.267 137.059 142.433 137.208 142.634C137.357 142.834 137.46 143.065 137.511 143.31C138.603 148.688 138.864 154.201 138.287 159.659C138.247 160.069 138.06 160.451 137.76 160.734C137.459 161.018 137.067 161.182 136.654 161.198Z" fill="#1A9FFF"/>
<path d="M136.143 153.297L126.909 153.679C126.795 153.684 126.681 153.666 126.574 153.627C126.467 153.588 126.369 153.528 126.285 153.451C126.202 153.374 126.134 153.281 126.086 153.178C126.038 153.075 126.011 152.963 126.006 152.849C126.001 152.735 126.019 152.622 126.058 152.515C126.097 152.408 126.157 152.31 126.235 152.226C126.312 152.142 126.405 152.075 126.508 152.027C126.611 151.979 126.723 151.952 126.837 151.948L136.071 151.565C136.185 151.56 136.299 151.578 136.406 151.617C136.512 151.657 136.611 151.716 136.694 151.793C136.778 151.871 136.846 151.963 136.894 152.067C136.942 152.17 136.969 152.281 136.973 152.395C136.978 152.509 136.96 152.622 136.921 152.729C136.882 152.836 136.822 152.934 136.745 153.018C136.668 153.102 136.575 153.169 136.472 153.217C136.369 153.265 136.257 153.292 136.143 153.297Z" fill="white"/>
<path d="M136.017 150.26L126.783 150.643C126.553 150.652 126.329 150.57 126.16 150.414C125.991 150.259 125.89 150.042 125.881 149.813C125.871 149.583 125.953 149.359 126.109 149.19C126.265 149.021 126.481 148.92 126.711 148.911L135.945 148.529C136.175 148.519 136.399 148.601 136.568 148.757C136.738 148.912 136.838 149.129 136.848 149.359C136.857 149.588 136.775 149.812 136.619 149.981C136.464 150.15 136.247 150.251 136.017 150.26Z" fill="white"/>
<path d="M357.53 66.7634L345.545 65.1922C345.289 65.1592 345.044 65.0686 344.828 64.9273C344.612 64.786 344.431 64.5976 344.298 64.3762C344.166 64.1602 344.085 63.9172 344.061 63.6655C344.037 63.4138 344.07 63.1598 344.158 62.9227C345.935 58.1039 346.558 52.9359 345.977 47.833C345.931 47.4426 346.023 47.0485 346.235 46.7179C346.448 46.3873 346.769 46.1406 347.143 46.02C352.456 44.3342 357.045 44.998 360.782 47.9923C360.978 48.1474 361.138 48.3435 361.251 48.5668C361.363 48.7901 361.426 49.0353 361.434 49.2852C361.59 54.7705 360.905 60.2474 359.402 65.5255C359.293 65.9232 359.043 66.2678 358.699 66.4954C358.354 66.723 357.939 66.8182 357.53 66.7634Z" fill="#1A9FFF"/>
<path d="M358.378 58.8912L349.214 57.6898C349.102 57.675 348.993 57.6382 348.894 57.5813C348.795 57.5245 348.709 57.4487 348.64 57.3585C348.57 57.2682 348.519 57.1652 348.49 57.0553C348.46 56.9454 348.453 56.8307 348.468 56.7179C348.482 56.6051 348.519 56.4962 348.576 56.3977C348.633 56.2991 348.709 56.2127 348.799 56.1433C348.889 56.074 348.992 56.0231 349.102 55.9936C349.212 55.9641 349.327 55.9565 349.44 55.9713L358.604 57.1728C358.832 57.2027 359.038 57.3218 359.178 57.5041C359.318 57.6864 359.38 57.9168 359.35 58.1447C359.321 58.3726 359.201 58.5793 359.019 58.7193C358.837 58.8593 358.606 58.9211 358.378 58.8912Z" fill="white"/>
<path d="M358.773 55.8778L349.61 54.6764C349.497 54.6618 349.388 54.6251 349.289 54.5683C349.19 54.5115 349.103 54.4358 349.034 54.3455C348.964 54.2552 348.913 54.1521 348.884 54.042C348.854 53.932 348.846 53.8172 348.861 53.7042C348.876 53.5912 348.913 53.4823 348.97 53.3836C349.027 53.2849 349.103 53.1985 349.193 53.1291C349.284 53.0598 349.387 53.009 349.497 52.9796C349.607 52.9502 349.722 52.9429 349.835 52.9579L358.999 54.1593C359.112 54.1739 359.221 54.2106 359.32 54.2674C359.419 54.3242 359.505 54.3999 359.575 54.4902C359.644 54.5805 359.695 54.6836 359.725 54.7937C359.755 54.9037 359.762 55.0185 359.747 55.1315C359.733 55.2444 359.696 55.3534 359.639 55.4521C359.582 55.5508 359.506 55.6372 359.415 55.7066C359.325 55.7759 359.222 55.8267 359.111 55.8561C359.001 55.8855 358.886 55.8928 358.773 55.8778Z" fill="white"/>
<path d="M197.889 89.9824H193.898V85.9934C193.898 85.0362 193.518 84.1182 192.841 83.4414C192.164 82.7645 191.245 82.3843 190.288 82.3843C189.33 82.3843 188.412 82.7645 187.735 83.4414C187.057 84.1182 186.677 85.0362 186.677 85.9934V89.9824H182.686C181.729 89.9824 180.81 90.3627 180.133 91.0395C179.456 91.7164 179.076 92.6344 179.076 93.5916C179.076 94.5488 179.456 95.4667 180.133 96.1436C180.81 96.8204 181.729 97.2007 182.686 97.2007H186.677V101.19C186.677 102.147 187.057 103.065 187.735 103.742C188.412 104.419 189.33 104.799 190.288 104.799C191.245 104.799 192.164 104.419 192.841 103.742C193.518 103.065 193.898 102.147 193.898 101.19V97.2007H197.889C198.846 97.2007 199.765 96.8204 200.442 96.1436C201.119 95.4667 201.499 94.5488 201.499 93.5916C201.499 92.6344 201.119 91.7164 200.442 91.0395C199.765 90.3627 198.846 89.9824 197.889 89.9824Z" fill="white"/>
<path d="M327.123 16.1593C329.225 16.1593 330.928 14.4565 330.928 12.3559C330.928 10.2553 329.225 8.55249 327.123 8.55249C325.022 8.55249 323.318 10.2553 323.318 12.3559C323.318 14.4565 325.022 16.1593 327.123 16.1593Z" fill="#3F3D56"/>
<path d="M93.3849 123.673C95.4864 123.673 97.1899 121.97 97.1899 119.87C97.1899 117.769 95.4864 116.066 93.3849 116.066C91.2835 116.066 89.58 117.769 89.58 119.87C89.58 121.97 91.2835 123.673 93.3849 123.673Z" fill="#3F3D56"/>
</g>
<defs>
<clipPath id="clip0_519_446">
<rect width="376" height="237" fill="white"/>
</clipPath>
</defs>
</svg>
