<svg width="17" height="17" viewBox="0 0 17 17" fill="none" xmlns="http://www.w3.org/2000/svg">
<path d="M3.77778 13.2222H10.3889V11.3333H3.77778V13.2222ZM3.77778 9.44444H13.2222V7.55555H3.77778V9.44444ZM3.77778 5.66667H13.2222V3.77778H3.77778V5.66667ZM1.88889 17C1.36944 17 0.924926 16.8152 0.555333 16.4456C0.185741 16.076 0.00062963 15.6312 0 15.1111V1.88889C0 1.36944 0.185111 0.924926 0.555333 0.555333C0.925556 0.185741 1.37007 0.00062963 1.88889 0H15.1111C15.6306 0 16.0754 0.185111 16.4456 0.555333C16.8158 0.925556 17.0006 1.37007 17 1.88889V15.1111C17 15.6306 16.8152 16.0754 16.4456 16.4456C16.076 16.8158 15.6312 17.0006 15.1111 17H1.88889ZM1.88889 15.1111H15.1111V1.88889H1.88889V15.1111Z" fill="#1A9FFF"/>
</svg>
