<?xml version="1.0" encoding="UTF-8"?><svg id="a" xmlns="http://www.w3.org/2000/svg" xmlns:xlink="http://www.w3.org/1999/xlink" viewBox="0 0 63.99 64"><defs><style>.o{fill:url(#b);}.o,.p,.q,.r,.s,.t{stroke-miterlimit:10;}.o,.s{stroke:#fff;stroke-width:.25px;}.u{fill:#fff;}.p{stroke:url(#m);}.p,.q,.r,.t{fill:none;}.q{stroke:url(#n);}.v{fill:url(#f);}.w{fill:url(#g);}.x{fill:url(#i);}.r{stroke:url(#l);}.y{fill:url(#h);}.a`{fill:url(#d);}.aa{fill:url(#e);}.s{fill:url(#c);}.ab{fill:url(#j);}.t{stroke:url(#k);}</style><linearGradient id="b" x1="10.18" y1="35.14" x2="53.81" y2="35.14" gradientTransform="matrix(1, 0, 0, 1, 0, 0)" gradientUnits="userSpaceOnUse"><stop offset="0" stop-color="#3cf2de"/><stop offset=".16" stop-color="#41e9e0"/><stop offset=".42" stop-color="#50d3e5"/><stop offset=".74" stop-color="#69aeef"/><stop offset="1" stop-color="#818cf8"/></linearGradient><linearGradient id="c" x1="16.19" y1="26.52" x2="47.38" y2="26.52" gradientTransform="matrix(1, 0, 0, 1, 0, 0)" gradientUnits="userSpaceOnUse"><stop offset="0" stop-color="#3cf2de"/><stop offset=".16" stop-color="#41e9e0"/><stop offset=".42" stop-color="#50d3e5"/><stop offset=".74" stop-color="#69aeef"/><stop offset="1" stop-color="#818cf8"/></linearGradient><linearGradient id="d" x1="16.19" y1="16.19" x2="47.38" y2="16.19" gradientTransform="matrix(1, 0, 0, 1, 0, 0)" gradientUnits="userSpaceOnUse"><stop offset="0" stop-color="#3cf2de" stop-opacity=".8"/><stop offset=".19" stop-color="#43e7e0" stop-opacity=".82"/><stop offset=".5" stop-color="#56cbe7" stop-opacity=".88"/><stop offset=".88" stop-color="#759cf3" stop-opacity=".97"/><stop offset="1" stop-color="#818cf8"/></linearGradient><linearGradient id="e" x1="16.31" y1="16.19" x2="47.25" y2="16.19" xlink:href="#d"/><linearGradient id="f" x1="16.31" y1="16.19" x2="47.25" y2="16.19" xlink:href="#d"/><linearGradient id="g" x1="16.31" y1="16.19" x2="47.25" y2="16.19" xlink:href="#d"/><linearGradient id="h" x1="16.31" y1="16.19" x2="47.25" y2="16.19" xlink:href="#d"/><linearGradient id="i" x1="16.31" y1="16.19" x2="47.25" y2="16.19" xlink:href="#d"/><linearGradient id="j" x1="16.31" y1="16.19" x2="47.25" y2="16.19" xlink:href="#d"/><linearGradient id="k" x1="0" y1="56.26" x2="15.47" y2="56.26" gradientTransform="matrix(1, 0, 0, 1, 0, 0)" gradientUnits="userSpaceOnUse"><stop offset="0" stop-color="#3cf2de" stop-opacity=".8"/><stop offset=".19" stop-color="#43e7e0" stop-opacity=".82"/><stop offset=".5" stop-color="#56cbe7" stop-opacity=".88"/><stop offset=".88" stop-color="#759cf3" stop-opacity=".97"/><stop offset="1" stop-color="#818cf8"/></linearGradient><linearGradient id="l" x1="48.52" x2="63.99" xlink:href="#k"/><linearGradient id="m" x1="48.52" y1="7.73" x2="63.99" y2="7.73" xlink:href="#k"/><linearGradient id="n" y1="7.73" y2="7.73" xlink:href="#k"/></defs><rect class="u" x="16.7" y="15.46" width="30.16" height="1.48"/><path class="o" d="M47.39,20.98h4.92c.83,0,1.5,.68,1.5,1.5v25.31c0,.83-.68,1.5-1.5,1.5H11.68c-.83,0-1.5-.68-1.5-1.5V22.48c0-.83,.68-1.5,1.5-1.5h4.51"/><path class="s" d="M47.38,18v15.92c0,.61-.48,1.11-1.07,1.11H17.26c-.59,0-1.07-.5-1.07-1.11v-15.92h31.19Z"/><path class="u" d="M22.73,29.31l-4.45-2.01v-.58l4.45-2.01v.62l-4.15,1.86v-.36l4.15,1.85v.63Z"/><path class="u" d="M23.65,30.2l-.58-.17,2.34-7.26,.59,.17-2.34,7.26Z"/><path class="u" d="M26.33,29.31v-.63l4.16-1.85v.36l-4.16-1.86v-.62l4.45,2.01v.58l-4.45,2.01Z"/><path class="u" d="M45.06,27.67l-.68-.67c-.19-.19-.18-.5,.03-.67l.73-.6c.13-.11,.19-.29,.15-.46-.09-.36-.21-.7-.37-1.01-.08-.16-.24-.26-.41-.25h-.95c-.27,.01-.48-.22-.45-.49l.09-.94c.02-.17-.07-.34-.22-.43-.31-.19-.64-.34-.98-.46-.17-.06-.35-.01-.47,.11l-.67,.68c-.19,.19-.5,.18-.67-.03l-.61-.73c-.11-.13-.29-.19-.46-.15-.36,.09-.7,.21-1.02,.37-.16,.08-.26,.24-.25,.41v.95c.01,.27-.22,.48-.49,.45l-.94-.09c-.17-.02-.34,.07-.43,.22-.19,.31-.34,.64-.46,.98-.06,.17-.01,.35,.11,.47l.68,.67c.19,.19,.18,.5-.03,.67l-.73,.6c-.13,.11-.19,.29-.15,.46,.09,.36,.21,.7,.37,1.01,.08,.16,.24,.26,.41,.25h.95c.27-.01,.48,.22,.45,.49l-.09,.94c-.02,.17,.07,.34,.22,.43,.31,.19,.64,.34,.98,.46,.17,.06,.35,.01,.47-.11l.67-.68c.19-.19,.5-.18,.67,.03l.61,.73c.11,.13,.29,.19,.46,.15,.36-.09,.7-.21,1.02-.37,.16-.08,.26-.24,.25-.41v-.95c-.01-.27,.22-.48,.49-.45l.94,.09c.17,.02,.34-.07,.43-.22,.19-.31,.34-.64,.46-.98,.06-.17,.01-.35-.11-.47Zm-4.78,1.15c-1.35-.04-2.41-1.11-2.37-2.4s1.16-2.29,2.5-2.25,2.41,1.11,2.37,2.4-1.16,2.29-2.5,2.25Z"/><path class="u" d="M50.25,44.68h-16.23c-.35,0-.64,.29-.64,.64s.29,.64,.64,.64h16.23c.35,0,.64-.29,.64-.64s-.29-.64-.64-.64h0Z"/><path class="u" d="M50.25,41.94h-12.39c-.35,0-.64,.29-.64,.64s.29,.64,.64,.64h12.39c.35,0,.64-.29,.64-.64s-.29-.64-.64-.64h0Z"/><path class="u" d="M50.25,39.2h-8.44c-.35,0-.64,.29-.64,.64s.29,.64,.64,.64h8.44c.35,0,.64-.29,.64-.64s-.29-.64-.64-.64h0Z"/><path class="u" d="M28.74,44.68H12.51c-.35,0-.64,.29-.64,.64s.29,.64,.64,.64H28.74c.35,0,.64-.29,.64-.64s-.29-.64-.64-.64h0Z"/><path class="u" d="M24.9,41.94H12.51c-.35,0-.64,.29-.64,.64s.29,.64,.64,.64h12.39c.35,0,.64-.29,.64-.64s-.29-.64-.64-.64h0Z"/><path class="u" d="M20.95,39.2H12.51c-.35,0-.64,.29-.64,.64s.29,.64,.64,.64h8.44c.35,0,.64-.29,.64-.64s-.29-.64-.64-.64h0Z"/><g><path class="a`" d="M16.19,18v-2.5c0-.61,.53-1.11,1.19-1.11h28.81c.66,0,1.19,.5,1.19,1.11v2.5H16.19Zm6.94-2.42c-.32,0-.57,.27-.57,.59s.26,.59,.57,.59,.57-.27,.57-.59-.26-.59-.57-.59Zm-2.55,0c-.32,0-.57,.27-.57,.59s.26,.59,.57,.59,.57-.27,.57-.59-.26-.59-.57-.59Zm-2.48,0c-.32,0-.57,.27-.57,.59s.26,.59,.57,.59,.57-.27,.57-.59-.26-.59-.57-.59Zm23,.23c-.21,0-.37,.17-.37,.39s.17,.39,.37,.39h3.68c.21,0,.37-.17,.37-.39s-.17-.39-.37-.39h-3.68Zm-1.97,0c-.2,0-.37,.17-.37,.39s.17,.39,.37,.39h.72c.21,0,.37-.17,.37-.39s-.17-.39-.37-.39h-.72Z"/><path class="u" d="M46.19,14.51c.58,0,1.06,.45,1.06,.99v2.38H16.31v-2.38c0-.54,.48-.99,1.06-.99h28.81m-23.06,2.38c.38,0,.7-.32,.7-.72s-.31-.72-.7-.72-.7,.32-.7,.72,.31,.72,.7,.72m-2.55,0c.38,0,.7-.32,.7-.72s-.31-.72-.7-.72-.7,.32-.7,.72,.31,.72,.7,.72m-2.48,0c.38,0,.7-.32,.7-.72s-.31-.72-.7-.72-.7,.32-.7,.72,.31,.72,.7,.72m23-.18h3.68c.27,0,.5-.23,.5-.51s-.22-.51-.5-.51h-3.68c-.27,0-.5,.23-.5,.51s.22,.51,.5,.51m-1.97,0h.72c.27,0,.5-.23,.5-.51s-.22-.51-.5-.51h-.72c-.27,0-.5,.23-.5,.51s.22,.51,.5,.51m7.07-2.45H17.38c-.72,0-1.31,.56-1.31,1.24v2.63h31.44v-2.63c0-.68-.59-1.24-1.31-1.24h0Zm-23.06,2.38c-.25,0-.45-.21-.45-.47s.2-.47,.45-.47,.45,.21,.45,.47-.2,.47-.45,.47h0Zm-2.55,0c-.25,0-.45-.21-.45-.47s.2-.47,.45-.47,.45,.21,.45,.47-.2,.47-.45,.47h0Zm-2.48,0c-.25,0-.45-.21-.45-.47s.2-.47,.45-.47,.45,.21,.45,.47-.2,.47-.45,.47h0Zm23-.18c-.14,0-.25-.12-.25-.26s.11-.26,.25-.26h3.68c.14,0,.25,.12,.25,.26s-.11,.26-.25,.26h-3.68Zm-1.97,0c-.14,0-.25-.12-.25-.26s.11-.26,.25-.26h.72c.14,0,.25,.12,.25,.26s-.11,.26-.25,.26h-.72Z"/><path class="aa" d="M46.19,14.51H17.38c-.58,0-1.06,.45-1.06,.99v2.38h30.94v-2.38c0-.54-.48-.99-1.06-.99Zm-28.1,2.38c-.38,0-.7-.32-.7-.72s.31-.72,.7-.72,.7,.32,.7,.72-.31,.72-.7,.72Zm2.48,0c-.38,0-.7-.32-.7-.72s.31-.72,.7-.72,.7,.32,.7,.72-.31,.72-.7,.72Zm2.55,0c-.38,0-.7-.32-.7-.72s.31-.72,.7-.72,.7,.32,.7,.72-.31,.72-.7,.72Zm16.71-.18h-.72c-.27,0-.5-.23-.5-.51s.22-.51,.5-.51h.72c.27,0,.5,.23,.5,.51s-.22,.51-.5,.51Zm4.93,0h-3.68c-.27,0-.5-.23-.5-.51s.22-.51,.5-.51h3.68c.27,0,.5,.23,.5,.51s-.22,.51-.5,.51Z"/><path class="v" d="M46.19,14.51H17.38c-.58,0-1.06,.45-1.06,.99v2.38h30.94v-2.38c0-.54-.48-.99-1.06-.99Zm-28.1,2.38c-.38,0-.7-.32-.7-.72s.31-.72,.7-.72,.7,.32,.7,.72-.31,.72-.7,.72Zm2.48,0c-.38,0-.7-.32-.7-.72s.31-.72,.7-.72,.7,.32,.7,.72-.31,.72-.7,.72Zm2.55,0c-.38,0-.7-.32-.7-.72s.31-.72,.7-.72,.7,.32,.7,.72-.31,.72-.7,.72Zm16.71-.18h-.72c-.27,0-.5-.23-.5-.51s.22-.51,.5-.51h.72c.27,0,.5,.23,.5,.51s-.22,.51-.5,.51Zm4.93,0h-3.68c-.27,0-.5-.23-.5-.51s.22-.51,.5-.51h3.68c.27,0,.5,.23,.5,.51s-.22,.51-.5,.51Z"/><path class="w" d="M46.19,14.51H17.38c-.58,0-1.06,.45-1.06,.99v2.38h30.94v-2.38c0-.54-.48-.99-1.06-.99Zm-28.1,2.38c-.38,0-.7-.32-.7-.72s.31-.72,.7-.72,.7,.32,.7,.72-.31,.72-.7,.72Zm2.48,0c-.38,0-.7-.32-.7-.72s.31-.72,.7-.72,.7,.32,.7,.72-.31,.72-.7,.72Zm2.55,0c-.38,0-.7-.32-.7-.72s.31-.72,.7-.72,.7,.32,.7,.72-.31,.72-.7,.72Zm16.71-.18h-.72c-.27,0-.5-.23-.5-.51s.22-.51,.5-.51h.72c.27,0,.5,.23,.5,.51s-.22,.51-.5,.51Zm4.93,0h-3.68c-.27,0-.5-.23-.5-.51s.22-.51,.5-.51h3.68c.27,0,.5,.23,.5,.51s-.22,.51-.5,.51Z"/><path class="y" d="M46.19,14.51H17.38c-.58,0-1.06,.45-1.06,.99v2.38h30.94v-2.38c0-.54-.48-.99-1.06-.99Zm-28.1,2.38c-.38,0-.7-.32-.7-.72s.31-.72,.7-.72,.7,.32,.7,.72-.31,.72-.7,.72Zm2.48,0c-.38,0-.7-.32-.7-.72s.31-.72,.7-.72,.7,.32,.7,.72-.31,.72-.7,.72Zm2.55,0c-.38,0-.7-.32-.7-.72s.31-.72,.7-.72,.7,.32,.7,.72-.31,.72-.7,.72Zm16.71-.18h-.72c-.27,0-.5-.23-.5-.51s.22-.51,.5-.51h.72c.27,0,.5,.23,.5,.51s-.22,.51-.5,.51Zm4.93,0h-3.68c-.27,0-.5-.23-.5-.51s.22-.51,.5-.51h3.68c.27,0,.5,.23,.5,.51s-.22,.51-.5,.51Z"/><path class="x" d="M46.19,14.51H17.38c-.58,0-1.06,.45-1.06,.99v2.38h30.94v-2.38c0-.54-.48-.99-1.06-.99Zm-28.1,2.38c-.38,0-.7-.32-.7-.72s.31-.72,.7-.72,.7,.32,.7,.72-.31,.72-.7,.72Zm2.48,0c-.38,0-.7-.32-.7-.72s.31-.72,.7-.72,.7,.32,.7,.72-.31,.72-.7,.72Zm2.55,0c-.38,0-.7-.32-.7-.72s.31-.72,.7-.72,.7,.32,.7,.72-.31,.72-.7,.72Zm16.71-.18h-.72c-.27,0-.5-.23-.5-.51s.22-.51,.5-.51h.72c.27,0,.5,.23,.5,.51s-.22,.51-.5,.51Zm4.93,0h-3.68c-.27,0-.5-.23-.5-.51s.22-.51,.5-.51h3.68c.27,0,.5,.23,.5,.51s-.22,.51-.5,.51Z"/><path class="ab" d="M46.19,14.51H17.38c-.58,0-1.06,.45-1.06,.99v2.38h30.94v-2.38c0-.54-.48-.99-1.06-.99Zm-28.1,2.38c-.38,0-.7-.32-.7-.72s.31-.72,.7-.72,.7,.32,.7,.72-.31,.72-.7,.72Zm2.48,0c-.38,0-.7-.32-.7-.72s.31-.72,.7-.72,.7,.32,.7,.72-.31,.72-.7,.72Zm2.55,0c-.38,0-.7-.32-.7-.72s.31-.72,.7-.72,.7,.32,.7,.72-.31,.72-.7,.72Zm16.71-.18h-.72c-.27,0-.5-.23-.5-.51s.22-.51,.5-.51h.72c.27,0,.5,.23,.5,.51s-.22,.51-.5,.51Zm4.93,0h-3.68c-.27,0-.5-.23-.5-.51s.22-.51,.5-.51h3.68c.27,0,.5,.23,.5,.51s-.22,.51-.5,.51Z"/></g><g><polyline class="t" points=".5 48.53 .5 63.5 15.47 63.5"/><polyline class="r" points="63.49 48.53 63.49 63.5 48.52 63.5"/><polyline class="p" points="63.49 15.47 63.49 .5 48.52 .5"/><polyline class="q" points=".5 15.47 .5 .5 15.47 .5"/></g></svg>