<?xml version="1.0" encoding="UTF-8"?>
<svg id="Layer_1" data-name="Layer 1" xmlns="http://www.w3.org/2000/svg" xmlns:xlink="http://www.w3.org/1999/xlink" viewBox="0 0 64 64">
  <defs>
    <style>
      .cls-1 {
        fill: url(#linear-gradient-6);
      }

      .cls-1, .cls-2, .cls-3, .cls-4, .cls-5, .cls-6, .cls-7, .cls-8 {
        stroke-width: 0px;
      }

      .cls-2 {
        fill: #818cf8;
      }

      .cls-3 {
        fill: url(#linear-gradient-5);
      }

      .cls-9 {
        stroke: url(#linear-gradient);
      }

      .cls-9, .cls-10, .cls-11, .cls-12 {
        opacity: .8;
      }

      .cls-9, .cls-11, .cls-12 {
        stroke-linecap: round;
      }

      .cls-9, .cls-11, .cls-12, .cls-13 {
        fill: none;
        stroke-miterlimit: 10;
      }

      .cls-11 {
        stroke: url(#linear-gradient-2);
      }

      .cls-4 {
        fill: url(#linear-gradient-7);
      }

      .cls-5 {
        fill: url(#linear-gradient-9);
      }

      .cls-12 {
        stroke: url(#linear-gradient-3);
      }

      .cls-13 {
        stroke: #fff;
        stroke-width: .5px;
      }

      .cls-6 {
        fill: url(#linear-gradient-8);
      }

      .cls-7 {
        fill: #fff;
      }

      .cls-8 {
        fill: url(#linear-gradient-4);
      }
    </style>
    <linearGradient id="linear-gradient" x1="85.57" y1="65.67" x2="85.57" y2="56.62" gradientTransform="translate(48.08 132.91) rotate(-135)" gradientUnits="userSpaceOnUse">
      <stop offset="0" stop-color="#818cf8"/>
      <stop offset=".41" stop-color="rgba(99, 183, 236, .91)" stop-opacity=".91"/>
      <stop offset="1" stop-color="#3cf2de" stop-opacity=".8"/>
    </linearGradient>
    <linearGradient id="linear-gradient-2" x1="85.57" y1="60.39" x2="85.57" y2="53.67" xlink:href="#linear-gradient"/>
    <linearGradient id="linear-gradient-3" x1="85.57" y1="55.56" x2="85.57" y2="50.27" xlink:href="#linear-gradient"/>
    <linearGradient id="linear-gradient-4" x1="23.91" y1="-12.21" x2="36.87" y2="-12.21" gradientTransform="translate(3.88 73.37) rotate(-45)" gradientUnits="userSpaceOnUse">
      <stop offset="0" stop-color="#3cf2de" stop-opacity=".8"/>
      <stop offset=".59" stop-color="rgba(99, 183, 236, .91)" stop-opacity=".91"/>
      <stop offset="1" stop-color="#818cf8"/>
    </linearGradient>
    <linearGradient id="linear-gradient-5" x1="10.46" y1="33.57" x2="22.92" y2="35.24" gradientTransform="translate(-9.67 309.47) scale(1 -7.46)" xlink:href="#linear-gradient"/>
    <linearGradient id="linear-gradient-6" x1="4.3" y1="15.3" x2="6.32" y2="15.3" gradientTransform="translate(6.21 45.18)" xlink:href="#linear-gradient"/>
    <linearGradient id="linear-gradient-7" x1="49.93" y1="19.87" x2="49.93" y2="1.52" gradientUnits="userSpaceOnUse">
      <stop offset="0" stop-color="#818cf8"/>
      <stop offset=".52" stop-color="#5bc3e9"/>
      <stop offset="1" stop-color="#3cf2de"/>
    </linearGradient>
    <linearGradient id="linear-gradient-8" x1="56.41" y1="43.97" x2="56.41" y2="28.8" xlink:href="#linear-gradient-7"/>
    <linearGradient id="linear-gradient-9" x1="22.19" y1="13.67" x2="22.19" y2="0" xlink:href="#linear-gradient-7"/>
  </defs>
  <path class="cls-9" d="M38.79,42.85c1.07-5.82-.65-12.04-5.15-16.54-4.48-4.48-10.68-6.2-16.48-5.16"/>
  <path class="cls-11" d="M33.58,41.81c.76-4.14-.46-8.56-3.66-11.76-3.19-3.19-7.6-4.41-11.72-3.67"/>
  <path class="cls-12" d="M29.25,42.29c.57-3.1-.35-6.42-2.74-8.82s-5.7-3.31-8.79-2.75"/>
  <g>
    <g class="cls-10">
      <path class="cls-8" d="M21.29,38.69h0s-9.35-9.4-9.35-9.4c-.38-.39-1.06-.11-1.09.44l-2.04,14.35c-.01.25.19.6.36.77l5.77,5.77c.17.17.4.25.64.24l14.66-1.73c.55-.03.83-.71.44-1.09l-9.4-9.35Z"/>
    </g>
    <g class="cls-10">
      <path class="cls-2" d="M19.61,36.53s0,0,0,.01l1.84,1.85h0s1.84,1.84,1.84,1.84c0,0,0,0,.01,0,1.09-1.09,1.15-2.8.13-3.81s-2.72-.96-3.81.13Z"/>
    </g>
    <g class="cls-10">
      <rect class="cls-3" x=".77" y="48.64" width="12.57" height="8.58" rx="1.02" ry="1.02" transform="translate(-35.37 20.5) rotate(-45.01)"/>
    </g>
    <g class="cls-10">
      <rect class="cls-1" x="10.51" y="56.81" width="2.02" height="7.32" rx=".42" ry=".42" transform="translate(-28.67 13.84) rotate(-29.97)"/>
    </g>
  </g>
  <g>
    <circle class="cls-4" cx="49.93" cy="10.7" r="9.17"/>
    <path class="cls-7" d="M54.1,11.22l-6.09,3.52c-.4.23-.9-.06-.9-.52v-7.04c0-.46.5-.75.9-.52l6.09,3.52c.4.23.4.81,0,1.04Z"/>
  </g>
  <circle class="cls-6" cx="56.41" cy="36.38" r="7.59"/>
  <g>
    <rect class="cls-13" x="51.37" y="33.02" width="10.09" height="6.73"/>
    <path class="cls-13" d="M61.39,33.08l-1.88,1.88c-.78.78-1.97,1.97-2.65,2.65h0c-.25.25-.65.25-.89,0h0c-.68-.68-1.87-1.87-2.65-2.65l-1.94-1.95"/>
    <line class="cls-13" x1="54.73" y1="36.38" x2="51.42" y2="39.69"/>
    <line class="cls-13" x1="61.44" y1="39.73" x2="58.09" y2="36.38"/>
  </g>
  <circle class="cls-5" cx="22.19" cy="6.84" r="6.84"/>
  <path class="cls-13" d="M20.98,4.64l-2.78,4.81h5.74s-2.78-4.81-2.78-4.81c-.04-.07-.14-.07-.17,0Z"/>
  <path class="cls-13" d="M23.99,6.37l-1.01,1.43.95,1.65h2.26s-2.05-3.08-2.05-3.08c-.04-.06-.12-.06-.16,0Z"/>
</svg>