<svg width="726" height="494" viewBox="0 0 726 494" fill="none" xmlns="http://www.w3.org/2000/svg">
<g clip-path="url(#clip0_406_32)">
<path d="M9.653 38.083H198.203C200.762 38.0859 203.216 39.1038 205.025 40.9135C206.835 42.7231 207.853 45.1768 207.856 47.736V327.325C207.853 329.885 206.835 332.338 205.025 334.148C203.216 335.958 200.762 336.976 198.203 336.978H9.653C7.09375 336.976 4.64016 335.958 2.83049 334.148C1.02082 332.338 0.00287705 329.885 0 327.325V47.736C0.00289292 45.1767 1.02084 42.7231 2.83051 40.9135C4.64017 39.1038 7.09376 38.0859 9.653 38.083Z" fill="#F2F2F2"/>
<path d="M11.9932 45.1033H195.863C197.181 45.1047 198.445 45.6291 199.377 46.5614C200.31 47.4936 200.834 48.7576 200.836 50.076V324.985C200.834 326.304 200.31 327.568 199.377 328.5C198.445 329.432 197.181 329.957 195.863 329.958H11.9932C10.6748 329.957 9.41086 329.432 8.47861 328.5C7.54636 327.568 7.02198 326.304 7.02051 324.985V50.076C7.02198 48.7576 7.54636 47.4936 8.47861 46.5614C9.41086 45.6291 10.6748 45.1047 11.9932 45.1033Z" fill="white"/>
<path d="M139.771 147.783C139.771 165.456 123.429 162.783 103.271 162.783C83.1121 162.783 66.7705 165.456 66.7705 147.783C66.7705 130.11 74.753 98.7827 103.271 98.7827C132.771 98.7827 139.771 130.11 139.771 147.783Z" fill="#2F2E41"/>
<path d="M182.709 297.381C183.44 295.991 183.857 294.458 183.932 292.889C184.007 291.32 183.736 289.754 183.14 288.301C182.544 286.848 181.636 285.544 180.482 284.479C179.327 283.415 177.953 282.617 176.456 282.141L134.64 193.682L115.512 207.095L162.63 289.83C161.998 292.397 162.329 295.107 163.561 297.447C164.793 299.786 166.841 301.593 169.316 302.523C171.791 303.454 174.521 303.445 176.989 302.497C179.458 301.549 181.493 299.729 182.709 297.381Z" fill="#A0616A"/>
<path d="M146.321 201.453L143.931 197.713L142.712 195.793L133.321 181.073C131.876 177.841 129.208 175.315 125.902 174.047C122.597 172.78 118.924 172.874 115.688 174.31C112.452 175.746 109.918 178.406 108.64 181.708C107.362 185.009 107.445 188.682 108.871 191.923L111.022 199.593L115.411 215.273C115.678 216.238 116.245 217.093 117.031 217.713C117.329 217.962 117.659 218.17 118.011 218.333C118.626 218.623 119.295 218.779 119.974 218.791C120.653 218.803 121.327 218.671 121.951 218.403C121.971 218.393 122.002 218.383 122.022 218.373L133.382 213.293L133.402 213.283L142.071 209.403L144.232 208.443C144.851 208.167 145.404 207.761 145.852 207.253C146.326 206.728 146.675 206.102 146.871 205.423C147.074 204.761 147.13 204.063 147.035 203.377C146.94 202.691 146.696 202.034 146.321 201.453Z" fill="#CCCCCC"/>
<path d="M86.3911 326.873C85.9663 326.168 85.3681 325.583 84.6535 325.175C83.9388 324.767 83.1315 324.548 82.3085 324.54C81.4854 324.532 80.674 324.735 79.9516 325.129C79.2291 325.523 78.6196 326.096 78.1812 326.793C77.9917 327.078 77.8405 327.388 77.7314 327.713L77.1611 329.283H87.8413L86.3911 326.873Z" fill="#2F2E41"/>
<path d="M103.041 161.768C116.605 161.768 127.602 150.772 127.602 137.207C127.602 123.642 116.605 112.646 103.041 112.646C89.4758 112.646 78.4795 123.642 78.4795 137.207C78.4795 150.772 89.4758 161.768 103.041 161.768Z" fill="#A0616A"/>
<path d="M146.092 209.853C146.032 208.973 145.952 208.103 145.852 207.253C145.497 204.022 144.854 200.829 143.932 197.713C143.742 197.033 143.532 196.373 143.302 195.723C140.378 187.106 135.296 179.38 128.542 173.283C125.868 170.886 122.403 169.562 118.812 169.563H84.2118C82.0872 169.563 79.9883 170.027 78.0619 170.923C76.1356 171.82 74.4283 173.126 73.0595 174.751C71.6908 176.376 70.6936 178.28 70.1378 180.331C69.5819 182.382 69.4809 184.529 69.8417 186.623C69.8315 186.633 69.8315 186.633 69.8417 186.643C70.0859 188.04 70.534 189.395 71.1718 190.663L72.5717 193.453L81.9516 212.213L93.6215 235.553L94.3017 236.913L137.792 248.873L137.972 248.463C138.132 248.103 138.302 247.733 138.452 247.373C138.692 246.833 138.922 246.293 139.152 245.763C143.025 236.952 145.378 227.549 146.112 217.953V217.943C146.275 215.248 146.269 212.546 146.092 209.853Z" fill="#3F3D56"/>
<path d="M139.152 245.763C139.004 245.254 138.77 244.773 138.462 244.343C137.342 242.845 136.003 241.523 134.491 240.423L134.482 240.413C129.212 236.413 118.752 231.753 98.5417 231.633H98.5114C97.5853 231.633 96.6789 231.901 95.9005 232.402C95.122 232.904 94.5044 233.619 94.1213 234.463L93.6213 235.553L90.4016 242.633C90.127 243.238 89.6954 243.76 89.1516 244.143C84.0417 247.763 59.2917 268.063 73.8215 312.633C75.2414 316.983 76.7014 321.733 78.1814 326.793C78.4216 327.613 78.6617 328.443 78.9016 329.283H122.462L121.531 322.283C121.469 321.825 121.493 321.361 121.602 320.913L139.132 248.573L139.212 248.263C139.412 247.438 139.391 246.576 139.152 245.763Z" fill="#2F2E41"/>
<path d="M152.821 164.783H171.821C172.617 164.783 173.38 165.099 173.943 165.661C174.505 166.224 174.821 166.987 174.821 167.783V172.783C175.086 172.783 175.34 172.889 175.527 173.076C175.715 173.264 175.82 173.518 175.821 173.783V175.783C175.82 176.048 175.715 176.301 175.527 176.489C175.34 176.676 175.086 176.782 174.821 176.783V178.783C175.086 178.783 175.34 178.889 175.527 179.076C175.715 179.264 175.82 179.518 175.821 179.783V181.783C175.82 182.048 175.715 182.301 175.527 182.489C175.34 182.676 175.086 182.782 174.821 182.783V209.783C174.821 210.578 174.505 211.341 173.943 211.904C173.38 212.466 172.617 212.783 171.821 212.783H152.821C152.026 212.783 151.263 212.466 150.7 211.904C150.137 211.341 149.821 210.578 149.821 209.783V167.783C149.821 166.987 150.137 166.224 150.7 165.661C151.263 165.099 152.026 164.783 152.821 164.783Z" fill="#3F3D56"/>
<path d="M151.821 209.783V167.783C151.821 166.987 152.137 166.224 152.7 165.661C153.263 165.099 154.026 164.783 154.821 164.783H152.821C152.026 164.783 151.263 165.099 150.7 165.661C150.137 166.224 149.821 166.987 149.821 167.783V209.783C149.821 210.578 150.137 211.341 150.7 211.904C151.263 212.467 152.026 212.783 152.821 212.783H154.821C154.026 212.783 153.263 212.467 152.7 211.904C152.137 211.341 151.821 210.578 151.821 209.783Z" fill="#C17EF1"/>
<path d="M161.821 182.783C164.03 182.783 165.821 180.992 165.821 178.783C165.821 176.573 164.03 174.783 161.821 174.783C159.612 174.783 157.821 176.573 157.821 178.783C157.821 180.992 159.612 182.783 161.821 182.783Z" fill="white"/>
<path d="M156.747 192.796C156.422 193.244 156.133 193.717 155.882 194.21L106.643 200.125L99.4021 190.496L83.4414 199.524L94.6032 217.817C95.5049 219.295 96.8617 220.44 98.4698 221.081C100.078 221.722 101.851 221.824 103.522 221.372L157.985 206.636C159.533 208.102 161.49 209.062 163.596 209.388C165.703 209.714 167.859 209.392 169.778 208.463C171.696 207.534 173.286 206.043 174.337 204.188C175.387 202.333 175.848 200.202 175.658 198.079C175.468 195.956 174.637 193.941 173.273 192.302C171.91 190.663 170.081 189.478 168.028 188.905C165.974 188.331 163.795 188.396 161.78 189.091C159.765 189.786 158.009 191.079 156.747 192.796Z" fill="#A0616A"/>
<path d="M106.232 193.963L92.4317 176.083C90.8917 173.327 88.3661 171.257 85.3623 170.287C82.3585 169.317 79.099 169.52 76.2385 170.854C73.3781 172.189 71.1286 174.557 69.942 177.482C68.7554 180.407 68.7197 183.672 69.8418 186.623C69.8316 186.633 69.8316 186.633 69.8418 186.643C70.0476 187.187 70.2949 187.716 70.5816 188.223L72.5718 193.453L78.6216 209.403C78.8503 210.008 79.2074 210.556 79.6684 211.01C80.1294 211.464 80.6833 211.813 81.292 212.033C81.5064 212.111 81.7271 212.171 81.9517 212.213C82.9996 212.427 84.0894 212.256 85.022 211.733L89.4019 209.283L104.862 200.643C105.424 200.323 105.912 199.888 106.293 199.366C106.675 198.843 106.94 198.246 107.072 197.613C107.202 196.98 107.194 196.326 107.049 195.696C106.904 195.066 106.625 194.475 106.232 193.963Z" fill="#3F3D56"/>
<path d="M74.7705 141.783H84.4849L88.7705 127.013L89.6274 141.783H94.2705L96.7705 133.167L97.2705 141.783H131.771C131.771 124.11 120.13 109.783 105.771 109.783H100.77C86.4111 109.783 74.7705 124.11 74.7705 141.783Z" fill="#2F2E41"/>
<path d="M359.648 123.008H156.058C153.499 123.006 151.045 121.988 149.236 120.178C147.426 118.368 146.408 115.915 146.405 113.355V9.80571C146.408 7.24646 147.426 4.79285 149.236 2.98318C151.045 1.17352 153.499 0.155587 156.058 0.15271H359.648C362.207 0.155584 364.661 1.17352 366.47 2.98318C368.28 4.79285 369.298 7.24646 369.301 9.80571V113.356C369.298 115.915 368.28 118.368 366.47 120.178C364.661 121.988 362.207 123.006 359.648 123.008Z" fill="#CCCCCC"/>
<path d="M357.308 115.988H158.399C157.08 115.987 155.816 115.462 154.884 114.53C153.952 113.598 153.427 112.334 153.426 111.015V12.1457C153.427 10.8273 153.952 9.56332 154.884 8.63107C155.816 7.69882 157.08 7.17445 158.399 7.17297H357.308C358.626 7.17445 359.89 7.69882 360.822 8.63107C361.755 9.56332 362.279 10.8273 362.28 12.1457V111.015C362.279 112.334 361.755 113.598 360.822 114.53C359.89 115.462 358.626 115.987 357.308 115.988Z" fill="white"/>
<path d="M168.265 142.042C167.771 142.041 167.282 141.942 166.827 141.752C166.147 141.478 165.565 141.006 165.158 140.397C164.751 139.788 164.537 139.07 164.545 138.337V119.305L193.225 118.58L170.855 140.95C170.517 141.295 170.114 141.569 169.669 141.756C169.225 141.944 168.747 142.041 168.265 142.042Z" fill="#CCCCCC"/>
<path d="M333.089 57.1468H232.464C231.849 57.1477 231.24 57.0273 230.671 56.7925C230.103 56.5577 229.586 56.2131 229.151 55.7784C228.715 55.3437 228.37 54.8275 228.134 54.2592C227.899 53.6909 227.777 53.0818 227.777 52.4666C227.777 51.8514 227.899 51.2422 228.134 50.674C228.37 50.1057 228.715 49.5894 229.151 49.1548C229.586 48.7201 230.103 48.3755 230.671 48.1407C231.24 47.9059 231.849 47.7855 232.464 47.7864H333.089C334.33 47.7864 335.521 48.2795 336.398 49.1572C337.276 50.0349 337.769 51.2253 337.769 52.4666C337.769 53.7079 337.276 54.8983 336.398 55.776C335.521 56.6537 334.33 57.1468 333.089 57.1468Z" fill="#CCCCCC"/>
<path d="M300.328 37.2559H232.464C231.223 37.2559 230.033 36.7628 229.155 35.8851C228.277 35.0074 227.784 33.817 227.784 32.5757C227.784 31.3345 228.277 30.144 229.155 29.2663C230.033 28.3886 231.223 27.8955 232.464 27.8955H300.328C301.569 27.8955 302.759 28.3886 303.637 29.2663C304.515 30.144 305.008 31.3345 305.008 32.5757C305.008 33.817 304.515 35.0074 303.637 35.8851C302.759 36.7628 301.569 37.2559 300.328 37.2559Z" fill="#CCCCCC"/>
<path d="M190.81 57.1469C198.888 57.1469 205.436 50.5987 205.436 42.5212C205.436 34.4436 198.888 27.8955 190.81 27.8955C182.733 27.8955 176.185 34.4436 176.185 42.5212C176.185 50.5987 182.733 57.1469 190.81 57.1469Z" fill="#C17EF1"/>
<path d="M302.08 95.2657C304.664 95.2657 306.76 93.1703 306.76 90.5855C306.76 88.0007 304.664 85.9053 302.08 85.9053C299.495 85.9053 297.399 88.0007 297.399 90.5855C297.399 93.1703 299.495 95.2657 302.08 95.2657Z" fill="#E6E6E6"/>
<path d="M318.461 95.2657C321.045 95.2657 323.141 93.1703 323.141 90.5855C323.141 88.0007 321.045 85.9053 318.461 85.9053C315.876 85.9053 313.78 88.0007 313.78 90.5855C313.78 93.1703 315.876 95.2657 318.461 95.2657Z" fill="#E6E6E6"/>
<path d="M334.841 95.2657C337.426 95.2657 339.522 93.1703 339.522 90.5855C339.522 88.0007 337.426 85.9053 334.841 85.9053C332.257 85.9053 330.161 88.0007 330.161 90.5855C330.161 93.1703 332.257 95.2657 334.841 95.2657Z" fill="#E6E6E6"/>
<path d="M527.653 195.083H716.203C718.762 195.086 721.216 196.104 723.025 197.913C724.835 199.723 725.853 202.177 725.856 204.736V484.325C725.853 486.885 724.835 489.338 723.025 491.148C721.216 492.958 718.762 493.976 716.203 493.978H527.653C525.094 493.976 522.64 492.958 520.831 491.148C519.021 489.338 518.003 486.885 518 484.325V204.736C518.003 202.177 519.021 199.723 520.831 197.913C522.64 196.104 525.094 195.086 527.653 195.083Z" fill="#F2F2F2"/>
<path d="M529.993 202.103H713.863C715.181 202.105 716.445 202.629 717.377 203.561C718.31 204.494 718.834 205.758 718.836 207.076V481.985C718.834 483.304 718.31 484.568 717.377 485.5C716.445 486.432 715.181 486.957 713.863 486.958H529.993C528.675 486.957 527.411 486.432 526.479 485.5C525.546 484.568 525.022 483.304 525.021 481.985V207.076C525.022 205.758 525.546 204.494 526.479 203.561C527.411 202.629 528.675 202.105 529.993 202.103Z" fill="white"/>
<path d="M535.573 336.638H331.983C329.424 336.635 326.97 335.617 325.161 333.808C323.351 331.998 322.333 329.545 322.33 326.985V223.436C322.333 220.876 323.351 218.423 325.161 216.613C326.97 214.803 329.424 213.785 331.983 213.783H535.573C538.132 213.785 540.585 214.803 542.395 216.613C544.205 218.423 545.223 220.876 545.226 223.436V326.985C545.223 329.545 544.205 331.998 542.395 333.808C540.585 335.618 538.132 336.635 535.573 336.638Z" fill="#CCCCCC"/>
<path d="M533.233 329.618H334.323C333.005 329.617 331.741 329.092 330.809 328.16C329.876 327.228 329.352 325.964 329.351 324.645V225.776C329.352 224.457 329.876 223.193 330.809 222.261C331.741 221.329 333.005 220.804 334.323 220.803H533.233C534.551 220.804 535.815 221.329 536.747 222.261C537.679 223.193 538.204 224.457 538.205 225.776V324.645C538.204 325.964 537.679 327.228 536.747 328.16C535.815 329.092 534.551 329.617 533.233 329.618Z" fill="white"/>
<path d="M521.713 354.58L499.343 332.21L528.023 332.935V351.967C528.03 352.7 527.817 353.418 527.41 354.027C527.003 354.636 526.421 355.108 525.741 355.382C525.286 355.572 524.797 355.671 524.303 355.672C523.821 355.671 523.343 355.573 522.899 355.386C522.454 355.198 522.051 354.925 521.713 354.58Z" fill="#CCCCCC"/>
<path d="M509.014 270.777H408.389C407.774 270.778 407.165 270.657 406.596 270.423C406.027 270.188 405.511 269.843 405.075 269.408C404.64 268.974 404.295 268.458 404.059 267.889C403.823 267.321 403.702 266.712 403.702 266.097C403.702 265.481 403.823 264.872 404.059 264.304C404.295 263.736 404.64 263.219 405.075 262.785C405.511 262.35 406.027 262.005 406.596 261.771C407.165 261.536 407.774 261.415 408.389 261.416H509.014C509.629 261.415 510.238 261.536 510.807 261.771C511.376 262.005 511.892 262.35 512.328 262.785C512.763 263.219 513.108 263.736 513.344 264.304C513.58 264.872 513.701 265.481 513.701 266.097C513.701 266.712 513.58 267.321 513.344 267.889C513.108 268.458 512.763 268.974 512.328 269.408C511.892 269.843 511.376 270.188 510.807 270.423C510.238 270.657 509.629 270.778 509.014 270.777Z" fill="#CCCCCC"/>
<path d="M476.252 250.886H408.389C407.775 250.886 407.166 250.765 406.598 250.53C406.03 250.294 405.514 249.95 405.08 249.515C404.645 249.08 404.3 248.564 404.065 247.997C403.83 247.429 403.709 246.82 403.709 246.206C403.709 245.591 403.83 244.982 404.065 244.415C404.3 243.847 404.645 243.331 405.08 242.896C405.514 242.462 406.03 242.117 406.598 241.882C407.166 241.646 407.775 241.525 408.389 241.525H476.252C477.494 241.525 478.684 242.018 479.562 242.896C480.439 243.774 480.933 244.964 480.933 246.206C480.933 247.447 480.439 248.637 479.562 249.515C478.684 250.393 477.494 250.886 476.252 250.886Z" fill="#CCCCCC"/>
<path d="M366.735 270.777C374.813 270.777 381.361 264.229 381.361 256.151C381.361 248.074 374.813 241.525 366.735 241.525C358.658 241.525 352.109 248.074 352.109 256.151C352.109 264.229 358.658 270.777 366.735 270.777Z" fill="#C17EF1"/>
<path d="M478.004 308.896C480.589 308.896 482.685 306.8 482.685 304.215C482.685 301.631 480.589 299.535 478.004 299.535C475.42 299.535 473.324 301.631 473.324 304.215C473.324 306.8 475.42 308.896 478.004 308.896Z" fill="#E6E6E6"/>
<path d="M494.385 308.896C496.97 308.896 499.066 306.8 499.066 304.215C499.066 301.631 496.97 299.535 494.385 299.535C491.801 299.535 489.705 301.631 489.705 304.215C489.705 306.8 491.801 308.896 494.385 308.896Z" fill="#E6E6E6"/>
<path d="M510.766 308.896C513.351 308.896 515.446 306.8 515.446 304.215C515.446 301.631 513.351 299.535 510.766 299.535C508.181 299.535 506.086 301.631 506.086 304.215C506.086 306.8 508.181 308.896 510.766 308.896Z" fill="#E6E6E6"/>
<path d="M537.809 399.313C538.62 398.086 539.689 397.052 540.942 396.283C542.195 395.515 543.602 395.03 545.062 394.864C546.523 394.698 548.002 394.854 549.396 395.321C550.79 395.788 552.064 396.555 553.13 397.569L584.884 381.178L582.91 399.643L553.058 412.376C551.238 414.053 548.865 415.004 546.39 415.048C543.916 415.093 541.511 414.228 539.631 412.618C537.752 411.007 536.528 408.764 536.192 406.311C535.856 403.859 536.432 401.369 537.809 399.313Z" fill="#FFB8B8"/>
<path d="M636.682 317.223C634.218 315.295 631.198 314.216 628.071 314.145C624.944 314.075 621.879 315.018 619.331 316.833C618.182 317.657 617.156 318.64 616.282 319.753L588.402 371.463L562.672 390.903C561.819 391.545 561.223 392.47 560.992 393.513C560.817 394.277 560.848 395.074 561.081 395.823L563.612 403.983C563.882 404.859 564.412 405.633 565.132 406.203C565.412 406.413 565.714 406.594 566.032 406.743C566.07 406.763 566.11 406.78 566.152 406.793C566.713 407.033 567.317 407.157 567.928 407.155C568.538 407.153 569.142 407.027 569.702 406.783L599.862 393.703L600.192 393.553C610.357 389.054 618.567 381.051 623.322 371.003L639.182 337.533C641.532 334.503 642.589 330.667 642.12 326.862C641.652 323.057 639.697 319.591 636.682 317.223Z" fill="#3F3D56"/>
<path d="M639.877 298.167C653.442 298.167 664.438 287.171 664.438 273.606C664.438 260.042 653.442 249.045 639.877 249.045C626.313 249.045 615.316 260.042 615.316 273.606C615.316 287.171 626.313 298.167 639.877 298.167Z" fill="#FFB8B8"/>
<path d="M656.502 437.853L656.252 435.943L655.092 427.233L653.822 417.723L649.312 418.493L647.572 418.783L645.812 419.083L645.232 419.183L600.492 426.783L594.922 423.433L594.802 423.363L594.852 423.873L595.902 434.763L600.912 486.783H663.032L656.502 437.853Z" fill="#2F2E41"/>
<path d="M673.702 337.923C672.905 329.014 668.695 320.758 661.952 314.883C655.462 309.135 646.955 306.2 638.302 306.723C630.052 307.273 623.712 310.663 619.331 316.833C617.078 320.135 615.414 323.802 614.412 327.673C609.432 345.593 604.182 371.843 600.192 393.553C597.952 405.673 596.112 416.383 594.922 423.433C594.902 423.583 594.882 423.723 594.852 423.873C594.392 426.623 594.042 428.773 593.812 430.203C593.666 431.084 593.787 431.99 594.16 432.802C594.532 433.615 595.139 434.297 595.902 434.763C595.912 434.773 595.932 434.783 595.942 434.793C600.989 437.812 606.75 439.431 612.632 439.483C619.752 439.483 628.292 437.003 637.282 428.993C637.892 428.438 638.678 428.115 639.502 428.081C640.327 428.046 641.137 428.301 641.792 428.803L642.772 429.563L652.452 437.093C653.208 437.683 654.133 438.016 655.092 438.043C655.569 438.064 656.047 438 656.502 437.853C656.543 437.847 656.583 437.837 656.622 437.823C657.319 437.596 657.951 437.2 658.46 436.672C658.969 436.144 659.341 435.498 659.542 434.793C660.082 432.913 660.682 430.743 661.342 428.323C661.612 427.313 661.892 426.253 662.182 425.153C663.452 420.293 664.862 414.653 666.242 408.513C671.062 387.053 675.642 359.483 673.702 337.923Z" fill="#3F3D56"/>
<path d="M633.255 440.418C633.136 438.953 633.339 437.48 633.851 436.101C634.362 434.723 635.17 433.474 636.217 432.442C637.263 431.41 638.524 430.619 639.909 430.127C641.294 429.634 642.77 429.452 644.234 429.591L659.106 397.098L668.947 412.846L653.316 441.287C652.918 443.73 651.638 445.942 649.718 447.505C647.798 449.067 645.372 449.87 642.899 449.763C640.427 449.656 638.079 448.646 636.301 446.923C634.524 445.201 633.44 442.886 633.255 440.418Z" fill="#FFB8B8"/>
<path d="M683.071 365.373L674.891 329.243C674.871 325.679 673.542 322.246 671.156 319.599C668.77 316.951 665.494 315.273 661.951 314.883C661.442 314.833 660.922 314.803 660.391 314.803C658.481 314.808 656.591 315.189 654.829 315.925C653.067 316.662 651.467 317.738 650.121 319.093C648.775 320.448 647.71 322.056 646.986 323.823C646.262 325.59 645.893 327.483 645.902 329.393L655.882 387.283L655.852 387.403L650.562 407.373L647.632 418.463C647.601 418.567 647.581 418.674 647.571 418.783C647.384 419.713 647.507 420.679 647.922 421.533C648.254 422.249 648.772 422.864 649.422 423.313L655.092 427.233L656.442 428.173C657.193 428.696 658.086 428.975 659.002 428.973C659.355 428.972 659.707 428.932 660.051 428.853C660.091 428.843 660.121 428.833 660.161 428.823C660.577 428.714 660.975 428.546 661.342 428.323C662.023 427.91 662.582 427.323 662.962 426.623L678.621 397.713C683.97 387.827 685.552 376.336 683.071 365.373Z" fill="#3F3D56"/>
<path opacity="0.2" d="M647.893 353.804L656.893 391.804L643.893 423.804L652.893 392.804L647.893 353.804Z" fill="black"/>
<path d="M659.755 288.368C661.813 287.634 663.706 286.5 665.323 285.03C666.038 284.392 666.806 283.799 667.519 283.161C673.817 277.528 675.709 267.842 672.899 259.873C670.089 251.904 663.101 245.779 655.115 243.019C647.129 240.258 638.277 240.635 630.169 243.011C621.435 245.57 612.687 251.333 610.613 260.195C610.061 262.554 610.04 265.171 611.646 267.161C612.129 267.762 612.761 268.225 613.48 268.505C616.31 269.59 617.887 267.376 620 266.435C622.904 265.142 626.477 266.538 628.499 268.991C630.52 271.444 631.268 274.703 631.578 277.866C631.641 279.816 631.947 281.751 632.489 283.626C632.771 284.562 633.288 285.41 633.989 286.091C634.691 286.771 635.555 287.261 636.5 287.514C638.778 287.935 640.969 286.367 642.403 284.546C643.836 282.726 644.852 280.564 646.546 278.983C648.24 277.402 651.003 276.568 652.86 277.954C653.481 278.478 654.006 279.108 654.41 279.815C657.255 284.186 656.909 283.996 659.755 288.368Z" fill="#2F2E41"/>
<path d="M542.133 378.285L524.806 386.081C524.081 386.407 523.514 387.008 523.232 387.752C522.95 388.496 522.975 389.322 523.301 390.047L525.353 394.607C525.111 394.717 524.923 394.917 524.829 395.165C524.735 395.412 524.743 395.687 524.851 395.929L525.672 397.753C525.781 397.995 525.982 398.183 526.229 398.277C526.477 398.371 526.752 398.363 526.994 398.255L527.814 400.079C527.573 400.188 527.385 400.389 527.291 400.637C527.197 400.884 527.205 401.159 527.313 401.401L528.133 403.225C528.243 403.466 528.443 403.654 528.691 403.748C528.939 403.842 529.214 403.835 529.456 403.727L540.534 428.349C540.86 429.075 541.461 429.641 542.205 429.923C542.949 430.206 543.775 430.181 544.5 429.854L561.827 422.059C562.553 421.732 563.119 421.131 563.401 420.387C563.684 419.643 563.659 418.818 563.332 418.092L546.1 379.79C545.774 379.064 545.172 378.498 544.428 378.216C543.685 377.934 542.859 377.959 542.133 378.285Z" fill="#3F3D56"/>
<path d="M560.121 415.833L557.681 410.403L551.281 396.183L545.661 383.693C545.349 382.997 544.774 382.453 544.061 382.181C543.349 381.91 542.558 381.932 541.861 382.243L532.321 386.533L527.951 388.503C527.258 388.817 526.718 389.394 526.448 390.106C526.178 390.818 526.201 391.607 526.511 392.303L532.321 405.223L534.551 410.173L540.971 424.453C541.288 425.147 541.866 425.688 542.58 425.958C543.293 426.227 544.085 426.204 544.781 425.893L558.681 419.633C559.375 419.318 559.916 418.742 560.186 418.03C560.456 417.318 560.433 416.528 560.121 415.833Z" fill="#C17EF1"/>
</g>
<defs>
<clipPath id="clip0_406_32">
<rect width="725.856" height="493.826" fill="white" transform="translate(0 0.15271)"/>
</clipPath>
</defs>
</svg>
