<svg width="363" height="251" viewBox="0 0 363 251" fill="none" xmlns="http://www.w3.org/2000/svg">
<g clip-path="url(#clip0_566_42)">
<path d="M136.799 49.005C134.034 38.958 156.332 30.3426 162.188 38.4334C163.002 37.2831 166.011 36.5844 167.391 36.9373C168.772 37.2901 169.933 38.1723 171.066 39.0262C172.623 40.2189 174.238 41.4539 175.193 43.1687C176.156 44.8765 176.305 47.2054 175.009 48.6874C173.983 49.8659 170.953 50.6281 169.409 50.9386C168.333 51.1574 167.427 51.3338 166.648 51.4608C165.954 50.4517 165.6 49.2025 165.728 47.9817C164.68 48.6733 163.972 49.8589 163.858 51.115C163.837 51.3761 172.56 83.366 172.56 83.366C171.661 83.8953 170.549 84.3893 169.268 84.8409C167.094 81.5735 165.31 77.7203 164.135 73.6907C163.866 76.1819 163.908 78.8847 164.234 81.6299C164.404 83.0908 164.659 84.5587 164.984 86.0265C154.619 88.2566 139.029 87.5226 132.246 78.0379C132.245 77.9987 132.244 77.9594 132.243 77.9201C132.195 76.1453 129.765 75.7043 129.115 77.3573C128.951 77.7757 128.799 78.1379 128.664 78.426C126.689 71.383 129.245 63.2321 136.799 49.005Z" fill="#2F2E41"/>
<path d="M277.69 128.676C275.237 131.576 270.891 131.945 267.983 129.5C267.701 129.263 267.439 129.004 267.198 128.726L234.465 139.06L229.372 130.738L268.339 118.747C271.397 116.499 275.703 117.147 277.959 120.194C279.846 122.744 279.735 126.251 277.69 128.676Z" fill="#FFB6B6"/>
<path d="M161.767 102.853C161.767 102.853 176.263 86.6011 182.577 93.5047C188.892 100.408 208.592 130.66 208.592 130.66L254.578 120.989L259.025 133.086L206.81 149.952C202.884 151.22 198.583 149.905 196.045 146.662L161.767 102.853Z" fill="#C17EF1"/>
<path d="M193.251 251H121.353L121.287 250.441L121.245 250.068L120.628 244.846L119.753 237.409L119.416 234.551C119.393 234.407 119.37 234.267 119.351 234.122C119.056 232.262 118.888 230.392 118.827 228.527C118.738 225.963 118.855 223.403 119.131 220.876V220.862C119.281 219.496 119.473 218.144 119.711 216.806C120.011 215.086 120.371 213.393 120.787 211.738C121.264 209.817 121.807 207.947 122.401 206.143C123.084 204.031 123.832 202.008 124.604 200.096C124.688 199.891 124.772 199.686 124.852 199.485L124.856 199.481C128.926 189.592 133.547 182.836 133.547 182.836H185.926C185.926 182.836 188.349 193.433 189.551 202.185C189.743 203.569 189.902 204.903 190.019 206.143C190.229 208.432 190.29 210.4 190.107 211.738C189.995 212.568 189.789 213.155 189.471 213.426C186.59 215.878 189.888 221.081 189.888 221.081C189.888 221.081 192.357 224.844 190.206 226.961C189.78 227.38 189.537 227.921 189.42 228.527C189.233 229.53 189.396 230.695 189.654 231.726C189.911 232.761 190.266 233.661 190.463 234.122C190.552 234.327 190.608 234.444 190.608 234.444L190.973 237.321L191.328 240.09L191.932 244.846L192.114 245.685L193.054 250.068L193.134 250.441L193.251 251Z" fill="#2F2E41"/>
<path d="M156.934 80.6185L134.951 82.5701L130.899 95.1379L126.484 95.7751C118.938 96.8641 114.448 104.752 117.379 111.767L121.264 121.064C121.264 121.064 115.558 138.621 122.567 145.998L125.549 178.49L118.821 199.909L197.465 202.44L184.069 175.572L183.672 158.89C183.672 158.89 192.232 128.738 184.296 119.147L181.199 91.8675L165.067 89.4554L156.934 80.6185Z" fill="#C17EF1"/>
<path d="M171.817 64.4948C174.082 54.7558 167.998 45.0303 158.227 42.7723C148.456 40.5143 138.699 46.5789 136.434 56.318C134.169 66.057 140.253 75.7825 150.024 78.0405C159.794 80.2985 169.551 74.2339 171.817 64.4948Z" fill="#FFB6B6"/>
<path d="M126.887 50.4163C124.122 40.3694 146.42 31.754 152.276 39.8448C153.09 38.6945 156.099 37.9958 157.48 38.3487C158.86 38.7015 160.021 39.5837 161.154 40.4376C162.712 41.6302 164.326 42.8652 165.282 44.5801C166.245 46.2879 166.393 48.6168 165.098 50.0988C164.071 51.2773 161.041 52.0395 159.497 52.35C158.421 52.5688 157.515 52.7452 156.736 52.8722C156.042 51.863 155.688 50.6139 155.816 49.3931C154.768 50.0846 154.06 51.2702 153.947 52.5264C153.925 52.7875 162.648 84.7774 162.648 84.7774C161.749 85.3067 160.637 85.8007 159.356 86.2523C157.182 82.9849 155.398 79.1317 154.223 75.1021C153.954 77.5933 153.996 80.2961 154.322 83.0413C154.492 84.5021 154.747 85.97 155.072 87.4379C144.707 89.6679 129.117 88.934 122.335 79.4493C122.333 79.41 122.332 79.3708 122.331 79.3315C122.283 77.5567 119.853 77.1157 119.203 78.7686C119.039 79.1871 118.887 79.5493 118.752 79.8374C116.777 72.7944 119.333 64.6434 126.887 50.4163Z" fill="#2F2E41"/>
<path d="M282.128 250.441H37.9624L0.074707 250.907L265.785 235.095C274.649 234.567 282.128 241.59 282.128 250.441Z" fill="#3F3D56"/>
<path d="M305.339 58.0558H243.104C241.668 58.0558 240.501 56.896 240.501 55.4707C240.501 54.0454 241.668 52.8862 243.104 52.8862H305.339C306.774 52.8862 307.941 54.0454 307.941 55.4707C307.941 56.896 306.774 58.0558 305.339 58.0558Z" fill="#C17EF1"/>
<path d="M274.198 66.3924C273.965 65.821 273.162 65.821 272.929 66.3926C271.306 70.3798 268.996 74.8451 266.484 78.2575C266.081 78.8038 266.636 79.5339 267.275 79.3033L272.662 77.361V110.596H274.465V77.3609L279.853 79.3036C280.492 79.5341 281.047 78.8041 280.645 78.2577C278.132 74.8452 275.821 70.3798 274.198 66.3924Z" fill="#3F3D56"/>
<path d="M361.395 77.0542H323.026C322.141 77.0542 321.421 76.3392 321.421 75.4605C321.421 74.5817 322.141 73.8671 323.026 73.8671H361.395C362.28 73.8671 363 74.5817 363 75.4605C363 76.3392 362.28 77.0542 361.395 77.0542Z" fill="#F2F2F2"/>
<path d="M342.196 82.1939C342.053 81.8416 341.557 81.8416 341.414 82.194C340.414 84.6522 338.989 87.4052 337.44 89.509C337.192 89.8459 337.534 90.296 337.928 90.1538L341.249 88.9563V109.447H342.361V88.9563L345.683 90.154C346.077 90.2961 346.419 89.846 346.171 89.5092C344.622 87.4053 343.197 84.6522 342.196 82.1939Z" fill="#F2F2F2"/>
<path d="M342.217 129.218C346.822 129.218 350.555 125.497 350.555 120.908C350.555 116.318 346.822 112.597 342.217 112.597C337.612 112.597 333.88 116.318 333.88 120.908C333.88 125.497 337.612 129.218 342.217 129.218Z" fill="#F2F2F2"/>
<path d="M238.378 29.9641H200.008C199.123 29.9641 198.403 29.2491 198.403 28.3704C198.403 27.4917 199.123 26.777 200.008 26.777H238.378C239.262 26.777 239.982 27.4917 239.982 28.3704C239.982 29.2491 239.262 29.9641 238.378 29.9641Z" fill="#F2F2F2"/>
<path d="M219.178 35.1038C219.035 34.7515 218.54 34.7515 218.396 35.1039C217.396 37.5621 215.972 40.3151 214.422 42.4189C214.174 42.7558 214.516 43.2059 214.911 43.0637L218.231 41.8662V62.3567H219.343V41.8662L222.665 43.0639C223.059 43.206 223.401 42.7559 223.153 42.4191C221.604 40.3152 220.179 37.5621 219.178 35.1038Z" fill="#F2F2F2"/>
<path d="M219.199 82.1281C223.804 82.1281 227.537 78.4073 227.537 73.8175C227.537 69.2277 223.804 65.507 219.199 65.507C214.594 65.507 210.862 69.2277 210.862 73.8175C210.862 78.4073 214.594 82.1281 219.199 82.1281Z" fill="#F2F2F2"/>
<path d="M122.535 234.848C124.503 231.603 123.458 227.381 120.201 225.42C119.886 225.23 119.556 225.066 119.214 224.929L118.523 190.711L108.981 188.574L110.099 229.209C108.945 232.817 110.943 236.675 114.562 237.826C117.591 238.789 120.887 237.558 122.535 234.848Z" fill="#FFB6B6"/>
<path d="M129.174 99.8452C129.174 99.8452 117.48 97.0478 113.738 104.974C109.996 112.9 109.678 147.391 109.678 147.391L107.657 217.338L122.49 216.686L134.319 130.617L129.174 99.8452Z" fill="#C17EF1"/>
<path d="M123.925 245.17C124.188 245.498 124.588 245.689 125.01 245.687H200.945C201.716 245.686 202.341 245.062 202.34 244.293C202.34 244.197 202.33 244.102 202.31 244.009L201.132 238.428C201.032 237.965 200.705 237.585 200.262 237.416C200.104 237.354 199.936 237.323 199.766 237.323H126.184C126.015 237.323 125.846 237.354 125.688 237.416C125.245 237.585 124.918 237.965 124.818 238.428L123.64 244.009C123.555 244.419 123.66 244.845 123.925 245.17Z" fill="#CCCCCC"/>
<path d="M94.8542 120.236V207.544C94.8561 209.861 96.7398 211.738 99.064 211.74H228.864C231.189 211.738 233.072 209.861 233.074 207.544V120.236C233.069 117.922 231.186 116.048 228.864 116.045H99.064C96.7421 116.048 94.8598 117.922 94.8542 120.236Z" fill="#E6E6E6"/>
<path d="M180.196 193.07C180.041 193.018 179.878 192.995 179.714 192.995H149.348C148.454 192.995 147.725 193.718 147.725 194.608V242.426H181.332V194.608C181.332 193.904 180.874 193.28 180.196 193.07ZM168.016 216.587C168.006 218.564 166.393 220.158 164.409 220.149C162.44 220.135 160.85 218.55 160.84 216.587V211.039C160.859 209.066 162.482 207.481 164.461 207.5C166.416 207.518 167.997 209.094 168.016 211.039V216.587Z" fill="#CCCCCC"/>
</g>
<defs>
<clipPath id="clip0_566_42">
<rect width="363" height="251" fill="white"/>
</clipPath>
</defs>
</svg>
