<svg width="36" height="41" viewBox="0 0 36 41" fill="none" xmlns="http://www.w3.org/2000/svg">
<path d="M33.9675 13.7894C36.0737 11.3817 35.1132 8.56942 33.9675 7.20183L28.9125 1.42327C26.7894 -0.984468 24.3462 0.113459 23.1499 1.42327L20.2854 4.71705H15.9213C12.7198 4.71705 10.8663 6.64324 9.92272 8.85835L2.44138 17.4106V25.1154L1.24504 26.4637C-0.86119 28.8907 0.0992518 31.6837 1.24504 33.0513L6.3 38.8298C7.20989 39.87 8.18718 40.2552 9.11392 40.2552C10.3103 40.2552 11.4055 39.581 12.0626 38.8298L16.6121 33.6099H22.6612C25.5257 33.6099 26.9748 31.5681 27.4971 29.5649C29.4011 28.987 30.4458 27.3305 30.8671 25.7125C33.4788 24.942 34.4561 22.1105 34.4561 20.1266V14.348H33.462L33.9675 13.7894ZM31.0861 20.1266C31.0861 20.9933 30.766 22.0527 29.4011 22.0527H27.7162V23.9789C27.7162 24.8457 27.396 25.9051 26.0312 25.9051H24.3462V27.8313C24.3462 28.6981 24.026 29.7575 22.6612 29.7575H15.2304L9.70367 36.0754C9.18132 36.634 8.87803 36.3065 8.69268 36.0946L3.65457 30.3546C3.16593 29.7575 3.45237 29.4108 3.63772 29.1989L5.81135 26.6948V18.9901L9.18132 15.1377V18.2004C9.18132 20.531 10.5293 23.9789 14.2363 23.9789C17.9432 23.9789 19.2912 20.531 19.2912 18.2004H31.0861V20.1266ZM31.5748 11.0542L28.7103 14.348H15.9213V18.2004C15.9213 19.0671 15.6011 20.1266 14.2363 20.1266C12.8714 20.1266 12.5513 19.0671 12.5513 18.2004V12.4218C12.5513 11.5358 12.8377 8.56942 15.9213 8.56942H21.6671L25.5088 4.17772C26.0312 3.61912 26.3345 3.94657 26.5198 4.15845L31.5579 9.89849C32.0466 10.4956 31.7601 10.8423 31.5748 11.0542Z" fill="#3D3D3D"/>
</svg>
