<?xml version="1.0" encoding="UTF-8"?>
<svg width="1014px" height="553px" viewBox="0 0 1014 553" version="1.1" xmlns="http://www.w3.org/2000/svg" xmlns:xlink="http://www.w3.org/1999/xlink">
    <title>1</title>
    <defs>
        <linearGradient x1="100%" y1="50%" x2="-26.3961365%" y2="50%" id="linearGradient-1">
            <stop stop-color="#69BAF2" offset="0%"></stop>
            <stop stop-color="#6D818F" offset="100%"></stop>
        </linearGradient>
        <linearGradient x1="99.774604%" y1="50%" x2="-26.3961365%" y2="50%" id="linearGradient-2">
            <stop stop-color="#4F65A9" offset="0%"></stop>
            <stop stop-color="#0B0B0B" offset="100%"></stop>
        </linearGradient>
        <linearGradient x1="99.774604%" y1="50%" x2="-26.3961365%" y2="50%" id="linearGradient-3">
            <stop stop-color="#4F65A9" offset="0%"></stop>
            <stop stop-color="#0B0B0B" offset="100%"></stop>
        </linearGradient>
        <linearGradient x1="99.774604%" y1="50%" x2="-26.3961365%" y2="50%" id="linearGradient-4">
            <stop stop-color="#4F65A9" offset="0%"></stop>
            <stop stop-color="#0B0B0B" offset="100%"></stop>
        </linearGradient>
        <linearGradient x1="99.774604%" y1="50%" x2="-26.3961365%" y2="50%" id="linearGradient-5">
            <stop stop-color="#4F65A9" offset="0%"></stop>
            <stop stop-color="#0B0B0B" offset="100%"></stop>
        </linearGradient>
        <linearGradient x1="99.774604%" y1="50%" x2="-26.3961365%" y2="50%" id="linearGradient-6">
            <stop stop-color="#4F65A9" offset="0%"></stop>
            <stop stop-color="#0B0B0B" offset="100%"></stop>
        </linearGradient>
        <linearGradient x1="99.774604%" y1="50%" x2="-26.3961365%" y2="50%" id="linearGradient-7">
            <stop stop-color="#4F65A9" offset="0%"></stop>
            <stop stop-color="#0B0B0B" offset="100%"></stop>
        </linearGradient>
        <linearGradient x1="99.774604%" y1="50%" x2="-26.3961365%" y2="50%" id="linearGradient-8">
            <stop stop-color="#4F65A9" offset="0%"></stop>
            <stop stop-color="#0B0B0B" offset="100%"></stop>
        </linearGradient>
        <linearGradient x1="99.774604%" y1="50%" x2="-26.3961365%" y2="50%" id="linearGradient-9">
            <stop stop-color="#4F65A9" offset="0%"></stop>
            <stop stop-color="#0B0B0B" offset="100%"></stop>
        </linearGradient>
    </defs>
    <g id="igorozmec" stroke="none" stroke-width="1" fill="none" fill-rule="evenodd">
        <g id="Preview-image" transform="translate(-424.000000, -311.000000)">
            <g id="1" transform="translate(424.000000, 311.000000)">
                <g id="Group-17" transform="translate(0.000000, 57.267027)">
                    <path d="M0,495 L0,251.37848 L89.1223539,251.37848 L89.1223539,183.958936 L113.310034,183.958936 L113.310034,67.7129632 L155.250897,18.3702658 L193.222684,50.5869431 L193.222684,112.279243 L253.5,112.279243 L253.5,173.403275 L296.110041,173.403275 L296.110041,50.5869431 L361.269641,50.5869431 L361.269641,0 L416.879773,0 L416.879773,140.094633 L475.723303,140.094633 L475.723303,189.767892 L507,189.767892 L507,128.123876 L542.773088,128.123876 L542.773088,251.37848 L596.122354,251.37848 L596.122354,183.958936 L620.310034,183.958936 L620.310034,67.7129632 L662.250897,18.3702658 L700.222684,50.5869431 L700.222684,112.279243 L760.5,112.279243 L760.5,173.403275 L803.110041,173.403275 L803.110041,50.5869431 L868.269641,50.5869431 L868.269641,0 L923.879773,0 L923.879773,140.094633 L982.723303,140.094633 L982.723303,189.767892 L1014,189.767892 L1014,495 L0,495 Z" id="Combined-Shape" fill="url(#linearGradient-1)"></path>
                    <g id="Group-16" transform="translate(23.000000, 66.000000)" fill="#FFFFFF" opacity="0.100000001">
                        <g id="XMLID_492_" transform="translate(284.000000, 0.000000)" fill-rule="nonzero">
                            <path d="M64.6086957,9 L56.3913043,9 C56.3913043,9 56,9 56,8.60869565 L56,0.391304348 C56,0.391304348 56,0 56.3913043,0 L64.6086957,0 C64.6086957,0 65,0 65,0.391304348 L64.6086957,9 C65,9 64.6086957,9 64.6086957,9 Z M37.3913043,0 L45.6086957,0 C45.6086957,0 46,0 46,0.391304348 L46,8.60869565 C46,8.60869565 46,9 45.6086957,9 L37.3913043,9 C37.3913043,9 37,9 37,8.60869565 L37.3913043,0 C37.3913043,0 37.3913043,0 37.3913043,0 Z M19.3913043,0 L27.6086957,0 C27.6086957,0 28,0 28,0.391304348 L28,8.60869565 C28,8.60869565 28,9 27.6086957,9 L19.3913043,9 C19.3913043,9 19,9 19,8.60869565 L19.3913043,0 C19,0 19,0 19.3913043,0 Z M0.391304348,0 L8.60869565,0 C8.60869565,0 9,0 9,0.391304348 L9,8.60869565 C9,8.60869565 9,9 8.60869565,9 L0.391304348,9 C0.391304348,9 0,9 0,8.60869565 L0.391304348,0 C0.391304348,0 0.391304348,0 0.391304348,0 Z M64.6086957,27 L56.3913043,27 C56.3913043,27 56,27 56,26.6086957 L56,18.3913043 C56,18.3913043 56,18 56.3913043,18 L64.6086957,18 C64.6086957,18 65,18 65,18.3913043 L64.6086957,27 C65,26.6086957 64.6086957,27 64.6086957,27 Z M37.3913043,18 L45.6086957,18 C45.6086957,18 46,18 46,18.3913043 L46,26.6086957 C46,26.6086957 46,27 45.6086957,27 L37.3913043,27 C37.3913043,27 37,27 37,26.6086957 L37.3913043,18 C37.3913043,18.3913043 37.3913043,18 37.3913043,18 Z M19.3913043,18 L27.6086957,18 C27.6086957,18 28,18 28,18.3913043 L28,26.6086957 C28,26.6086957 28,27 27.6086957,27 L19.3913043,27 C19.3913043,27 19,27 19,26.6086957 L19.3913043,18 C19,18.3913043 19.3913043,18 19.3913043,18 Z M0.391304348,18 L8.60869565,18 C8.60869565,18 9,18 9,18.3913043 L9,26.6086957 C9,26.6086957 9,27 8.60869565,27 L0.391304348,27 C0.391304348,27 0,27 0,26.6086957 L0.391304348,18 C0.391304348,18.3913043 0.391304348,18 0.391304348,18 Z" id="Combined-Shape"></path>
                        </g>
                        <path d="M146.391304,0 L154.608696,0 C154.608696,0 155,0 155,0.391304348 L155,8.60869565 C155,8.60869565 155,9 154.608696,9 L146.391304,9 C146.391304,9 146,9 146,8.60869565 L146.391304,0 C146.391304,0 146.391304,0 146.391304,0 Z M128.391304,0 L136.608696,0 C136.608696,0 137,0 137,0.391304348 L137,8.60869565 C137,8.60869565 137,9 136.608696,9 L128.391304,9 C128.391304,9 128,9 128,8.60869565 L128.391304,0 C128,0 128.391304,0 128.391304,0 Z M110.391304,0 L118.608696,0 C118.608696,0 119,0 119,0.391304348 L119,8.60869565 C119,8.60869565 119,9 118.608696,9 L110.391304,9 C110.391304,9 110,9 110,8.60869565 L110.391304,0 C110.391304,0 110.391304,0 110.391304,0 Z M146.391304,18 L154.608696,18 C154.608696,18 155,18 155,18.3913043 L155,26.6086957 C155,26.6086957 155,27 154.608696,27 L146.391304,27 C146.391304,27 146,27 146,26.6086957 L146.391304,18 C146.391304,18 146.391304,18 146.391304,18 Z M128.391304,18 L136.608696,18 C136.608696,18 137,18 137,18.3913043 L137,26.6086957 C137,26.6086957 137,27 136.608696,27 L128.391304,27 C128.391304,27 128,27 128,26.6086957 L128.391304,18 C128,18 128.391304,18 128.391304,18 Z M110.391304,18 L118.608696,18 C118.608696,18 119,18 119,18.3913043 L119,26.6086957 C119,26.6086957 119,27 118.608696,27 L110.391304,27 C110.391304,27 110,27 110,26.6086957 L110.391304,18 C110.391304,18 110.391304,18 110.391304,18 Z M146.391304,34 L154.608696,34 C154.608696,34 155,34 155,34.3913043 L155,42.6086957 C155,42.6086957 155,43 154.608696,43 L146.391304,43 C146.391304,43 146,43 146,42.6086957 L146.391304,34 C146.391304,34.3913043 146.391304,34 146.391304,34 Z M128.391304,34 L136.608696,34 C136.608696,34 137,34 137,34.3913043 L137,42.6086957 C137,42.6086957 137,43 136.608696,43 L128.391304,43 C128.391304,43 128,43 128,42.6086957 L128.391304,34 C128,34.3913043 128.391304,34 128.391304,34 Z M110.391304,34 L118.608696,34 C118.608696,34 119,34 119,34.3913043 L119,42.6086957 C119,42.6086957 119,43 118.608696,43 L110.391304,43 C110.391304,43 110,43 110,42.6086957 L110.391304,34 C110.391304,34.3913043 110.391304,34 110.391304,34 Z" id="Combined-Shape"></path>
                        <path d="M651.391304,0 L659.608696,0 C659.608696,0 660,0 660,0.391304348 L660,8.60869565 C660,8.60869565 660,9 659.608696,9 L651.391304,9 C651.391304,9 651,9 651,8.60869565 L651.391304,0 C651.391304,0 651.391304,0 651.391304,0 Z M633.391304,0 L641.608696,0 C641.608696,0 642,0 642,0.391304348 L642,8.60869565 C642,8.60869565 642,9 641.608696,9 L633.391304,9 C633.391304,9 633,9 633,8.60869565 L633.391304,0 C633,0 633.391304,0 633.391304,0 Z M615.391304,0 L623.608696,0 C623.608696,0 624,0 624,0.391304348 L624,8.60869565 C624,8.60869565 624,9 623.608696,9 L615.391304,9 C615.391304,9 615,9 615,8.60869565 L615.391304,0 C615.391304,0 615.391304,0 615.391304,0 Z M651.391304,18 L659.608696,18 C659.608696,18 660,18 660,18.3913043 L660,26.6086957 C660,26.6086957 660,27 659.608696,27 L651.391304,27 C651.391304,27 651,27 651,26.6086957 L651.391304,18 C651.391304,18 651.391304,18 651.391304,18 Z M633.391304,18 L641.608696,18 C641.608696,18 642,18 642,18.3913043 L642,26.6086957 C642,26.6086957 642,27 641.608696,27 L633.391304,27 C633.391304,27 633,27 633,26.6086957 L633.391304,18 C633,18 633.391304,18 633.391304,18 Z M615.391304,18 L623.608696,18 C623.608696,18 624,18 624,18.3913043 L624,26.6086957 C624,26.6086957 624,27 623.608696,27 L615.391304,27 C615.391304,27 615,27 615,26.6086957 L615.391304,18 C615.391304,18 615.391304,18 615.391304,18 Z M651.391304,34 L659.608696,34 C659.608696,34 660,34 660,34.3913043 L660,42.6086957 C660,42.6086957 660,43 659.608696,43 L651.391304,43 C651.391304,43 651,43 651,42.6086957 L651.391304,34 C651.391304,34.3913043 651.391304,34 651.391304,34 Z M633.391304,34 L641.608696,34 C641.608696,34 642,34 642,34.3913043 L642,42.6086957 C642,42.6086957 642,43 641.608696,43 L633.391304,43 C633.391304,43 633,43 633,42.6086957 L633.391304,34 C633,34.3913043 633.391304,34 633.391304,34 Z M615.391304,34 L623.608696,34 C623.608696,34 624,34 624,34.3913043 L624,42.6086957 C624,42.6086957 624,43 623.608696,43 L615.391304,43 C615.391304,43 615,43 615,42.6086957 L615.391304,34 C615.391304,34.3913043 615.391304,34 615.391304,34 Z" id="Combined-Shape-Copy"></path>
                        <path d="M830.391304,0 L838.608696,0 C838.608696,0 839,0 839,0.391304348 L839,8.60869565 C839,8.60869565 839,9 838.608696,9 L830.391304,9 C830.391304,9 830,9 830,8.60869565 L830.391304,0 C830.391304,0 830.391304,0 830.391304,0 Z M812.391304,0 L820.608696,0 C820.608696,0 821,0 821,0.391304348 L821,8.60869565 C821,8.60869565 821,9 820.608696,9 L812.391304,9 C812.391304,9 812,9 812,8.60869565 L812.391304,0 C812,0 812.391304,0 812.391304,0 Z M794.391304,0 L802.608696,0 C802.608696,0 803,0 803,0.391304348 L803,8.60869565 C803,8.60869565 803,9 802.608696,9 L794.391304,9 C794.391304,9 794,9 794,8.60869565 L794.391304,0 C794.391304,0 794.391304,0 794.391304,0 Z M830.391304,18 L838.608696,18 C838.608696,18 839,18 839,18.3913043 L839,26.6086957 C839,26.6086957 839,27 838.608696,27 L830.391304,27 C830.391304,27 830,27 830,26.6086957 L830.391304,18 C830.391304,18 830.391304,18 830.391304,18 Z M812.391304,18 L820.608696,18 C820.608696,18 821,18 821,18.3913043 L821,26.6086957 C821,26.6086957 821,27 820.608696,27 L812.391304,27 C812.391304,27 812,27 812,26.6086957 L812.391304,18 C812,18 812.391304,18 812.391304,18 Z M794.391304,18 L802.608696,18 C802.608696,18 803,18 803,18.3913043 L803,26.6086957 C803,26.6086957 803,27 802.608696,27 L794.391304,27 C794.391304,27 794,27 794,26.6086957 L794.391304,18 C794.391304,18 794.391304,18 794.391304,18 Z M830.391304,34 L838.608696,34 C838.608696,34 839,34 839,34.3913043 L839,42.6086957 C839,42.6086957 839,43 838.608696,43 L830.391304,43 C830.391304,43 830,43 830,42.6086957 L830.391304,34 C830.391304,34.3913043 830.391304,34 830.391304,34 Z M812.391304,34 L820.608696,34 C820.608696,34 821,34 821,34.3913043 L821,42.6086957 C821,42.6086957 821,43 820.608696,43 L812.391304,43 C812.391304,43 812,43 812,42.6086957 L812.391304,34 C812,34.3913043 812.391304,34 812.391304,34 Z M794.391304,34 L802.608696,34 C802.608696,34 803,34 803,34.3913043 L803,42.6086957 C803,42.6086957 803,43 802.608696,43 L794.391304,43 C794.391304,43 794,43 794,42.6086957 L794.391304,34 C794.391304,34.3913043 794.391304,34 794.391304,34 Z" id="Combined-Shape-Copy-2"></path>
                        <g id="XMLID_492_-Copy" transform="translate(284.000000, 64.000000)" fill-rule="nonzero">
                            <path d="M64.6086957,9 L56.3913043,9 C56.3913043,9 56,9 56,8.60869565 L56,0.391304348 C56,0.391304348 56,0 56.3913043,0 L64.6086957,0 C64.6086957,0 65,0 65,0.391304348 L64.6086957,9 C65,9 64.6086957,9 64.6086957,9 Z M37.3913043,0 L45.6086957,0 C45.6086957,0 46,0 46,0.391304348 L46,8.60869565 C46,8.60869565 46,9 45.6086957,9 L37.3913043,9 C37.3913043,9 37,9 37,8.60869565 L37.3913043,0 C37.3913043,0 37.3913043,0 37.3913043,0 Z M19.3913043,0 L27.6086957,0 C27.6086957,0 28,0 28,0.391304348 L28,8.60869565 C28,8.60869565 28,9 27.6086957,9 L19.3913043,9 C19.3913043,9 19,9 19,8.60869565 L19.3913043,0 C19,0 19,0 19.3913043,0 Z M0.391304348,0 L8.60869565,0 C8.60869565,0 9,0 9,0.391304348 L9,8.60869565 C9,8.60869565 9,9 8.60869565,9 L0.391304348,9 C0.391304348,9 0,9 0,8.60869565 L0.391304348,0 C0.391304348,0 0.391304348,0 0.391304348,0 Z M64.6086957,27 L56.3913043,27 C56.3913043,27 56,27 56,26.6086957 L56,18.3913043 C56,18.3913043 56,18 56.3913043,18 L64.6086957,18 C64.6086957,18 65,18 65,18.3913043 L64.6086957,27 C65,26.6086957 64.6086957,27 64.6086957,27 Z M37.3913043,18 L45.6086957,18 C45.6086957,18 46,18 46,18.3913043 L46,26.6086957 C46,26.6086957 46,27 45.6086957,27 L37.3913043,27 C37.3913043,27 37,27 37,26.6086957 L37.3913043,18 C37.3913043,18.3913043 37.3913043,18 37.3913043,18 Z M19.3913043,18 L27.6086957,18 C27.6086957,18 28,18 28,18.3913043 L28,26.6086957 C28,26.6086957 28,27 27.6086957,27 L19.3913043,27 C19.3913043,27 19,27 19,26.6086957 L19.3913043,18 C19,18.3913043 19.3913043,18 19.3913043,18 Z M0.391304348,18 L8.60869565,18 C8.60869565,18 9,18 9,18.3913043 L9,26.6086957 C9,26.6086957 9,27 8.60869565,27 L0.391304348,27 C0.391304348,27 0,27 0,26.6086957 L0.391304348,18 C0.391304348,18.3913043 0.391304348,18 0.391304348,18 Z" id="Combined-Shape"></path>
                        </g>
                        <path d="M146.391304,64 L154.608696,64 C154.608696,64 155,64 155,64.3913043 L155,72.6086957 C155,72.6086957 155,73 154.608696,73 L146.391304,73 C146.391304,73 146,73 146,72.6086957 L146.391304,64 C146.391304,64 146.391304,64 146.391304,64 Z M128.391304,64 L136.608696,64 C136.608696,64 137,64 137,64.3913043 L137,72.6086957 C137,72.6086957 137,73 136.608696,73 L128.391304,73 C128.391304,73 128,73 128,72.6086957 L128.391304,64 C128,64 128.391304,64 128.391304,64 Z M110.391304,64 L118.608696,64 C118.608696,64 119,64 119,64.3913043 L119,72.6086957 C119,72.6086957 119,73 118.608696,73 L110.391304,73 C110.391304,73 110,73 110,72.6086957 L110.391304,64 C110.391304,64 110.391304,64 110.391304,64 Z M146.391304,82 L154.608696,82 C154.608696,82 155,82 155,82.3913043 L155,90.6086957 C155,90.6086957 155,91 154.608696,91 L146.391304,91 C146.391304,91 146,91 146,90.6086957 L146.391304,82 C146.391304,82 146.391304,82 146.391304,82 Z M128.391304,82 L136.608696,82 C136.608696,82 137,82 137,82.3913043 L137,90.6086957 C137,90.6086957 137,91 136.608696,91 L128.391304,91 C128.391304,91 128,91 128,90.6086957 L128.391304,82 C128,82 128.391304,82 128.391304,82 Z M110.391304,82 L118.608696,82 C118.608696,82 119,82 119,82.3913043 L119,90.6086957 C119,90.6086957 119,91 118.608696,91 L110.391304,91 C110.391304,91 110,91 110,90.6086957 L110.391304,82 C110.391304,82 110.391304,82 110.391304,82 Z M146.391304,98 L154.608696,98 C154.608696,98 155,98 155,98.3913043 L155,106.608696 C155,106.608696 155,107 154.608696,107 L146.391304,107 C146.391304,107 146,107 146,106.608696 L146.391304,98 C146.391304,98.3913043 146.391304,98 146.391304,98 Z M128.391304,98 L136.608696,98 C136.608696,98 137,98 137,98.3913043 L137,106.608696 C137,106.608696 137,107 136.608696,107 L128.391304,107 C128.391304,107 128,107 128,106.608696 L128.391304,98 C128,98.3913043 128.391304,98 128.391304,98 Z M110.391304,98 L118.608696,98 C118.608696,98 119,98 119,98.3913043 L119,106.608696 C119,106.608696 119,107 118.608696,107 L110.391304,107 C110.391304,107 110,107 110,106.608696 L110.391304,98 C110.391304,98.3913043 110.391304,98 110.391304,98 Z" id="Combined-Shape-Copy-5"></path>
                        <path d="M651.391304,64 L659.608696,64 C659.608696,64 660,64 660,64.3913043 L660,72.6086957 C660,72.6086957 660,73 659.608696,73 L651.391304,73 C651.391304,73 651,73 651,72.6086957 L651.391304,64 C651.391304,64 651.391304,64 651.391304,64 Z M633.391304,64 L641.608696,64 C641.608696,64 642,64 642,64.3913043 L642,72.6086957 C642,72.6086957 642,73 641.608696,73 L633.391304,73 C633.391304,73 633,73 633,72.6086957 L633.391304,64 C633,64 633.391304,64 633.391304,64 Z M615.391304,64 L623.608696,64 C623.608696,64 624,64 624,64.3913043 L624,72.6086957 C624,72.6086957 624,73 623.608696,73 L615.391304,73 C615.391304,73 615,73 615,72.6086957 L615.391304,64 C615.391304,64 615.391304,64 615.391304,64 Z M651.391304,82 L659.608696,82 C659.608696,82 660,82 660,82.3913043 L660,90.6086957 C660,90.6086957 660,91 659.608696,91 L651.391304,91 C651.391304,91 651,91 651,90.6086957 L651.391304,82 C651.391304,82 651.391304,82 651.391304,82 Z M633.391304,82 L641.608696,82 C641.608696,82 642,82 642,82.3913043 L642,90.6086957 C642,90.6086957 642,91 641.608696,91 L633.391304,91 C633.391304,91 633,91 633,90.6086957 L633.391304,82 C633,82 633.391304,82 633.391304,82 Z M615.391304,82 L623.608696,82 C623.608696,82 624,82 624,82.3913043 L624,90.6086957 C624,90.6086957 624,91 623.608696,91 L615.391304,91 C615.391304,91 615,91 615,90.6086957 L615.391304,82 C615.391304,82 615.391304,82 615.391304,82 Z M651.391304,98 L659.608696,98 C659.608696,98 660,98 660,98.3913043 L660,106.608696 C660,106.608696 660,107 659.608696,107 L651.391304,107 C651.391304,107 651,107 651,106.608696 L651.391304,98 C651.391304,98.3913043 651.391304,98 651.391304,98 Z M633.391304,98 L641.608696,98 C641.608696,98 642,98 642,98.3913043 L642,106.608696 C642,106.608696 642,107 641.608696,107 L633.391304,107 C633.391304,107 633,107 633,106.608696 L633.391304,98 C633,98.3913043 633.391304,98 633.391304,98 Z M615.391304,98 L623.608696,98 C623.608696,98 624,98 624,98.3913043 L624,106.608696 C624,106.608696 624,107 623.608696,107 L615.391304,107 C615.391304,107 615,107 615,106.608696 L615.391304,98 C615.391304,98.3913043 615.391304,98 615.391304,98 Z" id="Combined-Shape-Copy-4"></path>
                        <path d="M830.391304,64 L838.608696,64 C838.608696,64 839,64 839,64.3913043 L839,72.6086957 C839,72.6086957 839,73 838.608696,73 L830.391304,73 C830.391304,73 830,73 830,72.6086957 L830.391304,64 C830.391304,64 830.391304,64 830.391304,64 Z M812.391304,64 L820.608696,64 C820.608696,64 821,64 821,64.3913043 L821,72.6086957 C821,72.6086957 821,73 820.608696,73 L812.391304,73 C812.391304,73 812,73 812,72.6086957 L812.391304,64 C812,64 812.391304,64 812.391304,64 Z M794.391304,64 L802.608696,64 C802.608696,64 803,64 803,64.3913043 L803,72.6086957 C803,72.6086957 803,73 802.608696,73 L794.391304,73 C794.391304,73 794,73 794,72.6086957 L794.391304,64 C794.391304,64 794.391304,64 794.391304,64 Z M830.391304,82 L838.608696,82 C838.608696,82 839,82 839,82.3913043 L839,90.6086957 C839,90.6086957 839,91 838.608696,91 L830.391304,91 C830.391304,91 830,91 830,90.6086957 L830.391304,82 C830.391304,82 830.391304,82 830.391304,82 Z M812.391304,82 L820.608696,82 C820.608696,82 821,82 821,82.3913043 L821,90.6086957 C821,90.6086957 821,91 820.608696,91 L812.391304,91 C812.391304,91 812,91 812,90.6086957 L812.391304,82 C812,82 812.391304,82 812.391304,82 Z M794.391304,82 L802.608696,82 C802.608696,82 803,82 803,82.3913043 L803,90.6086957 C803,90.6086957 803,91 802.608696,91 L794.391304,91 C794.391304,91 794,91 794,90.6086957 L794.391304,82 C794.391304,82 794.391304,82 794.391304,82 Z M830.391304,98 L838.608696,98 C838.608696,98 839,98 839,98.3913043 L839,106.608696 C839,106.608696 839,107 838.608696,107 L830.391304,107 C830.391304,107 830,107 830,106.608696 L830.391304,98 C830.391304,98.3913043 830.391304,98 830.391304,98 Z M812.391304,98 L820.608696,98 C820.608696,98 821,98 821,98.3913043 L821,106.608696 C821,106.608696 821,107 820.608696,107 L812.391304,107 C812.391304,107 812,107 812,106.608696 L812.391304,98 C812,98.3913043 812.391304,98 812.391304,98 Z M794.391304,98 L802.608696,98 C802.608696,98 803,98 803,98.3913043 L803,106.608696 C803,106.608696 803,107 802.608696,107 L794.391304,107 C794.391304,107 794,107 794,106.608696 L794.391304,98 C794.391304,98.3913043 794.391304,98 794.391304,98 Z" id="Combined-Shape-Copy-3"></path>
                        <g id="XMLID_492_-Copy-2" transform="translate(284.000000, 139.000000)" fill-rule="nonzero">
                            <path d="M64.6086957,9 L56.3913043,9 C56.3913043,9 56,9 56,8.60869565 L56,0.391304348 C56,0.391304348 56,0 56.3913043,0 L64.6086957,0 C64.6086957,0 65,0 65,0.391304348 L64.6086957,9 C65,9 64.6086957,9 64.6086957,9 Z M37.3913043,0 L45.6086957,0 C45.6086957,0 46,0 46,0.391304348 L46,8.60869565 C46,8.60869565 46,9 45.6086957,9 L37.3913043,9 C37.3913043,9 37,9 37,8.60869565 L37.3913043,0 C37.3913043,0 37.3913043,0 37.3913043,0 Z M19.3913043,0 L27.6086957,0 C27.6086957,0 28,0 28,0.391304348 L28,8.60869565 C28,8.60869565 28,9 27.6086957,9 L19.3913043,9 C19.3913043,9 19,9 19,8.60869565 L19.3913043,0 C19,0 19,0 19.3913043,0 Z M0.391304348,0 L8.60869565,0 C8.60869565,0 9,0 9,0.391304348 L9,8.60869565 C9,8.60869565 9,9 8.60869565,9 L0.391304348,9 C0.391304348,9 0,9 0,8.60869565 L0.391304348,0 C0.391304348,0 0.391304348,0 0.391304348,0 Z M64.6086957,27 L56.3913043,27 C56.3913043,27 56,27 56,26.6086957 L56,18.3913043 C56,18.3913043 56,18 56.3913043,18 L64.6086957,18 C64.6086957,18 65,18 65,18.3913043 L64.6086957,27 C65,26.6086957 64.6086957,27 64.6086957,27 Z M37.3913043,18 L45.6086957,18 C45.6086957,18 46,18 46,18.3913043 L46,26.6086957 C46,26.6086957 46,27 45.6086957,27 L37.3913043,27 C37.3913043,27 37,27 37,26.6086957 L37.3913043,18 C37.3913043,18.3913043 37.3913043,18 37.3913043,18 Z M19.3913043,18 L27.6086957,18 C27.6086957,18 28,18 28,18.3913043 L28,26.6086957 C28,26.6086957 28,27 27.6086957,27 L19.3913043,27 C19.3913043,27 19,27 19,26.6086957 L19.3913043,18 C19,18.3913043 19.3913043,18 19.3913043,18 Z M0.391304348,18 L8.60869565,18 C8.60869565,18 9,18 9,18.3913043 L9,26.6086957 C9,26.6086957 9,27 8.60869565,27 L0.391304348,27 C0.391304348,27 0,27 0,26.6086957 L0.391304348,18 C0.391304348,18.3913043 0.391304348,18 0.391304348,18 Z" id="Combined-Shape"></path>
                        </g>
                        <path d="M146.391304,139 L154.608696,139 C154.608696,139 155,139 155,139.391304 L155,147.608696 C155,147.608696 155,148 154.608696,148 L146.391304,148 C146.391304,148 146,148 146,147.608696 L146.391304,139 C146.391304,139 146.391304,139 146.391304,139 Z M128.391304,139 L136.608696,139 C136.608696,139 137,139 137,139.391304 L137,147.608696 C137,147.608696 137,148 136.608696,148 L128.391304,148 C128.391304,148 128,148 128,147.608696 L128.391304,139 C128,139 128.391304,139 128.391304,139 Z M110.391304,139 L118.608696,139 C118.608696,139 119,139 119,139.391304 L119,147.608696 C119,147.608696 119,148 118.608696,148 L110.391304,148 C110.391304,148 110,148 110,147.608696 L110.391304,139 C110.391304,139 110.391304,139 110.391304,139 Z M146.391304,157 L154.608696,157 C154.608696,157 155,157 155,157.391304 L155,165.608696 C155,165.608696 155,166 154.608696,166 L146.391304,166 C146.391304,166 146,166 146,165.608696 L146.391304,157 C146.391304,157 146.391304,157 146.391304,157 Z M128.391304,157 L136.608696,157 C136.608696,157 137,157 137,157.391304 L137,165.608696 C137,165.608696 137,166 136.608696,166 L128.391304,166 C128.391304,166 128,166 128,165.608696 L128.391304,157 C128,157 128.391304,157 128.391304,157 Z M110.391304,157 L118.608696,157 C118.608696,157 119,157 119,157.391304 L119,165.608696 C119,165.608696 119,166 118.608696,166 L110.391304,166 C110.391304,166 110,166 110,165.608696 L110.391304,157 C110.391304,157 110.391304,157 110.391304,157 Z M146.391304,173 L154.608696,173 C154.608696,173 155,173 155,173.391304 L155,181.608696 C155,181.608696 155,182 154.608696,182 L146.391304,182 C146.391304,182 146,182 146,181.608696 L146.391304,173 C146.391304,173.391304 146.391304,173 146.391304,173 Z M128.391304,173 L136.608696,173 C136.608696,173 137,173 137,173.391304 L137,181.608696 C137,181.608696 137,182 136.608696,182 L128.391304,182 C128.391304,182 128,182 128,181.608696 L128.391304,173 C128,173.391304 128.391304,173 128.391304,173 Z M110.391304,173 L118.608696,173 C118.608696,173 119,173 119,173.391304 L119,181.608696 C119,181.608696 119,182 118.608696,182 L110.391304,182 C110.391304,182 110,182 110,181.608696 L110.391304,173 C110.391304,173.391304 110.391304,173 110.391304,173 Z" id="Combined-Shape-Copy-8"></path>
                        <path d="M36.3913043,202 L44.6086957,202 C44.6086957,202 45,202 45,202.391304 L45,210.608696 C45,210.608696 45,211 44.6086957,211 L36.3913043,211 C36.3913043,211 36,211 36,210.608696 L36.3913043,202 C36.3913043,202 36.3913043,202 36.3913043,202 Z M18.3913043,202 L26.6086957,202 C26.6086957,202 27,202 27,202.391304 L27,210.608696 C27,210.608696 27,211 26.6086957,211 L18.3913043,211 C18.3913043,211 18,211 18,210.608696 L18.3913043,202 C18,202 18.3913043,202 18.3913043,202 Z M0.391304348,202 L8.60869565,202 C8.60869565,202 9,202 9,202.391304 L9,210.608696 C9,210.608696 9,211 8.60869565,211 L0.391304348,211 C0.391304348,211 0,211 0,210.608696 L0.391304348,202 C0.391304348,202 0.391304348,202 0.391304348,202 Z M36.3913043,220 L44.6086957,220 C44.6086957,220 45,220 45,220.391304 L45,228.608696 C45,228.608696 45,229 44.6086957,229 L36.3913043,229 C36.3913043,229 36,229 36,228.608696 L36.3913043,220 C36.3913043,220 36.3913043,220 36.3913043,220 Z M18.3913043,220 L26.6086957,220 C26.6086957,220 27,220 27,220.391304 L27,228.608696 C27,228.608696 27,229 26.6086957,229 L18.3913043,229 C18.3913043,229 18,229 18,228.608696 L18.3913043,220 C18,220 18.3913043,220 18.3913043,220 Z M0.391304348,220 L8.60869565,220 C8.60869565,220 9,220 9,220.391304 L9,228.608696 C9,228.608696 9,229 8.60869565,229 L0.391304348,229 C0.391304348,229 0,229 0,228.608696 L0.391304348,220 C0.391304348,220 0.391304348,220 0.391304348,220 Z M36.3913043,236 L44.6086957,236 C44.6086957,236 45,236 45,236.391304 L45,244.608696 C45,244.608696 45,245 44.6086957,245 L36.3913043,245 C36.3913043,245 36,245 36,244.608696 L36.3913043,236 C36.3913043,236.391304 36.3913043,236 36.3913043,236 Z M18.3913043,236 L26.6086957,236 C26.6086957,236 27,236 27,236.391304 L27,244.608696 C27,244.608696 27,245 26.6086957,245 L18.3913043,245 C18.3913043,245 18,245 18,244.608696 L18.3913043,236 C18,236.391304 18.3913043,236 18.3913043,236 Z M0.391304348,236 L8.60869565,236 C8.60869565,236 9,236 9,236.391304 L9,244.608696 C9,244.608696 9,245 8.60869565,245 L0.391304348,245 C0.391304348,245 0,245 0,244.608696 L0.391304348,236 C0.391304348,236.391304 0.391304348,236 0.391304348,236 Z" id="Combined-Shape-Copy-10"></path>
                        <path d="M651.391304,139 L659.608696,139 C659.608696,139 660,139 660,139.391304 L660,147.608696 C660,147.608696 660,148 659.608696,148 L651.391304,148 C651.391304,148 651,148 651,147.608696 L651.391304,139 C651.391304,139 651.391304,139 651.391304,139 Z M633.391304,139 L641.608696,139 C641.608696,139 642,139 642,139.391304 L642,147.608696 C642,147.608696 642,148 641.608696,148 L633.391304,148 C633.391304,148 633,148 633,147.608696 L633.391304,139 C633,139 633.391304,139 633.391304,139 Z M615.391304,139 L623.608696,139 C623.608696,139 624,139 624,139.391304 L624,147.608696 C624,147.608696 624,148 623.608696,148 L615.391304,148 C615.391304,148 615,148 615,147.608696 L615.391304,139 C615.391304,139 615.391304,139 615.391304,139 Z M651.391304,157 L659.608696,157 C659.608696,157 660,157 660,157.391304 L660,165.608696 C660,165.608696 660,166 659.608696,166 L651.391304,166 C651.391304,166 651,166 651,165.608696 L651.391304,157 C651.391304,157 651.391304,157 651.391304,157 Z M633.391304,157 L641.608696,157 C641.608696,157 642,157 642,157.391304 L642,165.608696 C642,165.608696 642,166 641.608696,166 L633.391304,166 C633.391304,166 633,166 633,165.608696 L633.391304,157 C633,157 633.391304,157 633.391304,157 Z M615.391304,157 L623.608696,157 C623.608696,157 624,157 624,157.391304 L624,165.608696 C624,165.608696 624,166 623.608696,166 L615.391304,166 C615.391304,166 615,166 615,165.608696 L615.391304,157 C615.391304,157 615.391304,157 615.391304,157 Z M651.391304,173 L659.608696,173 C659.608696,173 660,173 660,173.391304 L660,181.608696 C660,181.608696 660,182 659.608696,182 L651.391304,182 C651.391304,182 651,182 651,181.608696 L651.391304,173 C651.391304,173.391304 651.391304,173 651.391304,173 Z M633.391304,173 L641.608696,173 C641.608696,173 642,173 642,173.391304 L642,181.608696 C642,181.608696 642,182 641.608696,182 L633.391304,182 C633.391304,182 633,182 633,181.608696 L633.391304,173 C633,173.391304 633.391304,173 633.391304,173 Z M615.391304,173 L623.608696,173 C623.608696,173 624,173 624,173.391304 L624,181.608696 C624,181.608696 624,182 623.608696,182 L615.391304,182 C615.391304,182 615,182 615,181.608696 L615.391304,173 C615.391304,173.391304 615.391304,173 615.391304,173 Z" id="Combined-Shape-Copy-7"></path>
                        <path d="M830.391304,139 L838.608696,139 C838.608696,139 839,139 839,139.391304 L839,147.608696 C839,147.608696 839,148 838.608696,148 L830.391304,148 C830.391304,148 830,148 830,147.608696 L830.391304,139 C830.391304,139 830.391304,139 830.391304,139 Z M812.391304,139 L820.608696,139 C820.608696,139 821,139 821,139.391304 L821,147.608696 C821,147.608696 821,148 820.608696,148 L812.391304,148 C812.391304,148 812,148 812,147.608696 L812.391304,139 C812,139 812.391304,139 812.391304,139 Z M794.391304,139 L802.608696,139 C802.608696,139 803,139 803,139.391304 L803,147.608696 C803,147.608696 803,148 802.608696,148 L794.391304,148 C794.391304,148 794,148 794,147.608696 L794.391304,139 C794.391304,139 794.391304,139 794.391304,139 Z M830.391304,157 L838.608696,157 C838.608696,157 839,157 839,157.391304 L839,165.608696 C839,165.608696 839,166 838.608696,166 L830.391304,166 C830.391304,166 830,166 830,165.608696 L830.391304,157 C830.391304,157 830.391304,157 830.391304,157 Z M812.391304,157 L820.608696,157 C820.608696,157 821,157 821,157.391304 L821,165.608696 C821,165.608696 821,166 820.608696,166 L812.391304,166 C812.391304,166 812,166 812,165.608696 L812.391304,157 C812,157 812.391304,157 812.391304,157 Z M794.391304,157 L802.608696,157 C802.608696,157 803,157 803,157.391304 L803,165.608696 C803,165.608696 803,166 802.608696,166 L794.391304,166 C794.391304,166 794,166 794,165.608696 L794.391304,157 C794.391304,157 794.391304,157 794.391304,157 Z M830.391304,173 L838.608696,173 C838.608696,173 839,173 839,173.391304 L839,181.608696 C839,181.608696 839,182 838.608696,182 L830.391304,182 C830.391304,182 830,182 830,181.608696 L830.391304,173 C830.391304,173.391304 830.391304,173 830.391304,173 Z M812.391304,173 L820.608696,173 C820.608696,173 821,173 821,173.391304 L821,181.608696 C821,181.608696 821,182 820.608696,182 L812.391304,182 C812.391304,182 812,182 812,181.608696 L812.391304,173 C812,173.391304 812.391304,173 812.391304,173 Z M794.391304,173 L802.608696,173 C802.608696,173 803,173 803,173.391304 L803,181.608696 C803,181.608696 803,182 802.608696,182 L794.391304,182 C794.391304,182 794,182 794,181.608696 L794.391304,173 C794.391304,173.391304 794.391304,173 794.391304,173 Z" id="Combined-Shape-Copy-6"></path>
                        <path d="M938.391304,85 L946.608696,85 C946.608696,85 947,85 947,85.3913043 L947,93.6086957 C947,93.6086957 947,94 946.608696,94 L938.391304,94 C938.391304,94 938,94 938,93.6086957 L938.391304,85 C938.391304,85 938.391304,85 938.391304,85 Z M920.391304,85 L928.608696,85 C928.608696,85 929,85 929,85.3913043 L929,93.6086957 C929,93.6086957 929,94 928.608696,94 L920.391304,94 C920.391304,94 920,94 920,93.6086957 L920.391304,85 C920,85 920.391304,85 920.391304,85 Z M902.391304,85 L910.608696,85 C910.608696,85 911,85 911,85.3913043 L911,93.6086957 C911,93.6086957 911,94 910.608696,94 L902.391304,94 C902.391304,94 902,94 902,93.6086957 L902.391304,85 C902.391304,85 902.391304,85 902.391304,85 Z M938.391304,103 L946.608696,103 C946.608696,103 947,103 947,103.391304 L947,111.608696 C947,111.608696 947,112 946.608696,112 L938.391304,112 C938.391304,112 938,112 938,111.608696 L938.391304,103 C938.391304,103 938.391304,103 938.391304,103 Z M920.391304,103 L928.608696,103 C928.608696,103 929,103 929,103.391304 L929,111.608696 C929,111.608696 929,112 928.608696,112 L920.391304,112 C920.391304,112 920,112 920,111.608696 L920.391304,103 C920,103 920.391304,103 920.391304,103 Z M902.391304,103 L910.608696,103 C910.608696,103 911,103 911,103.391304 L911,111.608696 C911,111.608696 911,112 910.608696,112 L902.391304,112 C902.391304,112 902,112 902,111.608696 L902.391304,103 C902.391304,103 902.391304,103 902.391304,103 Z M938.391304,119 L946.608696,119 C946.608696,119 947,119 947,119.391304 L947,127.608696 C947,127.608696 947,128 946.608696,128 L938.391304,128 C938.391304,128 938,128 938,127.608696 L938.391304,119 C938.391304,119.391304 938.391304,119 938.391304,119 Z M920.391304,119 L928.608696,119 C928.608696,119 929,119 929,119.391304 L929,127.608696 C929,127.608696 929,128 928.608696,128 L920.391304,128 C920.391304,128 920,128 920,127.608696 L920.391304,119 C920,119.391304 920.391304,119 920.391304,119 Z M902.391304,119 L910.608696,119 C910.608696,119 911,119 911,119.391304 L911,127.608696 C911,127.608696 911,128 910.608696,128 L902.391304,128 C902.391304,128 902,128 902,127.608696 L902.391304,119 C902.391304,119.391304 902.391304,119 902.391304,119 Z" id="Combined-Shape-Copy-9"></path>
                        <path d="M938.391304,165 L946.608696,165 C946.608696,165 947,165 947,165.391304 L947,173.608696 C947,173.608696 947,174 946.608696,174 L938.391304,174 C938.391304,174 938,174 938,173.608696 L938.391304,165 C938.391304,165 938.391304,165 938.391304,165 Z M920.391304,165 L928.608696,165 C928.608696,165 929,165 929,165.391304 L929,173.608696 C929,173.608696 929,174 928.608696,174 L920.391304,174 C920.391304,174 920,174 920,173.608696 L920.391304,165 C920,165 920.391304,165 920.391304,165 Z M902.391304,165 L910.608696,165 C910.608696,165 911,165 911,165.391304 L911,173.608696 C911,173.608696 911,174 910.608696,174 L902.391304,174 C902.391304,174 902,174 902,173.608696 L902.391304,165 C902.391304,165 902.391304,165 902.391304,165 Z M938.391304,183 L946.608696,183 C946.608696,183 947,183 947,183.391304 L947,191.608696 C947,191.608696 947,192 946.608696,192 L938.391304,192 C938.391304,192 938,192 938,191.608696 L938.391304,183 C938.391304,183 938.391304,183 938.391304,183 Z M920.391304,183 L928.608696,183 C928.608696,183 929,183 929,183.391304 L929,191.608696 C929,191.608696 929,192 928.608696,192 L920.391304,192 C920.391304,192 920,192 920,191.608696 L920.391304,183 C920,183 920.391304,183 920.391304,183 Z M902.391304,183 L910.608696,183 C910.608696,183 911,183 911,183.391304 L911,191.608696 C911,191.608696 911,192 910.608696,192 L902.391304,192 C902.391304,192 902,192 902,191.608696 L902.391304,183 C902.391304,183 902.391304,183 902.391304,183 Z M938.391304,199 L946.608696,199 C946.608696,199 947,199 947,199.391304 L947,207.608696 C947,207.608696 947,208 946.608696,208 L938.391304,208 C938.391304,208 938,208 938,207.608696 L938.391304,199 C938.391304,199.391304 938.391304,199 938.391304,199 Z M920.391304,199 L928.608696,199 C928.608696,199 929,199 929,199.391304 L929,207.608696 C929,207.608696 929,208 928.608696,208 L920.391304,208 C920.391304,208 920,208 920,207.608696 L920.391304,199 C920,199.391304 920.391304,199 920.391304,199 Z M902.391304,199 L910.608696,199 C910.608696,199 911,199 911,199.391304 L911,207.608696 C911,207.608696 911,208 910.608696,208 L902.391304,208 C902.391304,208 902,208 902,207.608696 L902.391304,199 C902.391304,199.391304 902.391304,199 902.391304,199 Z" id="Combined-Shape-Copy-11"></path>
                    </g>
                </g>
                <g id="1-copy" transform="translate(110.000000, 0.000000)">
                    <g id="Group-8-Copy" transform="translate(57.197633, 0.000000)">
                        <g id="Group-10" transform="translate(20.010041, 167.343088)">
                            <g id="Group-7" transform="translate(0.000000, 181.409422)">
                                <rect id="Rectangle" fill="#EEC3A0" fill-rule="nonzero" transform="translate(26.292326, 19.014517) rotate(27.000000) translate(-26.292326, -19.014517) " x="16.7923256" y="2.5145174" width="19" height="33"></rect>
                                <path d="M12.6310464,18.5878939 C17.558938,24.4593661 24.6351262,27.0111435 33.8596112,26.2432258 C43.5676447,39.8835298 51.2274006,47.8159194 56.8388788,50.0403946 C65.2560961,53.3771075 66.1490203,58.2898644 51.2312406,58.2898644 C36.3134609,58.2898644 35.5114551,58.4926812 33.0053869,56.7576437 C31.3346748,55.600952 26.7119558,51.5800066 19.13723,44.6948073 L15.9043686,48.3743407 C5.30145621,41.7185091 0,38.1329828 0,37.6177617 C0,37.1025406 4.21034881,30.7592513 12.6310464,18.5878939 Z" id="Path-7" fill="#1D2336"></path>
                                <path d="M3.05522515,32.6284633 L3.46057223,32.0185142 L3.46057223,32.0185142 L4.4036675,32.795526 L4.4036675,32.795526 L5.23369685,33.4693163 L5.23369685,33.4693163 L6.04249143,34.1156306 L6.04249143,34.1156306 L6.83005123,34.7344688 C6.95954163,34.8353189 7.08814725,34.9350241 7.21586809,35.0335844 L7.97157574,35.6112087 L7.97157574,35.6112087 L8.70604861,36.1613569 L8.70604861,36.1613569 L9.41928671,36.6840291 L9.41928671,36.6840291 L10.11129,37.1792252 L10.11129,37.1792252 L10.7820586,37.6469454 L10.7820586,37.6469454 L11.4315924,38.0871895 L11.4315924,38.0871895 L12.0598914,38.4999576 C12.1628383,38.5664626 12.2649005,38.6318228 12.3660778,38.6960381 L12.9625247,39.0675922 L12.9625247,39.0675922 L13.5377368,39.4116702 L13.5377368,39.4116702 L14.0917141,39.7282723 C14.1822741,39.7787496 14.2719493,39.8280821 14.3607397,39.8762698 L14.8828648,40.1516577 C15.9058803,40.6749577 16.8014872,41.0334015 17.5696855,41.2269892 C18.9602665,41.5774188 20.5913253,42.791006 22.4363321,44.3542144 L23.0963514,44.919616 L23.0963514,44.919616 L25.5425943,47.0547298 L25.5425943,47.0547298 L26.279359,47.6886972 C26.4035221,47.7946177 26.5283661,47.9005982 26.6538856,48.0065342 L27.4150656,48.6407792 C30.3636644,51.0635914 33.6638924,53.3522476 37.2500489,54.2349794 C38.5740114,54.5608725 40.1145604,54.8098974 41.871696,54.982054 L42.6980606,55.0560528 C42.8383512,55.0674762 42.9799234,55.0784449 43.1227771,55.0889586 L43.9952785,55.1465831 L43.9952785,55.1465831 L44.8985377,55.1932914 C45.051644,55.2001665 45.206032,55.2065867 45.3617015,55.212552 L46.3110975,55.242886 C46.4718933,55.247032 46.6339707,55.2507231 46.7973297,55.2539594 L47.7928625,55.2679191 C48.1298331,55.270753 48.4719299,55.2717675 48.8191531,55.2709626 L49.8762016,55.26309 C50.0549395,55.2608682 50.234959,55.2581915 50.4162601,55.25506 L51.5194453,55.230813 L51.5194453,55.230813 L52.6533885,55.1956498 L52.6533885,55.1956498 L53.8180895,55.1495704 L53.8180895,55.1495704 L55.0135483,55.0925748 L55.0135483,55.0925748 L56.239765,55.024663 L56.239765,55.024663 L57.4967396,54.945835 L57.4967396,54.945835 L58.784472,54.8560908 L58.784472,54.8560908 L60.1029622,54.7554304 L60.1029622,54.7554304 L61.4522103,54.6438538 L61.4522103,54.6438538 L62.8322163,54.521361 L62.8322163,54.521361 C63.0584725,55.5250041 62.4007688,56.4397036 60.6690862,57.1165499 L60.3083737,57.2487036 L60.3083737,57.2487036 L59.9186839,57.3742499 C59.7165383,57.435327 59.5033997,57.4938271 59.2790778,57.5496012 L58.815467,57.6574706 C58.5761498,57.7095438 58.3255228,57.7587918 58.0633959,57.8050656 L57.5237527,57.8936035 C57.1536933,57.9499263 56.7629646,58.0007852 56.351116,58.0458271 L55.717447,58.1089834 L55.717447,58.1089834 L55.0517604,58.1631495 C54.9381257,58.1714133 54.8231429,58.1792916 54.7068049,58.1867786 L53.9924586,58.2269634 L53.9924586,58.2269634 L53.2452502,58.2574963 C53.1179582,58.2617661 52.9892828,58.2656227 52.8592171,58.2690606 L52.0620822,58.2846193 C51.9264269,58.2863603 51.7893671,58.2876716 51.6508958,58.2885476 L42.2547132,58.2937005 L42.2547132,58.2937005 L40.2612473,58.2756408 L40.2612473,58.2756408 L39.14152,58.2516159 L39.14152,58.2516159 L38.3996657,58.2256927 L38.3996657,58.2256927 L37.7339049,58.1919312 L37.7339049,58.1919312 L37.328847,58.1645965 L37.328847,58.1645965 L36.7741965,58.1156451 L36.7741965,58.1156451 L36.4366654,58.0772979 L36.4366654,58.0772979 L36.1224788,58.0340495 L36.1224788,58.0340495 L35.8295418,57.9856166 L35.8295418,57.9856166 L35.5557595,57.9317156 L35.5557595,57.9317156 L35.2990369,57.8720631 L35.2990369,57.8720631 L35.057279,57.8063756 L35.057279,57.8063756 L34.8283909,57.7343696 C34.7540071,57.709283 34.6814191,57.6830961 34.6102777,57.6557616 L34.4008443,57.5702682 L34.4008443,57.5702682 L34.1979958,57.4776058 L34.1979958,57.4776058 L33.9996373,57.377491 L33.9996373,57.377491 L33.8492948,57.2955124 C33.6660185,57.1924855 33.4837811,57.0789837 33.2948265,56.9539575 L32.9113295,56.6917109 L32.9113295,56.6917109 L32.5940261,56.4598253 L32.5940261,56.4598253 L32.2240257,56.1768093 L32.2240257,56.1768093 L31.6487188,55.7199183 L31.6487188,55.7199183 L31.1557588,55.3175978 L31.1557588,55.3175978 L30.0117478,54.3595653 L30.0117478,54.3595653 L28.6569489,53.197011 L28.6569489,53.197011 L26.5226581,51.3287933 L26.5226581,51.3287933 L24.0136331,49.0969811 L24.0136331,49.0969811 L20.7430557,46.1515833 L20.7430557,46.1515833 L19.13723,44.6948073 L19.13723,44.6948073 L15.9043686,48.3743407 L12.0259876,45.9265923 L12.0259876,45.9265923 L9.74104997,44.4688794 L9.74104997,44.4688794 L8.02066563,43.360525 L8.02066563,43.360525 L6.46730889,42.3489036 L6.46730889,42.3489036 L4.82375725,41.2626454 L4.82375725,41.2626454 L3.42072537,40.3156827 L3.42072537,40.3156827 L2.43526249,39.6329535 L2.43526249,39.6329535 L1.92415802,39.2697478 L1.92415802,39.2697478 L1.33622085,38.839644 L1.33622085,38.839644 L0.965419561,38.557694 L0.965419561,38.557694 L0.654748214,38.3105678 L0.654748214,38.3105678 L0.404206806,38.0982656 L0.404206806,38.0982656 L0.213795335,37.9207872 L0.213795335,37.9207872 L0.120259876,37.8218149 L0.120259876,37.8218149 L0.0534488338,37.7383199 C0.0178162779,37.6878156 0,37.6476295 0,37.6177617 C0,37.5907126 0.0116047739,37.5475998 0.0348143218,37.4884235 L0.0967064493,37.3486527 L0.0967064493,37.3486527 L0.207933823,37.1316185 L0.207933823,37.1316185 L0.32300889,36.923471 L0.32300889,36.923471 L0.463325002,36.6803842 L0.463325002,36.6803842 L0.721126127,36.2502429 L0.721126127,36.2502429 L1.15320462,35.5544336 L1.15320462,35.5544336 L1.8352836,34.4881386 L1.8352836,34.4881386 L3.05522515,32.6284633 L3.05522515,32.6284633 Z" id="Path" fill="#3D4E80"></path>
                            </g>
                            <path d="M59.7735305,4.92393924 C55.7291316,22.3096581 53.7069321,40.1697198 53.7069321,58.5041246 L41.8109374,110.490355 C41.107061,113.566338 40.2579857,116.607281 39.2665616,119.602976 L15.1907631,192.35061 L15.1907631,192.35061 C19.5539423,202.27309 28.0751983,205.518351 40.7545312,202.086393 L80.9354263,120.473741 C81.5752121,119.174252 82.1866887,117.861016 82.7694234,116.534963 L131.816947,4.92393924 L131.816947,4.92393924 L59.7735305,4.92393924 Z" id="Path-6" fill="#1D2336"></path>
                            <g id="Group-4" transform="translate(88.100846, 150.607283)">
                                <polygon id="Path-10" fill="#EEC3A0" fill-rule="nonzero" points="14.0566136 0 4.90897907 18.280839 28.7366408 24.5496421 36.3205716 4.01790953"></polygon>
                                <path d="M7.96448392,11.4369243 C13.7956732,17.9211298 20.0388727,20.0825317 26.6940825,17.9211298 C36.6768972,14.6790271 31.5365947,14.3057999 45.8738507,21.8321179 C60.2111067,29.3584359 68.9182046,29.1998064 69.446281,33.4665191 L69.446281,37.1680353 L25.2887007,35.5747749 C21.9939078,32.7331583 20.3465113,31.3123499 20.3465113,31.3123499 C20.3465113,31.3123499 19.8579488,32.5997378 18.8808238,35.1745137 L0,30.3877472 C1.22963154,23.7164762 2.51059468,18.7957987 3.84288941,15.6257149 C5.17518414,12.4556311 6.54904898,11.0593676 7.96448392,11.4369243 Z" id="Path-8" fill="#1D2336"></path>
                                <path d="M44.7125221,33.4261635 C52.6718985,33.4261635 60.9164339,33.5601247 69.446281,33.8280472 L69.446281,37.1680353 L25.0056706,37.1680353 L20.3465113,31.3123499 L18.8808238,35.1745137 L0,30.3877472 C0.391376375,28.2643649 0.787952997,26.3183299 1.18972987,24.5496421 L21.1621869,29.2300914 C28.203145,32.0274728 36.0532567,33.4261635 44.7125221,33.4261635 Z" id="Path" fill="#3D4E80"></path>
                            </g>
                            <path d="M60.8145907,11.273621 C55.7932931,31.5542063 68.9362407,47.9195099 100.243434,60.3695316 L132.434851,89.2254461 L96.1041906,152.310165 C101.470074,160.797135 110.325584,165.04062 122.67072,165.04062 C152.226415,125.945479 169.067442,100.673754 173.1938,89.2254461 C177.320158,77.7771379 163.400508,51.7931962 131.434851,11.273621 L131.434851,0 L60.8145907,11.273621 Z" id="Path-5" fill="url(#linearGradient-2)"></path>
                        </g>
                        <path d="M179.570008,169.281315 C183.892337,171.27179 188.343202,172.267027 192.922605,172.267027 C199.791709,172.267027 202.801513,175.128529 207.411284,177.036989 C210.484464,178.309296 209.684001,179.466594 205.009893,180.508885 C212.177219,183.418889 215.760882,186.158777 215.760882,188.728547 C215.760882,192.583202 211.386633,198.486623 197.665445,194.377839 C183.944257,190.269055 179.89096,184.545216 172.6468,182.52705 L179.570008,169.281315 Z" id="Path-4" fill="#EEC3A0" fill-rule="nonzero"></path>
                        <g id="Group-3" transform="translate(130.649873, 0.000000)" fill-rule="nonzero">
                            <circle id="Oval" fill="#EEC3A0" cx="28.3287148" cy="29.6531409" r="24.56103"></circle>
                            <path d="M10.2816648,48.0764009 C14.2969248,52.3535209 21.7538148,50.0574609 22.2770148,44.2143209 C22.3180427,43.7606717 22.3150655,43.3041164 22.2681248,42.8510409 C21.9979948,40.2627709 20.5026948,37.9129409 20.8608748,35.1801009 C20.9419449,34.4999492 21.1953495,33.8517641 21.5970748,33.2969709 C24.7967248,29.0123609 32.3076648,35.2133709 35.3273948,31.3346409 C37.1790248,28.9562909 35.0024548,25.2117009 36.4233948,22.5534909 C38.2987648,19.0450909 43.8535248,20.7757909 47.3369448,18.8544209 C51.2126848,16.7166509 50.9808648,10.7701709 48.4295948,7.15322089 C45.3182048,2.74222089 39.8629548,0.388470893 34.4756748,0.0492208935 C29.0883948,-0.290029107 23.7382248,1.16631089 18.7086748,3.12637089 C12.9941348,5.35337089 7.32734479,8.43117089 3.81067479,13.4559809 C-0.465945213,19.5667009 -0.877495213,27.7819809 1.26131479,34.9273009 C2.56240479,39.2739009 7.00277479,44.5836809 10.2816648,48.0764009 Z" id="Path" fill="#091F2F"></path>
                        </g>
                        <g id="Group-9" transform="translate(0.000000, 182.628253)">
                            <g id="Group-6" transform="translate(0.000000, 18.162676)">
                                <path d="M91.6027852,5.01561934 C93.2596394,5.01561934 94.6027852,6.35876509 94.6027852,8.01561934 L94.6027852,20.0156193 C94.6027852,21.6724736 93.2596394,23.0156193 91.6027852,23.0156193 L60.6027852,23.0156193 C58.9459309,23.0156193 57.6027852,21.6724736 57.6027852,20.0156193 L57.6027852,8.01561934 C57.6027852,6.35876509 58.9459309,5.01561934 60.6027852,5.01561934 L91.6027852,5.01561934 Z M89.602,10.015 L62.602,10.015 L62.602,18.015 L89.602,18.015 L89.602,10.015 Z" id="Rectangle" fill="#1D2336" fill-rule="nonzero" transform="translate(76.102785, 14.015619) rotate(17.000000) translate(-76.102785, -14.015619) "></path>
                                <rect id="Rectangle" fill="url(#linearGradient-3)" transform="translate(60.456359, 49.836678) rotate(16.000000) translate(-60.456359, -49.836678) " x="7.45635866" y="15.3366776" width="106" height="69"></rect>
                                <rect id="Rectangle-Copy-14" stroke="#FFFFFF" opacity="0.200000003" transform="translate(60.500000, 50.000000) rotate(16.000000) translate(-60.500000, -50.000000) " x="13" y="19" width="95" height="62"></rect>
                            </g>
                            <path d="M76.0900039,0 C76.00621,4.644214 74.7934077,8.90395814 72.4515968,12.7792324 C68.9388805,18.5921439 61.8634457,24.9130891 80.3356962,31.0828046 C77.9383084,37.760618 77.1386721,41.7636381 77.9367873,43.091865 C79.1339602,45.0842053 93.5027916,23.299375 93.5027916,2.54920726 L76.0900039,0 Z" id="Path-3" fill="#EEC3A0" fill-rule="nonzero"></path>
                        </g>
                        <path d="M132.588667,52.2141709 C119.87257,54.0133657 99.8860238,71.9606105 83.4907578,106.742499 C72.5605805,129.930424 68.5751087,155.437249 71.5343425,183.262972 L95.8522596,187.547467 C95.4270578,191.399395 99.910427,193.325359 109.302367,193.325359 L132.588667,172.267027 L151.826988,172.267027 L172.245123,186.115186 L183.308874,168.158086 L162.644455,150.493814 C164.968276,107.521282 163.746321,81.3380012 158.978588,71.9439728 C151.826988,57.8529302 145.304765,50.4149761 132.588667,52.2141709 Z" id="Path-2" fill="url(#linearGradient-4)"></path>
                        <path d="M151.60131,59.9396422 C154.168112,63.0968258 156.53666,67.1325595 158.978588,71.9439728 C159.74741,73.4588101 160.424031,75.4102231 161.008449,77.7982118 L161.199841,78.6103775 L161.199841,78.6103775 L161.384402,79.4548821 L161.384402,79.4548821 L161.562134,80.3317257 C161.591187,80.4805612 161.619955,80.6307442 161.648439,80.7822746 L161.815926,81.7076266 L161.815926,81.7076266 L161.976583,82.6653175 L161.976583,82.6653175 L162.130411,83.6553474 L162.130411,83.6553474 L162.277409,84.6777162 L162.277409,84.6777162 L162.417577,85.732424 L162.417577,85.732424 L162.550915,86.8194707 L162.550915,86.8194707 L162.677424,87.9388564 L162.677424,87.9388564 L162.797103,89.090581 C162.81648,89.28523 162.835573,89.4812264 162.854381,89.6785704 L162.963815,90.8788034 L162.963815,90.8788034 L163.066419,92.1113753 L163.066419,92.1113753 L163.162194,93.3762862 C163.192981,93.803313 163.222629,94.2357296 163.251139,94.673536 C162.803013,116.441193 159.109427,141.82901 152.170846,170.837463 L151.826988,172.267027 L132.588667,172.267027 L133.168366,171.327069 C151.591353,141.179345 157.785459,104.401735 151.750686,60.9942392 L151.60131,59.9396422 Z" id="Path" fill="#FFFFFF"></path>
                        <path d="M93.5138962,187.534134 L102.13604,135.079977 L136.847528,89.2065571 C139.686628,78.3496903 137.620743,70.2648439 130.649873,64.9520179" id="Path-9" stroke="#FFFFFF" opacity="0.200000003"></path>
                    </g>
                    <polygon id="Rectangle" fill="url(#linearGradient-5)" points="0 407.267027 142 407.267027 142 552.267027 0 552.267027"></polygon>
                    <polygon id="Rectangle-Copy-15" fill="url(#linearGradient-6)" points="163 355.267027 305 355.267027 305 552.267027 163 552.267027"></polygon>
                    <polygon id="Rectangle-Copy-16" fill="url(#linearGradient-7)" points="326 303.267027 468 303.267027 468 552.267027 326 552.267027"></polygon>
                    <polygon id="Rectangle-Copy-17" fill="url(#linearGradient-8)" points="489 251.267027 631 251.267027 631 552.267027 489 552.267027"></polygon>
                    <polygon id="Rectangle-Copy-18" fill="url(#linearGradient-9)" points="652 199.267027 794 199.267027 794 552.267027 652 552.267027"></polygon>
                </g>
            </g>
        </g>
    </g>
</svg>